<?xml version="1.0" encoding="UTF-8"?>
<svg xmlns="http://www.w3.org/2000/svg" version="1.1" baseProfile="tiny" viewBox="0 0 48 48">

  <path d="M 4,8 C 4,8 2,8 2,10 l 0,28 c 0,0.07167 0.026298,0.120877 0.03125,0.1875 L 18.5625,21.65625 4.875,8 4,8 z M 10.53125,8 21.375,18.84375 32.21875,8 10.53125,8 z M 37.875,8 24.21875,21.65625 29.875,27.34375 46,11.1875 46,10 C 46,8 44,8 44,8 L 37.875,8 z M 46,16.84375 32.6875,30.15625 42.53125,40 44,40 c 0,0 2,0 2,-2 L 46,16.84375 z M 21.375,24.5 15,30.875 23.5,39.34375 29.875,33 21.375,24.5 z M 12.1875,33.6875 5.875,40 18.46875,40 12.1875,33.6875 z m 20.5,2.125 L 28.5,40 l 8.375,0 -4.1875,-4.1875 z" stroke="#404040" stroke-width="2" opacity="0.4"/>
  <path d="M 4,9 C 4,9 2,9 2,11 l 0,28 c 0,0.07167 0.026298,0.120877 0.03125,0.1875 L 18.5625,22.65625 4.875,9 4,9 z M 10.53125,9 21.375,19.84375 32.21875,9 10.53125,9 z M 37.875,9 24.21875,22.65625 29.875,28.34375 46,12.1875 46,11 C 46,9 44,9 44,9 L 37.875,9 z M 46,17.84375 32.6875,31.15625 42.53125,41 44,41 c 0,0 2,0 2,-2 L 46,17.84375 z M 21.375,25.5 15,31.875 23.5,40.34375 29.875,34 21.375,25.5 z M 12.1875,34.6875 5.875,41 18.46875,41 12.1875,34.6875 z m 20.5,2.125 L 28.5,41 l 8.375,0 -4.1875,-4.1875 z" fill="#808080" opacity="0.8"/>
  <path d="M 4,8 C 4,8 2,8 2,10 l 0,28 c 0,0.07167 0.026298,0.120877 0.03125,0.1875 L 18.5625,21.65625 4.875,8 4,8 z M 10.53125,8 21.375,18.84375 32.21875,8 10.53125,8 z M 37.875,8 24.21875,21.65625 29.875,27.34375 46,11.1875 46,10 C 46,8 44,8 44,8 L 37.875,8 z M 46,16.84375 32.6875,30.15625 42.53125,40 44,40 c 0,0 2,0 2,-2 L 46,16.84375 z M 21.375,24.5 15,30.875 23.5,39.34375 29.875,33 21.375,24.5 z M 12.1875,33.6875 5.875,40 18.46875,40 12.1875,33.6875 z m 20.5,2.125 L 28.5,40 l 8.375,0 -4.1875,-4.1875 z" fill="#ffffff"/>

</svg>
