<?xml version="1.0" encoding="UTF-8"?>
<svg xmlns="http://www.w3.org/2000/svg" version="1.1" baseProfile="tiny" viewBox="0 0 48 48">

  <path d="m 25,10 0,8 -13,0 c 0,0 -2,0 -2,2 0,2 2,2 2,2 l 32,0 z m -21,16 19,12 0,-8 13,0 c 0,0 2,0 2,-2 0,-2 -2,-2 -2,-2 z" stroke="#404040" stroke-width="2" opacity="0.4"/>
  <path d="m 25,11 0,8 -13,0 c 0,0 -2,0 -2,2 0,2 2,2 2,2 l 32,0 z m -21,16 19,12 0,-8 13,0 c 0,0 2,0 2,-2 0,-2 -2,-2 -2,-2 z" fill="#808080" opacity="0.8"/>
  <path d="m 25,10 0,8 -13,0 c 0,0 -2,0 -2,2 0,2 2,2 2,2 l 32,0 z m -21,16 19,12 0,-8 13,0 c 0,0 2,0 2,-2 0,-2 -2,-2 -2,-2 z" fill="#ffffff"/>

</svg>
