<?xml version="1.0" encoding="UTF-8"?>
<svg xmlns="http://www.w3.org/2000/svg" version="1.1" baseProfile="tiny" viewBox="0 0 48 48">

  <path d="m 24.599609,7.8808594 c -0.486703,-0.00608 -0.977654,0.012703 -1.472656,0.056641 0,0 -0.40154,0.032847 -0.748047,0.294922 -0.115508,0.08735 -0.206782,0.206738 -0.287109,0.353516 -0.1071,0.195703 -0.192825,0.472038 -0.164063,0.800781 0.115044,1.3149756 1.449219,1.1972646 1.449219,1.1972646 6.476667,-0.570611 12.174716,4.156358 12.824219,10.63086 l 0.04492,0.121094 c 0.199006,2.172902 -0.211053,4.249152 -1.074219,6.091796 0,0 -0.565467,1.21363 0.630859,1.771485 1.196326,0.557856 1.771485,-0.628906 1.771485,-0.628907 1.057359,-2.25158 1.536299,-4.811865 1.292969,-7.46875 l -0.002,-0.111328 C 38.120748,13.568398 31.900164,7.9719903 24.599609,7.8808594 Z m -0.05273,5.2910156 c -0.309404,-0.0039 -0.620923,0.0077 -0.935547,0.03516 0,0 -0.419119,0.0055 -0.765625,0.267578 -0.115509,0.08735 -0.232173,0.224316 -0.3125,0.371094 -0.1071,0.195702 -0.147902,0.481803 -0.119141,0.810547 0.115046,1.314977 1.429688,1.171875 1.429688,1.171875 3.590574,-0.306184 6.807766,2.339009 7.167969,5.929687 l -0.05273,0.03711 c 0.111275,1.214994 -0.07165,2.371324 -0.554687,3.402344 0,0 -0.583045,1.188237 0.613281,1.746093 1.196326,0.557856 1.771485,-0.630859 1.771484,-0.630859 0.669146,-1.433836 0.965245,-3.037426 0.810547,-4.726562 l 0.02344,-0.128907 C 33.149729,16.738692 29.18795,13.230321 24.546886,13.171879 Z m -11.228516,7.792969 a 5,5 0 0 0 -1.888671,0.345703 l 1.826171,1.826172 c 0.783474,0.783474 0.783474,2.044651 0,2.828125 -0.783475,0.783474 -2.04465,0.783474 -2.828125,0 L 8.6074219,24.144531 A 5,5 0 0 0 9.7207031,29.5 5,5 0 0 0 15.117188,30.597656 c 0.07392,0.112176 0.160892,0.217533 0.259765,0.316406 l 7.779297,7.779297 c 0.783474,0.783474 2.04465,0.783474 2.828125,0 0.783474,-0.783474 0.783474,-2.044651 0,-2.828125 l -7.779297,-7.779296 c -0.09887,-0.09887 -0.204225,-0.185854 -0.316406,-0.259766 a 5,5 0 0 0 -1.097656,-5.396484 5,5 0 0 0 -3.472657,-1.464844 z" stroke="#404040" stroke-width="2" opacity="0.4"/>
  <path d="m 24.599609,8.8808594 c -0.486703,-0.00608 -0.977654,0.012703 -1.472656,0.056641 0,0 -0.40154,0.032847 -0.748047,0.2949216 -0.115508,0.08735 -0.206782,0.206738 -0.287109,0.353516 -0.1071,0.195703 -0.192825,0.472038 -0.164063,0.800781 0.115044,1.314976 1.449219,1.197265 1.449219,1.197265 6.476667,-0.570611 12.174716,4.156358 12.824219,10.63086 l 0.04492,0.121094 c 0.199006,2.172902 -0.211053,4.249152 -1.074219,6.091796 0,0 -0.565467,1.21363 0.630859,1.771485 1.196326,0.557856 1.771485,-0.628906 1.771485,-0.628907 1.057359,-2.25158 1.536299,-4.811865 1.292969,-7.46875 l -0.002,-0.111328 C 38.120748,14.568398 31.900164,8.9719903 24.599609,8.8808594 Z m -0.05273,5.2910156 c -0.309404,-0.0039 -0.620923,0.0077 -0.935547,0.03516 0,0 -0.419119,0.0055 -0.765625,0.267578 -0.115509,0.08735 -0.232173,0.224316 -0.3125,0.371094 -0.1071,0.195702 -0.147902,0.481803 -0.119141,0.810547 0.115046,1.314977 1.429688,1.171875 1.429688,1.171875 3.590574,-0.306184 6.807766,2.339009 7.167969,5.929687 l -0.05273,0.03711 c 0.111275,1.214994 -0.07165,2.371324 -0.554687,3.402344 0,0 -0.583045,1.188237 0.613281,1.746093 1.196326,0.557856 1.771485,-0.630859 1.771484,-0.630859 0.669146,-1.433836 0.965245,-3.037426 0.810547,-4.726562 l 0.02344,-0.128907 C 33.149729,17.738692 29.18795,14.230321 24.546886,14.171879 Z m -11.228516,7.792969 a 5,5 0 0 0 -1.888671,0.345703 l 1.826171,1.826172 c 0.783474,0.783474 0.783474,2.044651 0,2.828125 -0.783475,0.783474 -2.04465,0.783474 -2.828125,0 L 8.6074219,25.144531 A 5,5 0 0 0 9.7207031,30.5 5,5 0 0 0 15.117188,31.597656 c 0.07392,0.112176 0.160892,0.217533 0.259765,0.316406 l 7.779297,7.779297 c 0.783474,0.783474 2.04465,0.783474 2.828125,0 0.783474,-0.783474 0.783474,-2.044651 0,-2.828125 l -7.779297,-7.779296 c -0.09887,-0.09887 -0.204225,-0.185854 -0.316406,-0.259766 a 5,5 0 0 0 -1.097656,-5.396484 5,5 0 0 0 -3.472657,-1.464844 z" fill="#808080" opacity="0.8"/>
  <path d="m 24.599609,7.8808594 c -0.486703,-0.00608 -0.977654,0.012703 -1.472656,0.056641 0,0 -0.40154,0.032847 -0.748047,0.294922 -0.115508,0.08735 -0.206782,0.206738 -0.287109,0.353516 -0.1071,0.195703 -0.192825,0.472038 -0.164063,0.800781 0.115044,1.3149756 1.449219,1.1972646 1.449219,1.1972646 6.476667,-0.570611 12.174716,4.156358 12.824219,10.63086 l 0.04492,0.121094 c 0.199006,2.172902 -0.211053,4.249152 -1.074219,6.091796 0,0 -0.565467,1.21363 0.630859,1.771485 1.196326,0.557856 1.771485,-0.628906 1.771485,-0.628907 1.057359,-2.25158 1.536299,-4.811865 1.292969,-7.46875 l -0.002,-0.111328 C 38.120748,13.568398 31.900164,7.9719903 24.599609,7.8808594 Z m -0.05273,5.2910156 c -0.309404,-0.0039 -0.620923,0.0077 -0.935547,0.03516 0,0 -0.419119,0.0055 -0.765625,0.267578 -0.115509,0.08735 -0.232173,0.224316 -0.3125,0.371094 -0.1071,0.195702 -0.147902,0.481803 -0.119141,0.810547 0.115046,1.314977 1.429688,1.171875 1.429688,1.171875 3.590574,-0.306184 6.807766,2.339009 7.167969,5.929687 l -0.05273,0.03711 c 0.111275,1.214994 -0.07165,2.371324 -0.554687,3.402344 0,0 -0.583045,1.188237 0.613281,1.746093 1.196326,0.557856 1.771485,-0.630859 1.771484,-0.630859 0.669146,-1.433836 0.965245,-3.037426 0.810547,-4.726562 l 0.02344,-0.128907 C 33.149729,16.738692 29.18795,13.230321 24.546886,13.171879 Z m -11.228516,7.792969 a 5,5 0 0 0 -1.888671,0.345703 l 1.826171,1.826172 c 0.783474,0.783474 0.783474,2.044651 0,2.828125 -0.783475,0.783474 -2.04465,0.783474 -2.828125,0 L 8.6074219,24.144531 A 5,5 0 0 0 9.7207031,29.5 5,5 0 0 0 15.117188,30.597656 c 0.07392,0.112176 0.160892,0.217533 0.259765,0.316406 l 7.779297,7.779297 c 0.783474,0.783474 2.04465,0.783474 2.828125,0 0.783474,-0.783474 0.783474,-2.044651 0,-2.828125 l -7.779297,-7.779296 c -0.09887,-0.09887 -0.204225,-0.185854 -0.316406,-0.259766 a 5,5 0 0 0 -1.097656,-5.396484 5,5 0 0 0 -3.472657,-1.464844 z" fill="#ffffff"/>

</svg>
