<?xml version="1.0" encoding="UTF-8"?>
<svg xmlns="http://www.w3.org/2000/svg" version="1.1" baseProfile="tiny" viewBox="0 0 48 48">

  <path d="m 14,4 c -1.108,0 -2,0.892 -2,2 l 0,36 c 0,1.108 0.892,2 2,2 l 20,0 c 1.108,0 2,-0.892 2,-2 L 36,6 C 36,4.892 35.108,4 34,4 L 14,4 z m 0,4 20,0 0,32 -20,0 0,-32 z m 10,6 c -0.554,0 -1,0.446 -1,1 l 0,6 c 0,0.554 0.446,1 1,1 0.554,0 1,-0.446 1,-1 l 0,-6 c 0,-0.554 -0.446,-1 -1,-1 z m -3.625,2.9375 c -0.128911,0.016 -0.255426,0.05596 -0.375,0.125 -0.04924,0.02843 -0.08256,0.08997 -0.125,0.125 C 18.750914,17.851871 17.762824,18.787003 17.0625,20 14.853361,23.826341 16.173659,28.728361 20,30.9375 23.826341,33.146639 28.728361,31.826341 30.9375,28 32.456283,25.36939 32.294839,22.232618 30.8125,19.8125 30.13871,18.712447 29.195732,17.752856 28,17.0625 27.521708,16.786357 26.901143,16.959206 26.625,17.4375 26.348857,17.915793 26.521708,18.536357 27,18.8125 29.869756,20.469354 30.844354,24.130245 29.1875,27 27.530646,29.869755 23.869756,30.844354 21,29.1875 18.130246,27.530647 17.155647,23.869756 18.8125,21 19.358815,20.053757 20.119483,19.319876 21,18.8125 c 0.478292,-0.276143 0.651143,-0.896707 0.375,-1.375 -0.207106,-0.358719 -0.613266,-0.547988 -1,-0.5 z" stroke="#404040" stroke-width="2" opacity="0.4"/>
  <path d="m 14,5 c -1.108,0 -2,0.892 -2,2 l 0,36 c 0,1.108 0.892,2 2,2 l 20,0 c 1.108,0 2,-0.892 2,-2 L 36,7 C 36,5.892 35.108,5 34,5 L 14,5 z m 0,4 20,0 0,32 -20,0 0,-32 z m 10,6 c -0.554,0 -1,0.446 -1,1 l 0,6 c 0,0.554 0.446,1 1,1 0.554,0 1,-0.446 1,-1 l 0,-6 c 0,-0.554 -0.446,-1 -1,-1 z m -3.625,2.9375 c -0.128911,0.016 -0.255426,0.05596 -0.375,0.125 -0.04924,0.02843 -0.08256,0.08997 -0.125,0.125 C 18.750914,18.851871 17.762824,19.787003 17.0625,21 14.853361,24.826341 16.173659,29.728361 20,31.9375 23.826341,34.146639 28.728361,32.826341 30.9375,29 32.456283,26.36939 32.294839,23.232618 30.8125,20.8125 30.13871,19.712447 29.195732,18.752856 28,18.0625 27.521708,17.786357 26.901143,17.959206 26.625,18.4375 26.348857,18.915793 26.521708,19.536357 27,19.8125 29.869756,21.469354 30.844354,25.130245 29.1875,28 27.530646,30.869755 23.869756,31.844354 21,30.1875 18.130246,28.530647 17.155647,24.869756 18.8125,22 19.358815,21.053757 20.119483,20.319876 21,19.8125 c 0.478292,-0.276143 0.651143,-0.896707 0.375,-1.375 -0.207106,-0.358719 -0.613266,-0.547988 -1,-0.5 z" fill="#808080" opacity="0.8"/>
  <path d="m 14,4 c -1.108,0 -2,0.892 -2,2 l 0,36 c 0,1.108 0.892,2 2,2 l 20,0 c 1.108,0 2,-0.892 2,-2 L 36,6 C 36,4.892 35.108,4 34,4 L 14,4 z m 0,4 20,0 0,32 -20,0 0,-32 z m 10,6 c -0.554,0 -1,0.446 -1,1 l 0,6 c 0,0.554 0.446,1 1,1 0.554,0 1,-0.446 1,-1 l 0,-6 c 0,-0.554 -0.446,-1 -1,-1 z m -3.625,2.9375 c -0.128911,0.016 -0.255426,0.05596 -0.375,0.125 -0.04924,0.02843 -0.08256,0.08997 -0.125,0.125 C 18.750914,17.851871 17.762824,18.787003 17.0625,20 14.853361,23.826341 16.173659,28.728361 20,30.9375 23.826341,33.146639 28.728361,31.826341 30.9375,28 32.456283,25.36939 32.294839,22.232618 30.8125,19.8125 30.13871,18.712447 29.195732,17.752856 28,17.0625 27.521708,16.786357 26.901143,16.959206 26.625,17.4375 26.348857,17.915793 26.521708,18.536357 27,18.8125 29.869756,20.469354 30.844354,24.130245 29.1875,27 27.530646,29.869755 23.869756,30.844354 21,29.1875 18.130246,27.530647 17.155647,23.869756 18.8125,21 19.358815,20.053757 20.119483,19.319876 21,18.8125 c 0.478292,-0.276143 0.651143,-0.896707 0.375,-1.375 -0.207106,-0.358719 -0.613266,-0.547988 -1,-0.5 z" fill="#ffffff"/>

</svg>
