<?xml version="1.0" encoding="UTF-8"?>
<svg xmlns="http://www.w3.org/2000/svg" version="1.1" baseProfile="tiny" viewBox="0 0 48 48">

  <path d="m 11,5 c -0.554,0 -1,0.446 -1,1 l 0,36 c 0,0.554 0.446,1 1,1 l 26,0 c 0.554,0 1,-0.446 1,-1 L 38,6 C 38,5.446 37.554,5 37,5 L 11,5 z m 3,3 20,0 c 0.554,0 1,0.446 1,1 l 0,30 c 0,0.554 -0.446,1 -1,1 l -20,0 c -0.554,0 -1,-0.446 -1,-1 L 13,9 c 0,-0.554 0.446,-1 1,-1 z m 1,2 0,2 9,0 0,-2 -9,0 z m 0,4 0,2 4,0 0,-2 -4,0 z m 0,4 0,2 15,0 0,-2 -15,0 z m 0,4 0,2 4,0 0,-2 -4,0 z m 0,4 0,2 12,0 0,-2 -12,0 z" stroke="#404040" stroke-width="2" opacity="0.4"/>
  <path d="m 11,6 c -0.554,0 -1,0.446 -1,1 l 0,36 c 0,0.554 0.446,1 1,1 l 26,0 c 0.554,0 1,-0.446 1,-1 L 38,7 C 38,6.446 37.554,6 37,6 L 11,6 z m 3,3 20,0 c 0.554,0 1,0.446 1,1 l 0,30 c 0,0.554 -0.446,1 -1,1 l -20,0 c -0.554,0 -1,-0.446 -1,-1 l 0,-30 c 0,-0.554 0.446,-1 1,-1 z m 1,2 0,2 9,0 0,-2 -9,0 z m 0,4 0,2 4,0 0,-2 -4,0 z m 0,4 0,2 15,0 0,-2 -15,0 z m 0,4 0,2 4,0 0,-2 -4,0 z m 0,4 0,2 12,0 0,-2 -12,0 z" fill="#808080" opacity="0.8"/>
  <path d="m 11,5 c -0.554,0 -1,0.446 -1,1 l 0,36 c 0,0.554 0.446,1 1,1 l 26,0 c 0.554,0 1,-0.446 1,-1 L 38,6 C 38,5.446 37.554,5 37,5 L 11,5 z m 3,3 20,0 c 0.554,0 1,0.446 1,1 l 0,30 c 0,0.554 -0.446,1 -1,1 l -20,0 c -0.554,0 -1,-0.446 -1,-1 L 13,9 c 0,-0.554 0.446,-1 1,-1 z m 1,2 0,2 9,0 0,-2 -9,0 z m 0,4 0,2 4,0 0,-2 -4,0 z m 0,4 0,2 15,0 0,-2 -15,0 z m 0,4 0,2 4,0 0,-2 -4,0 z m 0,4 0,2 12,0 0,-2 -12,0 z" fill="#ffffff"/>

</svg>
