<?xml version="1.0" encoding="UTF-8"?>
<svg xmlns="http://www.w3.org/2000/svg" version="1.1" baseProfile="tiny" viewBox="0 0 48 48">

  <path d="m 36.727922,11.272078 c -0.781048,-0.781048 -2.047378,-0.781049 -2.828427,0 -0.781049,0.781049 -0.781048,2.047379 0,2.828427 5.46734,5.46734 5.46734,14.33165 0,19.79899 -0.781048,0.781048 -0.781048,2.047379 0,2.828427 0.781048,0.781048 2.047379,0.781048 2.828427,0 0.09763,-0.09763 0.191942,-0.198459 0.265165,-0.309359 6.647057,-6.951088 6.647057,-17.886038 0,-24.837126 -0.07322,-0.1109 -0.167534,-0.211728 -0.265165,-0.309359 z m -5.656854,5.656854 c -0.781048,-0.781048 -2.047379,-0.781048 -2.828427,0 -0.781049,0.781048 -0.781049,2.047379 0,2.828427 2.343145,2.343146 2.343145,6.142136 0,8.485282 -0.781049,0.781048 -0.781049,2.047379 0,2.828427 0.781048,0.781048 2.047379,0.781048 2.828427,0 0.09763,-0.09763 0.191942,-0.198459 0.265165,-0.309359 3.529745,-3.823653 3.529745,-9.699765 0,-13.523418 -0.07322,-0.1109 -0.167534,-0.211728 -0.265165,-0.309359 z M 14.100505,11.272078 c -0.781049,-0.781049 -2.047379,-0.781048 -2.828427,0 -0.09763,0.09763 -0.191942,0.198459 -0.265165,0.309359 -6.6470566,6.951088 -6.647057,17.886038 0,24.837126 0.07322,0.1109 0.167534,0.211728 0.265165,0.309359 0.781048,0.781048 2.047379,0.781048 2.828427,0 0.781048,-0.781048 0.781048,-2.047379 0,-2.828427 -5.4673397,-5.46734 -5.4673397,-14.33165 0,-19.79899 0.781048,-0.781048 0.781049,-2.047378 0,-2.828427 z m 5.656854,5.656854 c -0.781048,-0.781048 -2.047379,-0.781048 -2.828427,0 -0.09763,0.09763 -0.191942,0.198459 -0.265165,0.309359 -3.529745,3.823653 -3.529745,9.699765 0,13.523418 0.07322,0.1109 0.167534,0.211728 0.265165,0.309359 0.781048,0.781048 2.047379,0.781048 2.828427,0 0.781049,-0.781048 0.781049,-2.047379 0,-2.828427 -2.343145,-2.343146 -2.343145,-6.142136 0,-8.485282 0.781049,-0.781048 0.781049,-2.047379 0,-2.828427 z m 5.656855,5.656854 c -0.781049,-0.781048 -2.047379,-0.781048 -2.828428,0 -0.781048,0.781049 -0.781048,2.047379 0,2.828428 0.781049,0.781048 2.047379,0.781048 2.828428,0 0.781048,-0.781049 0.781048,-2.047379 0,-2.828428 z" stroke="#404040" stroke-width="2" opacity="0.4"/>
  <path d="m 36.727922,12.272078 c -0.781048,-0.781048 -2.047378,-0.781049 -2.828427,0 -0.781049,0.781049 -0.781048,2.047379 0,2.828427 5.46734,5.46734 5.46734,14.33165 0,19.79899 -0.781048,0.781048 -0.781048,2.047379 0,2.828427 0.781048,0.781048 2.047379,0.781048 2.828427,0 0.09763,-0.09763 0.191942,-0.198459 0.265165,-0.309359 6.647057,-6.951088 6.647057,-17.886038 0,-24.837126 -0.07322,-0.1109 -0.167534,-0.211728 -0.265165,-0.309359 z m -5.656854,5.656854 c -0.781048,-0.781048 -2.047379,-0.781048 -2.828427,0 -0.781049,0.781048 -0.781049,2.047379 0,2.828427 2.343145,2.343146 2.343145,6.142136 0,8.485282 -0.781049,0.781048 -0.781049,2.047379 0,2.828427 0.781048,0.781048 2.047379,0.781048 2.828427,0 0.09763,-0.09763 0.191942,-0.198459 0.265165,-0.309359 3.529745,-3.823653 3.529745,-9.699765 0,-13.523418 -0.07322,-0.1109 -0.167534,-0.211728 -0.265165,-0.309359 z M 14.100505,12.272078 c -0.781049,-0.781049 -2.047379,-0.781048 -2.828427,0 -0.09763,0.09763 -0.191942,0.198459 -0.265165,0.309359 -6.6470566,6.951088 -6.647057,17.886038 0,24.837126 0.07322,0.1109 0.167534,0.211728 0.265165,0.309359 0.781048,0.781048 2.047379,0.781048 2.828427,0 0.781048,-0.781048 0.781048,-2.047379 0,-2.828427 -5.4673397,-5.46734 -5.4673397,-14.33165 0,-19.79899 0.781048,-0.781048 0.781049,-2.047378 0,-2.828427 z m 5.656854,5.656854 c -0.781048,-0.781048 -2.047379,-0.781048 -2.828427,0 -0.09763,0.09763 -0.191942,0.198459 -0.265165,0.309359 -3.529745,3.823653 -3.529745,9.699765 0,13.523418 0.07322,0.1109 0.167534,0.211728 0.265165,0.309359 0.781048,0.781048 2.047379,0.781048 2.828427,0 0.781049,-0.781048 0.781049,-2.047379 0,-2.828427 -2.343145,-2.343146 -2.343145,-6.142136 0,-8.485282 0.781049,-0.781048 0.781049,-2.047379 0,-2.828427 z m 5.656855,5.656854 c -0.781049,-0.781048 -2.047379,-0.781048 -2.828428,0 -0.781048,0.781049 -0.781048,2.047379 0,2.828428 0.781049,0.781048 2.047379,0.781048 2.828428,0 0.781048,-0.781049 0.781048,-2.047379 0,-2.828428 z" fill="#808080" opacity="0.8"/>
  <path d="m 36.727922,11.272078 c -0.781048,-0.781048 -2.047378,-0.781049 -2.828427,0 -0.781049,0.781049 -0.781048,2.047379 0,2.828427 5.46734,5.46734 5.46734,14.33165 0,19.79899 -0.781048,0.781048 -0.781048,2.047379 0,2.828427 0.781048,0.781048 2.047379,0.781048 2.828427,0 0.09763,-0.09763 0.191942,-0.198459 0.265165,-0.309359 6.647057,-6.951088 6.647057,-17.886038 0,-24.837126 -0.07322,-0.1109 -0.167534,-0.211728 -0.265165,-0.309359 z m -5.656854,5.656854 c -0.781048,-0.781048 -2.047379,-0.781048 -2.828427,0 -0.781049,0.781048 -0.781049,2.047379 0,2.828427 2.343145,2.343146 2.343145,6.142136 0,8.485282 -0.781049,0.781048 -0.781049,2.047379 0,2.828427 0.781048,0.781048 2.047379,0.781048 2.828427,0 0.09763,-0.09763 0.191942,-0.198459 0.265165,-0.309359 3.529745,-3.823653 3.529745,-9.699765 0,-13.523418 -0.07322,-0.1109 -0.167534,-0.211728 -0.265165,-0.309359 z M 14.100505,11.272078 c -0.781049,-0.781049 -2.047379,-0.781048 -2.828427,0 -0.09763,0.09763 -0.191942,0.198459 -0.265165,0.309359 -6.6470566,6.951088 -6.647057,17.886038 0,24.837126 0.07322,0.1109 0.167534,0.211728 0.265165,0.309359 0.781048,0.781048 2.047379,0.781048 2.828427,0 0.781048,-0.781048 0.781048,-2.047379 0,-2.828427 -5.4673397,-5.46734 -5.4673397,-14.33165 0,-19.79899 0.781048,-0.781048 0.781049,-2.047378 0,-2.828427 z m 5.656854,5.656854 c -0.781048,-0.781048 -2.047379,-0.781048 -2.828427,0 -0.09763,0.09763 -0.191942,0.198459 -0.265165,0.309359 -3.529745,3.823653 -3.529745,9.699765 0,13.523418 0.07322,0.1109 0.167534,0.211728 0.265165,0.309359 0.781048,0.781048 2.047379,0.781048 2.828427,0 0.781049,-0.781048 0.781049,-2.047379 0,-2.828427 -2.343145,-2.343146 -2.343145,-6.142136 0,-8.485282 0.781049,-0.781048 0.781049,-2.047379 0,-2.828427 z m 5.656855,5.656854 c -0.781049,-0.781048 -2.047379,-0.781048 -2.828428,0 -0.781048,0.781049 -0.781048,2.047379 0,2.828428 0.781049,0.781048 2.047379,0.781048 2.828428,0 0.781048,-0.781049 0.781048,-2.047379 0,-2.828428 z" fill="#ffffff"/>

</svg>
