<?xml version="1.0" encoding="UTF-8"?>
<svg xmlns="http://www.w3.org/2000/svg" version="1.1" baseProfile="tiny" viewBox="0 0 48 48">

  <path d="M 23.9375,10 C 13.444176,10.031415 4.9573653,16.330577 5,24.0625 c 0.010659,1.932981 0.5605699,3.765455 1.53125,5.4375 0.48534,0.836022 1.0630113,1.632246 1.75,2.375 L 7,39 13.4375,35.65625 c 1.013573,0.50015 2.111492,0.899186 3.25,1.25 C 18.964516,37.607877 21.439169,38.0079 24.0625,38 34.555824,37.968585 43.04264,31.669423 43,23.9375 l 0,-0.125 C 42.867389,16.128399 34.36668,9.968777 23.9375,10 z M 21,14 l 6,0 -2,16 -2,0 -2,-16 z m 3,17 c 1.097808,-0.0045 1.986041,0.871021 2,1.96875 L 26,33 c 0.0045,1.10456 -0.89544,1.995512 -2,2 -1.10456,0.0045 -1.995512,-0.89544 -2,-2 -0.0045,-1.10456 0.89544,-1.995512 2,-2 z" stroke="#404040" stroke-width="2" opacity="0.4"/>
  <path d="M 23.9375,11 C 13.444176,11.031415 4.9573653,17.330577 5,25.0625 c 0.010659,1.932981 0.5605699,3.765455 1.53125,5.4375 0.48534,0.836022 1.0630113,1.632246 1.75,2.375 L 7,40 13.4375,36.65625 c 1.013573,0.50015 2.111492,0.899186 3.25,1.25 C 18.964516,38.607877 21.439169,39.0079 24.0625,39 34.555824,38.968585 43.04264,32.669423 43,24.9375 l 0,-0.125 C 42.867389,17.128399 34.36668,10.968777 23.9375,11 z M 21,15 l 6,0 -2,16 -2,0 -2,-16 z m 3,17 c 1.097808,-0.0045 1.986041,0.871021 2,1.96875 L 26,34 c 0.0045,1.10456 -0.89544,1.995512 -2,2 -1.10456,0.0045 -1.995512,-0.89544 -2,-2 -0.0045,-1.10456 0.89544,-1.995512 2,-2 z" fill="#808080" opacity="0.8"/>
  <path d="M 23.9375,10 C 13.444176,10.031415 4.9573653,16.330577 5,24.0625 c 0.010659,1.932981 0.5605699,3.765455 1.53125,5.4375 0.48534,0.836022 1.0630113,1.632246 1.75,2.375 L 7,39 13.4375,35.65625 c 1.013573,0.50015 2.111492,0.899186 3.25,1.25 C 18.964516,37.607877 21.439169,38.0079 24.0625,38 34.555824,37.968585 43.04264,31.669423 43,23.9375 l 0,-0.125 C 42.867389,16.128399 34.36668,9.968777 23.9375,10 z M 21,14 l 6,0 -2,16 -2,0 -2,-16 z m 3,17 c 1.097808,-0.0045 1.986041,0.871021 2,1.96875 L 26,33 c 0.0045,1.10456 -0.89544,1.995512 -2,2 -1.10456,0.0045 -1.995512,-0.89544 -2,-2 -0.0045,-1.10456 0.89544,-1.995512 2,-2 z" fill="#ffffff"/>

</svg>
