<?xml version="1.0" encoding="UTF-8"?>
<svg xmlns="http://www.w3.org/2000/svg" version="1.1" baseProfile="tiny" viewBox="0 0 48 48">

  <path d="M 23.5,9 C 18.613849,9.0284476 13,10 9,12 c -2,1 -6,3 -6,6 0,6 9,3 12,8 2,3 -6,4 -6,7 0,3 4.078664,4.996908 6.53125,5.78125 C 17.983836,39.565593 20.669541,40 23.5,40 34.821837,40 44,33.060414 44,24.5 44,15.939586 34.821837,9 23.5,9 z m 3,3.1875 c 0.230163,0.0068 0.480796,0.02054 0.71875,0.0625 1.90363,0.335661 3.239758,1.702764 3,3.0625 -0.239758,1.359736 -1.97137,2.210661 -3.875,1.875 -1.90363,-0.335661 -3.239758,-1.734014 -3,-3.09375 C 23.553538,12.903981 24.888859,12.140124 26.5,12.1875 z M 16,12.875 c 1.310248,-0.07301 2.427077,0.464416 2.78125,1.4375 0.472231,1.297445 -0.621077,2.870126 -2.4375,3.53125 -1.816423,0.661124 -3.652769,0.141195 -4.125,-1.15625 -0.472231,-1.297445 0.621077,-2.870126 2.4375,-3.53125 C 15.110356,12.990969 15.563251,12.899338 16,12.875 z m 18.875,3.28125 c 0.774725,-0.07511 1.694238,0.141751 2.53125,0.625 1.674024,0.966498 2.471606,2.710518 1.78125,3.90625 -0.690356,1.195732 -2.607226,1.372748 -4.28125,0.40625 -1.674024,-0.966498 -2.471606,-2.710518 -1.78125,-3.90625 0.345178,-0.597866 0.975275,-0.956138 1.75,-1.03125 z M 17.53125,31 c 1.402017,0 2.53125,1.119288 2.53125,2.5 0,1.380712 -1.129233,2.5 -2.53125,2.5 C 16.129233,36 15,34.880712 15,33.5 15,32.119288 16.129233,31 17.53125,31 z" stroke="#404040" stroke-width="2" opacity="0.4"/>
  <path d="M 23.5,10 C 18.613849,10.028448 13,11 9,13 c -2,1 -6,3 -6,6 0,6 9,3 12,8 2,3 -6,4 -6,7 0,3 4.078664,4.996908 6.53125,5.78125 C 17.983836,40.565593 20.669541,41 23.5,41 34.821837,41 44,34.060414 44,25.5 44,16.939586 34.821837,10 23.5,10 z m 3,3.1875 c 0.230163,0.0068 0.480796,0.02054 0.71875,0.0625 1.90363,0.335661 3.239758,1.702764 3,3.0625 -0.239758,1.359736 -1.97137,2.210661 -3.875,1.875 -1.90363,-0.335661 -3.239758,-1.734014 -3,-3.09375 C 23.553538,13.903981 24.888859,13.140124 26.5,13.1875 z M 16,13.875 c 1.310248,-0.07301 2.427077,0.464416 2.78125,1.4375 0.472231,1.297445 -0.621077,2.870126 -2.4375,3.53125 -1.816423,0.661124 -3.652769,0.141195 -4.125,-1.15625 -0.472231,-1.297445 0.621077,-2.870126 2.4375,-3.53125 C 15.110356,13.990969 15.563251,13.899338 16,13.875 z m 18.875,3.28125 c 0.774725,-0.07511 1.694238,0.141751 2.53125,0.625 1.674024,0.966498 2.471606,2.710518 1.78125,3.90625 -0.690356,1.195732 -2.607226,1.372748 -4.28125,0.40625 -1.674024,-0.966498 -2.471606,-2.710518 -1.78125,-3.90625 0.345178,-0.597866 0.975275,-0.956138 1.75,-1.03125 z M 17.53125,32 c 1.402017,0 2.53125,1.119288 2.53125,2.5 0,1.380712 -1.129233,2.5 -2.53125,2.5 C 16.129233,37 15,35.880712 15,34.5 15,33.119288 16.129233,32 17.53125,32 z" fill="#808080" opacity="0.8"/>
  <path d="M 23.5,9 C 18.613849,9.0284476 13,10 9,12 c -2,1 -6,3 -6,6 0,6 9,3 12,8 2,3 -6,4 -6,7 0,3 4.078664,4.996908 6.53125,5.78125 C 17.983836,39.565593 20.669541,40 23.5,40 34.821837,40 44,33.060414 44,24.5 44,15.939586 34.821837,9 23.5,9 z m 3,3.1875 c 0.230163,0.0068 0.480796,0.02054 0.71875,0.0625 1.90363,0.335661 3.239758,1.702764 3,3.0625 -0.239758,1.359736 -1.97137,2.210661 -3.875,1.875 -1.90363,-0.335661 -3.239758,-1.734014 -3,-3.09375 C 23.553538,12.903981 24.888859,12.140124 26.5,12.1875 z M 16,12.875 c 1.310248,-0.07301 2.427077,0.464416 2.78125,1.4375 0.472231,1.297445 -0.621077,2.870126 -2.4375,3.53125 -1.816423,0.661124 -3.652769,0.141195 -4.125,-1.15625 -0.472231,-1.297445 0.621077,-2.870126 2.4375,-3.53125 C 15.110356,12.990969 15.563251,12.899338 16,12.875 z m 18.875,3.28125 c 0.774725,-0.07511 1.694238,0.141751 2.53125,0.625 1.674024,0.966498 2.471606,2.710518 1.78125,3.90625 -0.690356,1.195732 -2.607226,1.372748 -4.28125,0.40625 -1.674024,-0.966498 -2.471606,-2.710518 -1.78125,-3.90625 0.345178,-0.597866 0.975275,-0.956138 1.75,-1.03125 z M 17.53125,31 c 1.402017,0 2.53125,1.119288 2.53125,2.5 0,1.380712 -1.129233,2.5 -2.53125,2.5 C 16.129233,36 15,34.880712 15,33.5 15,32.119288 16.129233,31 17.53125,31 z" fill="#ffffff"/>

</svg>
