<?xml version="1.0" encoding="UTF-8"?>
<svg xmlns="http://www.w3.org/2000/svg" version="1.1" baseProfile="tiny" viewBox="0 0 48 48">

  <path d="M 11.75,4 V 6.5 13 l -3.5,-3.5 -1.5,1.5 4,4 -4,4 1.5,1.5 3.5,-3.5 v 9 l 6.5,-6.5 -4.5,-4.5 4.5,-4.5 z m 2,5 1.5,1.5 -1.5,1.5 z m 22,3 v 2.5 6.5 l -3.5,-3.5 -1.5,1.5 4,4 -4,4 1.5,1.5 3.5,-3.5 v 9 l 6.5,-6.5 -4.5,-4.5 4.5,-4.5 z m 2,5 1.5,1.5 -1.5,1.5 z m -24,1 1.5,1.5 -1.5,1.5 z m 9,4 v 2.5 6.5 l -3.5,-3.5 -1.5,1.5 4,4 -4,4 1.5,1.5 3.5,-3.5 v 9 l 6.5,-6.5 -4.5,-4.5 4.5,-4.5 z m 15,4 1.5,1.5 -1.5,1.5 z m -13,1 1.5,1.5 -1.5,1.5 z m 0,9 1.5,1.5 -1.5,1.5 z" stroke="#404040" stroke-width="2" opacity="0.4"/>
  <path d="M 11.75,5 V 7.5 14 l -3.5,-3.5 -1.5,1.5 4,4 -4,4 1.5,1.5 3.5,-3.5 v 9 l 6.5,-6.5 -4.5,-4.5 4.5,-4.5 z m 2,5 1.5,1.5 -1.5,1.5 z m 22,3 v 2.5 6.5 l -3.5,-3.5 -1.5,1.5 4,4 -4,4 1.5,1.5 3.5,-3.5 v 9 l 6.5,-6.5 -4.5,-4.5 4.5,-4.5 z m 2,5 1.5,1.5 -1.5,1.5 z m -24,1 1.5,1.5 -1.5,1.5 z m 9,4 v 2.5 6.5 l -3.5,-3.5 -1.5,1.5 4,4 -4,4 1.5,1.5 3.5,-3.5 v 9 l 6.5,-6.5 -4.5,-4.5 4.5,-4.5 z m 15,4 1.5,1.5 -1.5,1.5 z m -13,1 1.5,1.5 -1.5,1.5 z m 0,9 1.5,1.5 -1.5,1.5 z" fill="#808080" opacity="0.8"/>
  <path d="M 11.75,4 V 6.5 13 l -3.5,-3.5 -1.5,1.5 4,4 -4,4 1.5,1.5 3.5,-3.5 v 9 l 6.5,-6.5 -4.5,-4.5 4.5,-4.5 z m 2,5 1.5,1.5 -1.5,1.5 z m 22,3 v 2.5 6.5 l -3.5,-3.5 -1.5,1.5 4,4 -4,4 1.5,1.5 3.5,-3.5 v 9 l 6.5,-6.5 -4.5,-4.5 4.5,-4.5 z m 2,5 1.5,1.5 -1.5,1.5 z m -24,1 1.5,1.5 -1.5,1.5 z m 9,4 v 2.5 6.5 l -3.5,-3.5 -1.5,1.5 4,4 -4,4 1.5,1.5 3.5,-3.5 v 9 l 6.5,-6.5 -4.5,-4.5 4.5,-4.5 z m 15,4 1.5,1.5 -1.5,1.5 z m -13,1 1.5,1.5 -1.5,1.5 z m 0,9 1.5,1.5 -1.5,1.5 z" fill="#ffffff"/>

</svg>
