<?xml version="1.0" encoding="UTF-8"?>
<svg xmlns="http://www.w3.org/2000/svg" version="1.1" baseProfile="tiny" viewBox="0 0 48 48">

  <path d="M 15.365234,8.615234 9.6972656,11.361328 C 9.3766297,15.90756 11.426512,22.192756 15.585938,28.107422 19.69995,33.95751 24.820005,37.997383 29.148438,39.25 l 4.572265,-4.421875 -4.835937,-5.162109 -1.958985,3.357422 c -2.290528,-1.692974 -4.890466,-4.433791 -7.261719,-7.810547 -2.380406,-3.389794 -4.0904,-6.779114 -4.917968,-9.527344 l 3.814453,-0.763672 z m 17.027344,3.027344 -7.373047,5.16211 -1.146484,-1.638672 -0.738281,4.177734 4.179687,0.738281 -1.148437,-1.638672 7.373046,-5.162109 z m 2.292969,3.275391 1.148437,1.638672 -7.373046,5.162109 1.146484,1.638672 7.373047,-5.16211 1.146484,1.638672 0.738281,-4.177734 z" stroke="#404040" stroke-width="2" opacity="0.4"/>
  <path d="M 15.365234,9.615234 9.6972656,12.361328 C 9.3766297,16.90756 11.426512,23.192756 15.585938,29.107422 19.69995,34.95751 24.820005,38.997383 29.148438,40.25 l 4.572265,-4.421875 -4.835937,-5.162109 -1.958985,3.357422 c -2.290528,-1.692974 -4.890466,-4.433791 -7.261719,-7.810547 -2.380406,-3.389794 -4.0904,-6.779114 -4.917968,-9.527344 l 3.814453,-0.763672 z m 17.027344,3.027344 -7.373047,5.16211 -1.146484,-1.638672 -0.738281,4.177734 4.179687,0.738281 -1.148437,-1.638672 7.373046,-5.162109 z m 2.292969,3.275391 1.148437,1.638672 -7.373046,5.162109 1.146484,1.638672 7.373047,-5.16211 1.146484,1.638672 0.738281,-4.177734 z" fill="#808080" opacity="0.8"/>
  <path d="M 15.365234,8.615234 9.6972656,11.361328 C 9.3766297,15.90756 11.426512,22.192756 15.585938,28.107422 19.69995,33.95751 24.820005,37.997383 29.148438,39.25 l 4.572265,-4.421875 -4.835937,-5.162109 -1.958985,3.357422 c -2.290528,-1.692974 -4.890466,-4.433791 -7.261719,-7.810547 -2.380406,-3.389794 -4.0904,-6.779114 -4.917968,-9.527344 l 3.814453,-0.763672 z m 17.027344,3.027344 -7.373047,5.16211 -1.146484,-1.638672 -0.738281,4.177734 4.179687,0.738281 -1.148437,-1.638672 7.373046,-5.162109 z m 2.292969,3.275391 1.148437,1.638672 -7.373046,5.162109 1.146484,1.638672 7.373047,-5.16211 1.146484,1.638672 0.738281,-4.177734 z" fill="#ffffff"/>

</svg>
