<?xml version="1.0" encoding="UTF-8"?>
<svg xmlns="http://www.w3.org/2000/svg" version="1.1" baseProfile="tiny" viewBox="0 0 48 48">

  <path d="m 10,10 c -2.77,0 -5,2.23 -5,5 l 0,18 c 0,2.77 2.23,5 5,5 l 28,0 c 2.77,0 5,-2.23 5,-5 l 0,-18 c 0,-2.77 -2.23,-5 -5,-5 l -28,0 z m 1,3 26,0 c 1.662,0 3,1.338 3,3 l 0,16 c 0,1.662 -1.338,3 -3,3 L 11,35 C 9.338,35 8,33.662 8,32 L 8,16 c 0,-1.662 1.338,-3 3,-3 z m 0,2 -1,1 4,4 -4,4 1,1 5,-5 -5,-5 z m 6,9 0,1 6,0 0,-1 -6,0 z" stroke="#404040" stroke-width="2" opacity="0.4"/>
  <path d="m 10,11 c -2.77,0 -5,2.23 -5,5 l 0,18 c 0,2.77 2.23,5 5,5 l 28,0 c 2.77,0 5,-2.23 5,-5 l 0,-18 c 0,-2.77 -2.23,-5 -5,-5 l -28,0 z m 1,3 26,0 c 1.662,0 3,1.338 3,3 l 0,16 c 0,1.662 -1.338,3 -3,3 L 11,36 C 9.338,36 8,34.662 8,33 L 8,17 c 0,-1.662 1.338,-3 3,-3 z m 0,2 -1,1 4,4 -4,4 1,1 5,-5 -5,-5 z m 6,9 0,1 6,0 0,-1 -6,0 z" fill="#808080" opacity="0.8"/>
  <path d="m 10,10 c -2.77,0 -5,2.23 -5,5 l 0,18 c 0,2.77 2.23,5 5,5 l 28,0 c 2.77,0 5,-2.23 5,-5 l 0,-18 c 0,-2.77 -2.23,-5 -5,-5 l -28,0 z m 1,3 26,0 c 1.662,0 3,1.338 3,3 l 0,16 c 0,1.662 -1.338,3 -3,3 L 11,35 C 9.338,35 8,33.662 8,32 L 8,16 c 0,-1.662 1.338,-3 3,-3 z m 0,2 -1,1 4,4 -4,4 1,1 5,-5 -5,-5 z m 6,9 0,1 6,0 0,-1 -6,0 z" fill="#ffffff"/>

</svg>
