<?xml version="1.0" encoding="UTF-8"?>
<svg xmlns="http://www.w3.org/2000/svg" version="1.1" baseProfile="tiny" viewBox="0 0 48 48">

  <path d="m 7,4 0,11 15,13 0,13 c 0,0 0,2 2,2 2,0 2,-2 2,-2 L 26,28 41,15 41,4 z M 22,23 11,13 11,8 22,8 z M 37,13 26,23 26,8 37,8 z" stroke="#404040" stroke-width="2" opacity="0.4"/>
  <path d="m 7,5 0,11 15,13 0,13 c 0,0 0,2 2,2 2,0 2,-2 2,-2 L 26,29 41,16 41,5 z M 22,24 11,14 11,9 22,9 z M 37,14 26,24 26,9 37,9 z" fill="#808080" opacity="0.8"/>
  <path d="m 7,4 0,11 15,13 0,13 c 0,0 0,2 2,2 2,0 2,-2 2,-2 L 26,28 41,15 41,4 z M 22,23 11,13 11,8 22,8 z M 37,13 26,23 26,8 37,8 z" fill="#ffffff"/>

</svg>
