<?xml version="1.0" encoding="UTF-8"?>
<svg xmlns="http://www.w3.org/2000/svg" version="1.1" baseProfile="tiny" viewBox="0 0 48 48">

  <path d="m 8.34375,5.34375 c -0.2559224,1e-7 -0.5117692,0.097707 -0.7070312,0.2929688 -0.04882,0.04882 -0.096201,0.098848 -0.1328126,0.1542968 -3.323529,3.475544 -3.323529,8.9424244 0,12.4179684 0.03661,0.05545 0.084001,0.105481 0.1328126,0.154297 0.3905239,0.390524 1.0235385,0.390524 1.4140624,0 0.390524,-0.390524 0.390524,-1.023538 0,-1.414062 -2.73367,-2.73367 -2.73367,-7.1647677 0,-9.8984378 0.390524,-0.390524 0.390524,-1.0235385 0,-1.4140624 C 8.8555187,5.4414562 8.5996724,5.3437499 8.34375,5.34375 Z m 11.3125,0 c -0.255922,-1e-7 -0.511769,0.097706 -0.707031,0.2929688 -0.390525,0.390524 -0.390524,1.0235384 0,1.4140624 2.73367,2.7336701 2.73367,7.1647678 0,9.8984378 -0.390524,0.390524 -0.390524,1.023538 0,1.414062 0.390524,0.390524 1.023538,0.390524 1.414062,0 0.04882,-0.04882 0.0962,-0.09885 0.132813,-0.154297 3.323528,-3.475544 3.323528,-8.9424244 0,-12.4179684 -0.03661,-0.05545 -0.084,-0.1054818 -0.132813,-0.1542968 C 20.168019,5.4414568 19.912172,5.3437501 19.65625,5.34375 Z m -8.484375,2.828125 c -0.255923,0 -0.511769,0.097707 -0.707031,0.2929688 -0.04882,0.04881 -0.0962,0.098848 -0.132813,0.1542968 -1.7648727,1.9118274 -1.7648728,4.8498924 0,6.7617184 0.03661,0.05545 0.084,0.105481 0.132813,0.154297 0.390524,0.390524 1.023538,0.390524 1.414062,0 0.390524,-0.390524 0.390524,-1.023538 0,-1.414062 -1.171573,-1.171573 -1.171573,-3.070615 0,-4.2421878 0.390524,-0.3905239 0.390524,-1.0235385 0,-1.4140624 C 11.683644,8.2695818 11.427798,8.171875 11.171875,8.171875 Z m 5.65625,0 c -0.255922,0 -0.511769,0.097707 -0.707031,0.2929688 -0.390525,0.3905239 -0.390525,1.0235384 0,1.4140624 1.171572,1.1715728 1.171572,3.0706148 0,4.2421878 -0.390525,0.390524 -0.390525,1.023538 0,1.414062 0.390524,0.390524 1.023538,0.390524 1.414062,0 0.04882,-0.04881 0.0962,-0.09885 0.132813,-0.154297 1.764872,-1.911826 1.764872,-4.849891 0,-6.7617184 -0.03661,-0.05545 -0.084,-0.1054819 -0.132813,-0.1542968 C 17.339894,8.2695818 17.084047,8.171875 16.828125,8.171875 Z M 14,11 c -0.255922,0 -0.511769,0.09771 -0.707031,0.292969 -0.390524,0.390524 -0.390524,1.023537 0,1.414062 0.390525,0.390524 1.023538,0.390524 1.414062,0 0.390524,-0.390525 0.390524,-1.023538 0,-1.414062 C 14.511769,11.097707 14.255922,11 14,11 Z m 15.34375,4.34375 c -0.255922,0 -0.511769,0.09771 -0.707031,0.292969 -0.04882,0.04882 -0.0962,0.09885 -0.132813,0.154297 -3.323529,3.475544 -3.323529,8.942424 0,12.417968 0.03661,0.05545 0.084,0.105481 0.132813,0.154297 0.390524,0.390524 1.023538,0.390524 1.414062,0 0.390524,-0.390524 0.390524,-1.023538 0,-1.414062 -2.73367,-2.73367 -2.73367,-7.164768 0,-9.898438 0.390524,-0.390524 0.390524,-1.023538 0,-1.414062 C 29.855519,15.441456 29.599672,15.34375 29.34375,15.34375 Z m 11.3125,0 c -0.255922,0 -0.511769,0.09771 -0.707031,0.292969 -0.390525,0.390524 -0.390524,1.023538 0,1.414062 2.73367,2.73367 2.73367,7.164768 0,9.898438 -0.390524,0.390524 -0.390524,1.023538 0,1.414062 0.390524,0.390524 1.023538,0.390524 1.414062,0 0.04882,-0.04882 0.0962,-0.09885 0.132813,-0.154297 3.323528,-3.475544 3.323528,-8.942424 0,-12.417968 -0.03661,-0.05545 -0.084,-0.105482 -0.132813,-0.154297 C 41.168019,15.441457 40.912172,15.34375 40.65625,15.34375 Z m -8.484375,2.828125 c -0.255923,0 -0.511769,0.09771 -0.707031,0.292969 -0.04882,0.04881 -0.0962,0.09885 -0.132813,0.154297 -1.764873,1.911827 -1.764873,4.849892 0,6.761718 0.03661,0.05545 0.084,0.105481 0.132813,0.154297 0.390524,0.390524 1.023538,0.390524 1.414062,0 0.390524,-0.390524 0.390524,-1.023538 0,-1.414062 -1.171573,-1.171573 -1.171573,-3.070615 0,-4.242188 0.390524,-0.390524 0.390524,-1.023538 0,-1.414062 -0.195262,-0.195262 -0.451109,-0.292969 -0.707031,-0.292969 z m 5.65625,0 c -0.255922,0 -0.511769,0.09771 -0.707031,0.292969 -0.390525,0.390524 -0.390525,1.023538 0,1.414062 1.171572,1.171573 1.171572,3.070615 0,4.242188 -0.390525,0.390524 -0.390525,1.023538 0,1.414062 0.390524,0.390524 1.023538,0.390524 1.414062,0 0.04882,-0.04881 0.0962,-0.09885 0.132813,-0.154297 1.764872,-1.911826 1.764872,-4.849891 0,-6.761718 -0.03661,-0.05545 -0.084,-0.105482 -0.132813,-0.154297 -0.195262,-0.195262 -0.451109,-0.292969 -0.707031,-0.292969 z M 35,21 c -0.255922,0 -0.511769,0.09771 -0.707031,0.292969 -0.390524,0.390524 -0.390524,1.023537 0,1.414062 0.390525,0.390524 1.023538,0.390524 1.414062,0 0.390524,-0.390525 0.390524,-1.023538 0,-1.414062 C 35.511769,21.097707 35.255922,21 35,21 Z m -15.65625,9.34375 c -0.255922,0 -0.511769,0.09771 -0.707031,0.292969 -0.04882,0.04882 -0.0962,0.09885 -0.132813,0.154297 -3.323529,3.475544 -3.323529,8.942424 0,12.417968 0.03661,0.05545 0.084,0.105481 0.132813,0.154297 0.390524,0.390524 1.023538,0.390524 1.414062,0 0.390524,-0.390524 0.390524,-1.023538 0,-1.414062 -2.73367,-2.73367 -2.73367,-7.164768 0,-9.898438 0.390524,-0.390524 0.390524,-1.023538 0,-1.414062 C 19.855519,30.441456 19.599672,30.34375 19.34375,30.34375 Z m 11.3125,0 c -0.255922,0 -0.511769,0.09771 -0.707031,0.292969 -0.390525,0.390524 -0.390524,1.023538 0,1.414062 2.73367,2.73367 2.73367,7.164768 0,9.898438 -0.390524,0.390524 -0.390524,1.023538 0,1.414062 0.390524,0.390524 1.023538,0.390524 1.414062,0 0.04882,-0.04882 0.0962,-0.09885 0.132813,-0.154297 3.323528,-3.475544 3.323528,-8.942424 0,-12.417968 -0.03661,-0.05545 -0.084,-0.105482 -0.132813,-0.154297 C 31.168019,30.441457 30.912172,30.34375 30.65625,30.34375 Z m -8.484375,2.828125 c -0.255923,0 -0.511769,0.09771 -0.707031,0.292969 -0.04882,0.04881 -0.0962,0.09885 -0.132813,0.154297 -1.764873,1.911827 -1.764873,4.849892 0,6.761718 0.03661,0.05545 0.084,0.105481 0.132813,0.154297 0.390524,0.390524 1.023538,0.390524 1.414062,0 0.390524,-0.390524 0.390524,-1.023538 0,-1.414062 -1.171573,-1.171573 -1.171573,-3.070615 0,-4.242188 0.390524,-0.390524 0.390524,-1.023538 0,-1.414062 -0.195262,-0.195262 -0.451108,-0.292969 -0.707031,-0.292969 z m 5.65625,0 c -0.255922,0 -0.511769,0.09771 -0.707031,0.292969 -0.390525,0.390524 -0.390525,1.023538 0,1.414062 1.171572,1.171573 1.171572,3.070615 0,4.242188 -0.390525,0.390524 -0.390525,1.023538 0,1.414062 0.390524,0.390524 1.023538,0.390524 1.414062,0 0.04882,-0.04881 0.0962,-0.09885 0.132813,-0.154297 1.764872,-1.911826 1.764872,-4.849891 0,-6.761718 -0.03661,-0.05545 -0.084,-0.105482 -0.132813,-0.154297 -0.195262,-0.195262 -0.451109,-0.292969 -0.707031,-0.292969 z M 25,36 c -0.255922,0 -0.511769,0.09771 -0.707031,0.292969 -0.390524,0.390524 -0.390524,1.023537 0,1.414062 0.390525,0.390524 1.023538,0.390524 1.414062,0 0.390524,-0.390525 0.390524,-1.023538 0,-1.414062 C 25.511769,36.097707 25.255922,36 25,36 Z" stroke="#404040" stroke-width="2" opacity="0.4"/>
  <path d="m 8.34375,6.34375 c -0.2559224,1e-7 -0.5117692,0.097707 -0.7070312,0.2929688 -0.04882,0.04882 -0.096201,0.098848 -0.1328126,0.1542968 -3.323529,3.4755444 -3.323529,8.9424244 0,12.4179684 0.03661,0.05545 0.084001,0.105481 0.1328126,0.154297 0.3905239,0.390524 1.0235385,0.390524 1.4140624,0 0.390524,-0.390524 0.390524,-1.023538 0,-1.414062 -2.73367,-2.73367 -2.73367,-7.164768 0,-9.8984378 0.390524,-0.390524 0.390524,-1.0235385 0,-1.4140624 C 8.8555187,6.4414562 8.5996724,6.3437499 8.34375,6.34375 Z m 11.3125,0 c -0.255922,-1e-7 -0.511769,0.097706 -0.707031,0.2929688 -0.390525,0.390524 -0.390524,1.0235384 0,1.4140624 2.73367,2.7336698 2.73367,7.1647678 0,9.8984378 -0.390524,0.390524 -0.390524,1.023538 0,1.414062 0.390524,0.390524 1.023538,0.390524 1.414062,0 0.04882,-0.04882 0.0962,-0.09885 0.132813,-0.154297 3.323528,-3.475544 3.323528,-8.942424 0,-12.4179684 -0.03661,-0.05545 -0.084,-0.1054818 -0.132813,-0.1542968 C 20.168019,6.4414568 19.912172,6.3437501 19.65625,6.34375 Z m -8.484375,2.828125 c -0.255923,0 -0.511769,0.097707 -0.707031,0.2929688 -0.04882,0.04881 -0.0962,0.098848 -0.132813,0.1542968 -1.7648727,1.9118274 -1.7648728,4.8498924 0,6.7617184 0.03661,0.05545 0.084,0.105481 0.132813,0.154297 0.390524,0.390524 1.023538,0.390524 1.414062,0 0.390524,-0.390524 0.390524,-1.023538 0,-1.414062 -1.171573,-1.171573 -1.171573,-3.070615 0,-4.242188 0.390524,-0.390524 0.390524,-1.0235383 0,-1.4140622 C 11.683644,9.2695818 11.427798,9.171875 11.171875,9.171875 Z m 5.65625,0 c -0.255922,0 -0.511769,0.097707 -0.707031,0.2929688 -0.390525,0.3905239 -0.390525,1.0235382 0,1.4140622 1.171572,1.171573 1.171572,3.070615 0,4.242188 -0.390525,0.390524 -0.390525,1.023538 0,1.414062 0.390524,0.390524 1.023538,0.390524 1.414062,0 0.04882,-0.04881 0.0962,-0.09885 0.132813,-0.154297 1.764872,-1.911826 1.764872,-4.849891 0,-6.7617184 -0.03661,-0.05545 -0.084,-0.1054819 -0.132813,-0.1542968 C 17.339894,9.2695818 17.084047,9.171875 16.828125,9.171875 Z M 14,12 c -0.255922,0 -0.511769,0.09771 -0.707031,0.292969 -0.390524,0.390524 -0.390524,1.023537 0,1.414062 0.390525,0.390524 1.023538,0.390524 1.414062,0 0.390524,-0.390525 0.390524,-1.023538 0,-1.414062 C 14.511769,12.097707 14.255922,12 14,12 Z m 15.34375,4.34375 c -0.255922,0 -0.511769,0.09771 -0.707031,0.292969 -0.04882,0.04882 -0.0962,0.09885 -0.132813,0.154297 -3.323529,3.475544 -3.323529,8.942424 0,12.417968 0.03661,0.05545 0.084,0.105481 0.132813,0.154297 0.390524,0.390524 1.023538,0.390524 1.414062,0 0.390524,-0.390524 0.390524,-1.023538 0,-1.414062 -2.73367,-2.73367 -2.73367,-7.164768 0,-9.898438 0.390524,-0.390524 0.390524,-1.023538 0,-1.414062 C 29.855519,16.441456 29.599672,16.34375 29.34375,16.34375 Z m 11.3125,0 c -0.255922,0 -0.511769,0.09771 -0.707031,0.292969 -0.390525,0.390524 -0.390524,1.023538 0,1.414062 2.73367,2.73367 2.73367,7.164768 0,9.898438 -0.390524,0.390524 -0.390524,1.023538 0,1.414062 0.390524,0.390524 1.023538,0.390524 1.414062,0 0.04882,-0.04882 0.0962,-0.09885 0.132813,-0.154297 3.323528,-3.475544 3.323528,-8.942424 0,-12.417968 -0.03661,-0.05545 -0.084,-0.105482 -0.132813,-0.154297 C 41.168019,16.441457 40.912172,16.34375 40.65625,16.34375 Z m -8.484375,2.828125 c -0.255923,0 -0.511769,0.09771 -0.707031,0.292969 -0.04882,0.04881 -0.0962,0.09885 -0.132813,0.154297 -1.764873,1.911827 -1.764873,4.849892 0,6.761718 0.03661,0.05545 0.084,0.105481 0.132813,0.154297 0.390524,0.390524 1.023538,0.390524 1.414062,0 0.390524,-0.390524 0.390524,-1.023538 0,-1.414062 -1.171573,-1.171573 -1.171573,-3.070615 0,-4.242188 0.390524,-0.390524 0.390524,-1.023538 0,-1.414062 -0.195262,-0.195262 -0.451109,-0.292969 -0.707031,-0.292969 z m 5.65625,0 c -0.255922,0 -0.511769,0.09771 -0.707031,0.292969 -0.390525,0.390524 -0.390525,1.023538 0,1.414062 1.171572,1.171573 1.171572,3.070615 0,4.242188 -0.390525,0.390524 -0.390525,1.023538 0,1.414062 0.390524,0.390524 1.023538,0.390524 1.414062,0 0.04882,-0.04881 0.0962,-0.09885 0.132813,-0.154297 1.764872,-1.911826 1.764872,-4.849891 0,-6.761718 -0.03661,-0.05545 -0.084,-0.105482 -0.132813,-0.154297 -0.195262,-0.195262 -0.451109,-0.292969 -0.707031,-0.292969 z M 35,22 c -0.255922,0 -0.511769,0.09771 -0.707031,0.292969 -0.390524,0.390524 -0.390524,1.023537 0,1.414062 0.390525,0.390524 1.023538,0.390524 1.414062,0 0.390524,-0.390525 0.390524,-1.023538 0,-1.414062 C 35.511769,22.097707 35.255922,22 35,22 Z m -15.65625,9.34375 c -0.255922,0 -0.511769,0.09771 -0.707031,0.292969 -0.04882,0.04882 -0.0962,0.09885 -0.132813,0.154297 -3.323529,3.475544 -3.323529,8.942424 0,12.417968 0.03661,0.05545 0.084,0.105481 0.132813,0.154297 0.390524,0.390524 1.023538,0.390524 1.414062,0 0.390524,-0.390524 0.390524,-1.023538 0,-1.414062 -2.73367,-2.73367 -2.73367,-7.164768 0,-9.898438 0.390524,-0.390524 0.390524,-1.023538 0,-1.414062 C 19.855519,31.441456 19.599672,31.34375 19.34375,31.34375 Z m 11.3125,0 c -0.255922,0 -0.511769,0.09771 -0.707031,0.292969 -0.390525,0.390524 -0.390524,1.023538 0,1.414062 2.73367,2.73367 2.73367,7.164768 0,9.898438 -0.390524,0.390524 -0.390524,1.023538 0,1.414062 0.390524,0.390524 1.023538,0.390524 1.414062,0 0.04882,-0.04882 0.0962,-0.09885 0.132813,-0.154297 3.323528,-3.475544 3.323528,-8.942424 0,-12.417968 -0.03661,-0.05545 -0.084,-0.105482 -0.132813,-0.154297 C 31.168019,31.441457 30.912172,31.34375 30.65625,31.34375 Z m -8.484375,2.828125 c -0.255923,0 -0.511769,0.09771 -0.707031,0.292969 -0.04882,0.04881 -0.0962,0.09885 -0.132813,0.154297 -1.764873,1.911827 -1.764873,4.849892 0,6.761718 0.03661,0.05545 0.084,0.105481 0.132813,0.154297 0.390524,0.390524 1.023538,0.390524 1.414062,0 0.390524,-0.390524 0.390524,-1.023538 0,-1.414062 -1.171573,-1.171573 -1.171573,-3.070615 0,-4.242188 0.390524,-0.390524 0.390524,-1.023538 0,-1.414062 -0.195262,-0.195262 -0.451108,-0.292969 -0.707031,-0.292969 z m 5.65625,0 c -0.255922,0 -0.511769,0.09771 -0.707031,0.292969 -0.390525,0.390524 -0.390525,1.023538 0,1.414062 1.171572,1.171573 1.171572,3.070615 0,4.242188 -0.390525,0.390524 -0.390525,1.023538 0,1.414062 0.390524,0.390524 1.023538,0.390524 1.414062,0 0.04882,-0.04881 0.0962,-0.09885 0.132813,-0.154297 1.764872,-1.911826 1.764872,-4.849891 0,-6.761718 -0.03661,-0.05545 -0.084,-0.105482 -0.132813,-0.154297 -0.195262,-0.195262 -0.451109,-0.292969 -0.707031,-0.292969 z M 25,37 c -0.255922,0 -0.511769,0.09771 -0.707031,0.292969 -0.390524,0.390524 -0.390524,1.023537 0,1.414062 0.390525,0.390524 1.023538,0.390524 1.414062,0 0.390524,-0.390525 0.390524,-1.023538 0,-1.414062 C 25.511769,37.097707 25.255922,37 25,37 Z" fill="#808080" opacity="0.8"/>
  <path d="m 8.34375,5.34375 c -0.2559224,1e-7 -0.5117692,0.097707 -0.7070312,0.2929688 -0.04882,0.04882 -0.096201,0.098848 -0.1328126,0.1542968 -3.323529,3.475544 -3.323529,8.9424244 0,12.4179684 0.03661,0.05545 0.084001,0.105481 0.1328126,0.154297 0.3905239,0.390524 1.0235385,0.390524 1.4140624,0 0.390524,-0.390524 0.390524,-1.023538 0,-1.414062 -2.73367,-2.73367 -2.73367,-7.1647677 0,-9.8984378 0.390524,-0.390524 0.390524,-1.0235385 0,-1.4140624 C 8.8555187,5.4414562 8.5996724,5.3437499 8.34375,5.34375 Z m 11.3125,0 c -0.255922,-1e-7 -0.511769,0.097706 -0.707031,0.2929688 -0.390525,0.390524 -0.390524,1.0235384 0,1.4140624 2.73367,2.7336701 2.73367,7.1647678 0,9.8984378 -0.390524,0.390524 -0.390524,1.023538 0,1.414062 0.390524,0.390524 1.023538,0.390524 1.414062,0 0.04882,-0.04882 0.0962,-0.09885 0.132813,-0.154297 3.323528,-3.475544 3.323528,-8.9424244 0,-12.4179684 -0.03661,-0.05545 -0.084,-0.1054818 -0.132813,-0.1542968 C 20.168019,5.4414568 19.912172,5.3437501 19.65625,5.34375 Z m -8.484375,2.828125 c -0.255923,0 -0.511769,0.097707 -0.707031,0.2929688 -0.04882,0.04881 -0.0962,0.098848 -0.132813,0.1542968 -1.7648727,1.9118274 -1.7648728,4.8498924 0,6.7617184 0.03661,0.05545 0.084,0.105481 0.132813,0.154297 0.390524,0.390524 1.023538,0.390524 1.414062,0 0.390524,-0.390524 0.390524,-1.023538 0,-1.414062 -1.171573,-1.171573 -1.171573,-3.070615 0,-4.2421878 0.390524,-0.3905239 0.390524,-1.0235385 0,-1.4140624 C 11.683644,8.2695818 11.427798,8.171875 11.171875,8.171875 Z m 5.65625,0 c -0.255922,0 -0.511769,0.097707 -0.707031,0.2929688 -0.390525,0.3905239 -0.390525,1.0235384 0,1.4140624 1.171572,1.1715728 1.171572,3.0706148 0,4.2421878 -0.390525,0.390524 -0.390525,1.023538 0,1.414062 0.390524,0.390524 1.023538,0.390524 1.414062,0 0.04882,-0.04881 0.0962,-0.09885 0.132813,-0.154297 1.764872,-1.911826 1.764872,-4.849891 0,-6.7617184 -0.03661,-0.05545 -0.084,-0.1054819 -0.132813,-0.1542968 C 17.339894,8.2695818 17.084047,8.171875 16.828125,8.171875 Z M 14,11 c -0.255922,0 -0.511769,0.09771 -0.707031,0.292969 -0.390524,0.390524 -0.390524,1.023537 0,1.414062 0.390525,0.390524 1.023538,0.390524 1.414062,0 0.390524,-0.390525 0.390524,-1.023538 0,-1.414062 C 14.511769,11.097707 14.255922,11 14,11 Z m 15.34375,4.34375 c -0.255922,0 -0.511769,0.09771 -0.707031,0.292969 -0.04882,0.04882 -0.0962,0.09885 -0.132813,0.154297 -3.323529,3.475544 -3.323529,8.942424 0,12.417968 0.03661,0.05545 0.084,0.105481 0.132813,0.154297 0.390524,0.390524 1.023538,0.390524 1.414062,0 0.390524,-0.390524 0.390524,-1.023538 0,-1.414062 -2.73367,-2.73367 -2.73367,-7.164768 0,-9.898438 0.390524,-0.390524 0.390524,-1.023538 0,-1.414062 C 29.855519,15.441456 29.599672,15.34375 29.34375,15.34375 Z m 11.3125,0 c -0.255922,0 -0.511769,0.09771 -0.707031,0.292969 -0.390525,0.390524 -0.390524,1.023538 0,1.414062 2.73367,2.73367 2.73367,7.164768 0,9.898438 -0.390524,0.390524 -0.390524,1.023538 0,1.414062 0.390524,0.390524 1.023538,0.390524 1.414062,0 0.04882,-0.04882 0.0962,-0.09885 0.132813,-0.154297 3.323528,-3.475544 3.323528,-8.942424 0,-12.417968 -0.03661,-0.05545 -0.084,-0.105482 -0.132813,-0.154297 C 41.168019,15.441457 40.912172,15.34375 40.65625,15.34375 Z m -8.484375,2.828125 c -0.255923,0 -0.511769,0.09771 -0.707031,0.292969 -0.04882,0.04881 -0.0962,0.09885 -0.132813,0.154297 -1.764873,1.911827 -1.764873,4.849892 0,6.761718 0.03661,0.05545 0.084,0.105481 0.132813,0.154297 0.390524,0.390524 1.023538,0.390524 1.414062,0 0.390524,-0.390524 0.390524,-1.023538 0,-1.414062 -1.171573,-1.171573 -1.171573,-3.070615 0,-4.242188 0.390524,-0.390524 0.390524,-1.023538 0,-1.414062 -0.195262,-0.195262 -0.451109,-0.292969 -0.707031,-0.292969 z m 5.65625,0 c -0.255922,0 -0.511769,0.09771 -0.707031,0.292969 -0.390525,0.390524 -0.390525,1.023538 0,1.414062 1.171572,1.171573 1.171572,3.070615 0,4.242188 -0.390525,0.390524 -0.390525,1.023538 0,1.414062 0.390524,0.390524 1.023538,0.390524 1.414062,0 0.04882,-0.04881 0.0962,-0.09885 0.132813,-0.154297 1.764872,-1.911826 1.764872,-4.849891 0,-6.761718 -0.03661,-0.05545 -0.084,-0.105482 -0.132813,-0.154297 -0.195262,-0.195262 -0.451109,-0.292969 -0.707031,-0.292969 z M 35,21 c -0.255922,0 -0.511769,0.09771 -0.707031,0.292969 -0.390524,0.390524 -0.390524,1.023537 0,1.414062 0.390525,0.390524 1.023538,0.390524 1.414062,0 0.390524,-0.390525 0.390524,-1.023538 0,-1.414062 C 35.511769,21.097707 35.255922,21 35,21 Z m -15.65625,9.34375 c -0.255922,0 -0.511769,0.09771 -0.707031,0.292969 -0.04882,0.04882 -0.0962,0.09885 -0.132813,0.154297 -3.323529,3.475544 -3.323529,8.942424 0,12.417968 0.03661,0.05545 0.084,0.105481 0.132813,0.154297 0.390524,0.390524 1.023538,0.390524 1.414062,0 0.390524,-0.390524 0.390524,-1.023538 0,-1.414062 -2.73367,-2.73367 -2.73367,-7.164768 0,-9.898438 0.390524,-0.390524 0.390524,-1.023538 0,-1.414062 C 19.855519,30.441456 19.599672,30.34375 19.34375,30.34375 Z m 11.3125,0 c -0.255922,0 -0.511769,0.09771 -0.707031,0.292969 -0.390525,0.390524 -0.390524,1.023538 0,1.414062 2.73367,2.73367 2.73367,7.164768 0,9.898438 -0.390524,0.390524 -0.390524,1.023538 0,1.414062 0.390524,0.390524 1.023538,0.390524 1.414062,0 0.04882,-0.04882 0.0962,-0.09885 0.132813,-0.154297 3.323528,-3.475544 3.323528,-8.942424 0,-12.417968 -0.03661,-0.05545 -0.084,-0.105482 -0.132813,-0.154297 C 31.168019,30.441457 30.912172,30.34375 30.65625,30.34375 Z m -8.484375,2.828125 c -0.255923,0 -0.511769,0.09771 -0.707031,0.292969 -0.04882,0.04881 -0.0962,0.09885 -0.132813,0.154297 -1.764873,1.911827 -1.764873,4.849892 0,6.761718 0.03661,0.05545 0.084,0.105481 0.132813,0.154297 0.390524,0.390524 1.023538,0.390524 1.414062,0 0.390524,-0.390524 0.390524,-1.023538 0,-1.414062 -1.171573,-1.171573 -1.171573,-3.070615 0,-4.242188 0.390524,-0.390524 0.390524,-1.023538 0,-1.414062 -0.195262,-0.195262 -0.451108,-0.292969 -0.707031,-0.292969 z m 5.65625,0 c -0.255922,0 -0.511769,0.09771 -0.707031,0.292969 -0.390525,0.390524 -0.390525,1.023538 0,1.414062 1.171572,1.171573 1.171572,3.070615 0,4.242188 -0.390525,0.390524 -0.390525,1.023538 0,1.414062 0.390524,0.390524 1.023538,0.390524 1.414062,0 0.04882,-0.04881 0.0962,-0.09885 0.132813,-0.154297 1.764872,-1.911826 1.764872,-4.849891 0,-6.761718 -0.03661,-0.05545 -0.084,-0.105482 -0.132813,-0.154297 -0.195262,-0.195262 -0.451109,-0.292969 -0.707031,-0.292969 z M 25,36 c -0.255922,0 -0.511769,0.09771 -0.707031,0.292969 -0.390524,0.390524 -0.390524,1.023537 0,1.414062 0.390525,0.390524 1.023538,0.390524 1.414062,0 0.390524,-0.390525 0.390524,-1.023538 0,-1.414062 C 25.511769,36.097707 25.255922,36 25,36 Z" fill="#ffffff"/>

</svg>
