<?xml version="1.0" encoding="UTF-8"?>
<svg xmlns="http://www.w3.org/2000/svg" version="1.1" baseProfile="tiny" viewBox="0 0 48 48">

  <path d="m 14,4 c -1.108,0 -2,0.892 -2,2 l 0,36 c 0,1.108 0.892,2 2,2 l 20,0 c 1.108,0 2,-0.892 2,-2 L 36,6 C 36,4.892 35.108,4 34,4 L 14,4 z m 0,4 20,0 0,32 -20,0 0,-32 z m 9.9375,8 c -1.742733,0.0055 -3.47211,0.614542 -4.84375,1.6875 l -1.46875,-1.46875 0,4.25 4.25,0 -1.34375,-1.34375 c 1.645339,-1.204721 3.909106,-1.461334 5.78125,-0.65625 1.35417,0.540378 2.448556,1.643453 3.09375,2.9375 1.001954,2.013597 0.692903,4.597937 -0.71875,6.34375 -1.205435,1.472284 -3.115971,2.389088 -5.03125,2.25 -2.228051,-0.124701 -4.340939,-1.569409 -5.1875,-3.65625 C 18.073304,25.642501 18.11749,24.612524 17.90625,24 L 16,24 c -0.02738,2.775382 1.516489,5.473177 3.90625,6.875 2.309582,1.387717 5.329838,1.506038 7.71875,0.25 2.876677,-1.424876 4.721088,-4.737257 4.3125,-7.9375 C 31.683977,20.100967 29.430187,17.353673 26.5,16.40625 25.673762,16.135003 24.807265,15.985443 23.9375,16 z" stroke="#404040" stroke-width="2" opacity="0.4"/>
  <path d="m 14,5 c -1.108,0 -2,0.892 -2,2 l 0,36 c 0,1.108 0.892,2 2,2 l 20,0 c 1.108,0 2,-0.892 2,-2 L 36,7 C 36,5.892 35.108,5 34,5 L 14,5 z m 0,4 20,0 0,32 -20,0 0,-32 z m 9.9375,8 c -1.742733,0.0055 -3.47211,0.614542 -4.84375,1.6875 l -1.46875,-1.46875 0,4.25 4.25,0 -1.34375,-1.34375 c 1.645339,-1.204721 3.909106,-1.461334 5.78125,-0.65625 1.35417,0.540378 2.448556,1.643453 3.09375,2.9375 1.001954,2.013597 0.692903,4.597937 -0.71875,6.34375 -1.205435,1.472284 -3.115971,2.389088 -5.03125,2.25 -2.228051,-0.124701 -4.340939,-1.569409 -5.1875,-3.65625 C 18.073304,26.642501 18.11749,25.612524 17.90625,25 L 16,25 c -0.02738,2.775382 1.516489,5.473177 3.90625,6.875 2.309582,1.387717 5.329838,1.506038 7.71875,0.25 2.876677,-1.424876 4.721088,-4.737257 4.3125,-7.9375 C 31.683977,21.100967 29.430187,18.353673 26.5,17.40625 25.673762,17.135003 24.807265,16.985443 23.9375,17 z" fill="#808080" opacity="0.8"/>
  <path d="m 14,4 c -1.108,0 -2,0.892 -2,2 l 0,36 c 0,1.108 0.892,2 2,2 l 20,0 c 1.108,0 2,-0.892 2,-2 L 36,6 C 36,4.892 35.108,4 34,4 L 14,4 z m 0,4 20,0 0,32 -20,0 0,-32 z m 9.9375,8 c -1.742733,0.0055 -3.47211,0.614542 -4.84375,1.6875 l -1.46875,-1.46875 0,4.25 4.25,0 -1.34375,-1.34375 c 1.645339,-1.204721 3.909106,-1.461334 5.78125,-0.65625 1.35417,0.540378 2.448556,1.643453 3.09375,2.9375 1.001954,2.013597 0.692903,4.597937 -0.71875,6.34375 -1.205435,1.472284 -3.115971,2.389088 -5.03125,2.25 -2.228051,-0.124701 -4.340939,-1.569409 -5.1875,-3.65625 C 18.073304,25.642501 18.11749,24.612524 17.90625,24 L 16,24 c -0.02738,2.775382 1.516489,5.473177 3.90625,6.875 2.309582,1.387717 5.329838,1.506038 7.71875,0.25 2.876677,-1.424876 4.721088,-4.737257 4.3125,-7.9375 C 31.683977,20.100967 29.430187,17.353673 26.5,16.40625 25.673762,16.135003 24.807265,15.985443 23.9375,16 z" fill="#ffffff"/>

</svg>
