<?xml version="1.0" encoding="UTF-8"?>
<svg xmlns="http://www.w3.org/2000/svg" version="1.1" baseProfile="tiny" viewBox="0 0 48 48">

  <path d="M 6,11 24,24 42.15625,11.03125 6,11 z M 4,13.71875 4,37 c 0,1.108 0.892,2 2,2 l 22.1875,0 -1.03125,-1 1.4375,-1.40625 7,-7 L 39,26.15625 39,31 39,33 44,33 44,13.71875 24,28 4,13.71875 z M 37,31 l -7,7 7,7 0,-4 9,0 0,-6 -9,0 0,-4 z" stroke="#404040" stroke-width="2" opacity="0.4"/>
  <path d="M 6,12 24,25 42.15625,12.03125 6,12 z M 4,14.71875 4,38 c 0,1.108 0.892,2 2,2 l 22.1875,0 -1.03125,-1 1.4375,-1.40625 7,-7 L 39,27.15625 39,32 39,34 44,34 44,14.71875 24,29 4,14.71875 z M 37,32 l -7,7 7,7 0,-4 9,0 0,-6 -9,0 0,-4 z" fill="#808080" opacity="0.8"/>
  <path d="M 6,11 24,24 42.15625,11.03125 6,11 z M 4,13.71875 4,37 c 0,1.108 0.892,2 2,2 l 22.1875,0 -1.03125,-1 1.4375,-1.40625 7,-7 L 39,26.15625 39,31 39,33 44,33 44,13.71875 24,28 4,13.71875 z M 37,31 l -7,7 7,7 0,-4 9,0 0,-6 -9,0 0,-4 z" fill="#ffffff"/>

</svg>
