<?xml version="1.0" encoding="UTF-8"?>
<svg xmlns="http://www.w3.org/2000/svg" version="1.1" baseProfile="tiny" viewBox="0 0 48 48">

  <path d="M 23.9375,8 C 15.122227,8.0358167 7.998503,15.192643 8,24 l 4,0 c 0.0073,-6.598364 5.331324,-11.973159 11.9375,-12 3.844301,-0.01562 7.264865,1.783239 9.46875,4.59375 L 30,20 l 5.28125,0 4.1875,0 L 40,20 40,10 36.25,13.75 C 33.30825,10.230037 28.884511,7.9799001 23.9375,8 z m 12.03125,15 c 0.02314,0.279587 0.02763,0.55897 0.03125,0.84375 l 0,0.09375 C 36.026927,30.564862 30.689862,35.973073 24.0625,36 19.961325,36.016663 16.329705,33.974426 14.15625,30.84375 L 18,27 8,27 8,37 11.3125,33.6875 C 14.24062,37.530116 18.856258,40.021153 24.0625,40 32.898983,39.964097 40.035903,32.773983 40,23.9375 l 0,-0.15625 C 39.996648,23.517641 39.984672,23.260317 39.96875,23 l -4,0 z" stroke="#404040" stroke-width="2" opacity="0.4"/>
  <path d="M 23.9375,9 C 15.122227,9.0358167 7.998503,16.192643 8,25 l 4,0 c 0.0073,-6.598364 5.331324,-11.973159 11.9375,-12 3.844301,-0.01562 7.264865,1.783239 9.46875,4.59375 L 30,21 l 5.28125,0 4.1875,0 L 40,21 40,11 36.25,14.75 C 33.30825,11.230037 28.884511,8.9799001 23.9375,9 z m 12.03125,15 c 0.02314,0.279587 0.02763,0.55897 0.03125,0.84375 l 0,0.09375 C 36.026927,31.564862 30.689862,36.973073 24.0625,37 19.961325,37.016663 16.329705,34.974426 14.15625,31.84375 L 18,28 8,28 8,38 11.3125,34.6875 C 14.24062,38.530116 18.856258,41.021153 24.0625,41 32.898983,40.964097 40.035903,33.773983 40,24.9375 l 0,-0.15625 C 39.996648,24.517641 39.984672,24.260317 39.96875,24 l -4,0 z" fill="#808080" opacity="0.8"/>
  <path d="M 23.9375,8 C 15.122227,8.0358167 7.998503,15.192643 8,24 l 4,0 c 0.0073,-6.598364 5.331324,-11.973159 11.9375,-12 3.844301,-0.01562 7.264865,1.783239 9.46875,4.59375 L 30,20 l 5.28125,0 4.1875,0 L 40,20 40,10 36.25,13.75 C 33.30825,10.230037 28.884511,7.9799001 23.9375,8 z m 12.03125,15 c 0.02314,0.279587 0.02763,0.55897 0.03125,0.84375 l 0,0.09375 C 36.026927,30.564862 30.689862,35.973073 24.0625,36 19.961325,36.016663 16.329705,33.974426 14.15625,30.84375 L 18,27 8,27 8,37 11.3125,33.6875 C 14.24062,37.530116 18.856258,40.021153 24.0625,40 32.898983,39.964097 40.035903,32.773983 40,23.9375 l 0,-0.15625 C 39.996648,23.517641 39.984672,23.260317 39.96875,23 l -4,0 z" fill="#ffffff"/>

</svg>
