<?xml version="1.0" encoding="UTF-8"?>
<svg xmlns="http://www.w3.org/2000/svg" version="1.1" baseProfile="tiny" viewBox="0 0 48 48">

  <path d="m 14,4 c -1.108,0 -2,0.892 -2,2 l 0,36 c 0,1.108 0.892,2 2,2 l 20,0 c 1.108,0 2,-0.892 2,-2 L 36,6 C 36,4.892 35.108,4 34,4 L 14,4 z m -8.9375,3.65625 -3,8 L 1.9375,16 2.0625,16.34375 4.9375,24 2.0625,31.65625 1.9375,32 l 0.125,0.34375 3,8 1.875,-0.6875 L 4.0625,32 6.9375,24.34375 7.0625,24 6.9375,23.65625 4.0625,16 6.9375,8.34375 5.0625,7.65625 z m 4,0 -3,8 L 5.9375,16 6.0625,16.34375 8.9375,24 6.0625,31.65625 5.9375,32 l 0.125,0.34375 3,8 1.875,-0.6875 L 8.0625,32 10.9375,24.34375 11.0625,24 10.9375,23.65625 8.0625,16 10.9375,8.34375 9.0625,7.65625 z m 29.875,0 -1.875,0.6875 L 39.9375,16 37.0625,23.65625 36.9375,24 l 0.125,0.34375 2.875,7.65625 -2.875,7.65625 1.875,0.6875 3,-8 L 42.0625,32 41.9375,31.65625 39.0625,24 41.9375,16.34375 42.0625,16 l -0.125,-0.34375 -3,-8 z m 4,0 -1.875,0.6875 L 43.9375,16 41.0625,23.65625 40.9375,24 l 0.125,0.34375 2.875,7.65625 -2.875,7.65625 1.875,0.6875 3,-8 L 46.0625,32 45.9375,31.65625 43.0625,24 45.9375,16.34375 46.0625,16 l -0.125,-0.34375 -3,-8 z M 14,8 34,8 34,40 14,40 14,8 z" stroke="#404040" stroke-width="2" opacity="0.4"/>
  <path d="m 14,5 c -1.108,0 -2,0.892 -2,2 l 0,36 c 0,1.108 0.892,2 2,2 l 20,0 c 1.108,0 2,-0.892 2,-2 L 36,7 C 36,5.892 35.108,5 34,5 L 14,5 z m -8.9375,3.65625 -3,8 L 1.9375,17 2.0625,17.34375 4.9375,25 2.0625,32.65625 1.9375,33 l 0.125,0.34375 3,8 1.875,-0.6875 L 4.0625,33 6.9375,25.34375 7.0625,25 6.9375,24.65625 4.0625,17 6.9375,9.34375 5.0625,8.65625 z m 4,0 -3,8 L 5.9375,17 6.0625,17.34375 8.9375,25 6.0625,32.65625 5.9375,33 l 0.125,0.34375 3,8 1.875,-0.6875 L 8.0625,33 10.9375,25.34375 11.0625,25 10.9375,24.65625 8.0625,17 10.9375,9.34375 9.0625,8.65625 z m 29.875,0 -1.875,0.6875 L 39.9375,17 37.0625,24.65625 36.9375,25 l 0.125,0.34375 2.875,7.65625 -2.875,7.65625 1.875,0.6875 3,-8 L 42.0625,33 41.9375,32.65625 39.0625,25 41.9375,17.34375 42.0625,17 l -0.125,-0.34375 -3,-8 z m 4,0 -1.875,0.6875 L 43.9375,17 41.0625,24.65625 40.9375,25 l 0.125,0.34375 2.875,7.65625 -2.875,7.65625 1.875,0.6875 3,-8 L 46.0625,33 45.9375,32.65625 43.0625,25 45.9375,17.34375 46.0625,17 l -0.125,-0.34375 -3,-8 z M 14,9 34,9 34,41 14,41 14,9 z" fill="#808080" opacity="0.8"/>
  <path d="m 14,4 c -1.108,0 -2,0.892 -2,2 l 0,36 c 0,1.108 0.892,2 2,2 l 20,0 c 1.108,0 2,-0.892 2,-2 L 36,6 C 36,4.892 35.108,4 34,4 L 14,4 z m -8.9375,3.65625 -3,8 L 1.9375,16 2.0625,16.34375 4.9375,24 2.0625,31.65625 1.9375,32 l 0.125,0.34375 3,8 1.875,-0.6875 L 4.0625,32 6.9375,24.34375 7.0625,24 6.9375,23.65625 4.0625,16 6.9375,8.34375 5.0625,7.65625 z m 4,0 -3,8 L 5.9375,16 6.0625,16.34375 8.9375,24 6.0625,31.65625 5.9375,32 l 0.125,0.34375 3,8 1.875,-0.6875 L 8.0625,32 10.9375,24.34375 11.0625,24 10.9375,23.65625 8.0625,16 10.9375,8.34375 9.0625,7.65625 z m 29.875,0 -1.875,0.6875 L 39.9375,16 37.0625,23.65625 36.9375,24 l 0.125,0.34375 2.875,7.65625 -2.875,7.65625 1.875,0.6875 3,-8 L 42.0625,32 41.9375,31.65625 39.0625,24 41.9375,16.34375 42.0625,16 l -0.125,-0.34375 -3,-8 z m 4,0 -1.875,0.6875 L 43.9375,16 41.0625,23.65625 40.9375,24 l 0.125,0.34375 2.875,7.65625 -2.875,7.65625 1.875,0.6875 3,-8 L 46.0625,32 45.9375,31.65625 43.0625,24 45.9375,16.34375 46.0625,16 l -0.125,-0.34375 -3,-8 z M 14,8 34,8 34,40 14,40 14,8 z" fill="#ffffff"/>

</svg>
