<?xml version="1.0" encoding="UTF-8"?>
<svg xmlns="http://www.w3.org/2000/svg" version="1.1" baseProfile="tiny" viewBox="0 0 48 48">

  <path d="M 24,4 A 15,15 0 0 0 9.1132812,19 v 6 4 a 3,3 0 0 1 -2.9492187,3 h -0.050781 -1 c -0.554,0 -1,0.446 -1,1 v 1 c 0,0.554 0.446,1 1,1 h 1 35.9999995 1 c 0.554,0 1,-0.446 1,-1 v -1 c 0,-0.554 -0.446,-1 -1,-1 h -1 V 31.998 A 3,3 0 0 1 39.164062,29 h -0.05078 v -3 h -3 v 3 h 0.05078 a 6,6 0 0 0 0.804688,3 H 11.308594 a 6,6 0 0 0 0.804687,-3 V 19 a 12,12 0 0 1 12,-12 12,12 0 0 1 6.63086,2 h 4.548828 A 15,15 0 0 0 24.113281,4 15,15 0 0 0 24,4 Z m -3,6 c -0.554,0 -1,0.446 -1,1 v 11 2 3 c 0,0.554 0,1 1,1 1.361278,0 3.721655,-2.786878 3.900391,-3 H 43 c 0.554,0 1,-0.446 1,-1 V 11 c 0,-0.554 -0.446,-1 -1,-1 z m 5.5,6 A 1.5,1.5 0 0 1 28,17.5 1.5,1.5 0 0 1 26.5,19 1.5,1.5 0 0 1 25,17.5 1.5,1.5 0 0 1 26.5,16 Z m 6,0 A 1.5,1.5 0 0 1 34,17.5 1.5,1.5 0 0 1 32.5,19 1.5,1.5 0 0 1 31,17.5 1.5,1.5 0 0 1 32.5,16 Z m 6,0 A 1.5,1.5 0 0 1 40,17.5 1.5,1.5 0 0 1 38.5,19 1.5,1.5 0 0 1 37,17.5 1.5,1.5 0 0 1 38.5,16 Z M 16.113281,36 a 8,8 0 0 0 8,8 8,8 0 0 0 8,-8 h -3 a 5,5 0 0 1 -5,5 5,5 0 0 1 -5,-5 z" stroke="#404040" stroke-width="2" opacity="0.4"/>
  <path d="M 24,5 A 15,15 0 0 0 9.1132812,21 v 6 4 a 3,3 0 0 1 -2.9492187,3 h -0.050781 -1 c -0.554,0 -1,0.446 -1,1 v 1 c 0,0.554 0.446,1 1,1 h 1 35.9999995 1 c 0.554,0 1,-0.446 1,-1 v -1 c 0,-0.554 -0.446,-1 -1,-1 h -1 V 33.998 A 3,3 0 0 1 39.164062,31 h -0.05078 v -3 h -3 v 3 h 0.05078 a 6,6 0 0 0 0.804688,3 H 11.308594 a 6,6 0 0 0 0.804687,-3 V 21 a 12,12 0 0 1 12,-12 12,12 0 0 1 6.63086,2 h 4.548828 A 15,15 0 0 0 24.113281,6 15,15 0 0 0 24,6 Z m -3,6 c -0.554,0 -1,0.446 -1,1 v 11 2 3 c 0,0.554 0,1 1,1 1.361278,0 3.721655,-2.786878 3.900391,-3 H 43 c 0.554,0 1,-0.446 1,-1 V 13 c 0,-0.554 -0.446,-1 -1,-1 z m 5.5,6 A 1.5,1.5 0 0 1 28,19.5 1.5,1.5 0 0 1 26.5,21 1.5,1.5 0 0 1 25,19.5 1.5,1.5 0 0 1 26.5,18 Z m 6,0 A 1.5,1.5 0 0 1 34,19.5 1.5,1.5 0 0 1 32.5,21 1.5,1.5 0 0 1 31,19.5 1.5,1.5 0 0 1 32.5,18 Z m 6,0 A 1.5,1.5 0 0 1 40,19.5 1.5,1.5 0 0 1 38.5,21 1.5,1.5 0 0 1 37,19.5 1.5,1.5 0 0 1 38.5,18 Z M 16.113281,38 a 8,8 0 0 0 8,8 8,8 0 0 0 8,-8 h -3 a 5,5 0 0 1 -5,5 5,5 0 0 1 -5,-5 z" fill="#808080" opacity="0.8"/>
  <path d="M 24,4 A 15,15 0 0 0 9.1132812,19 v 6 4 a 3,3 0 0 1 -2.9492187,3 h -0.050781 -1 c -0.554,0 -1,0.446 -1,1 v 1 c 0,0.554 0.446,1 1,1 h 1 35.9999995 1 c 0.554,0 1,-0.446 1,-1 v -1 c 0,-0.554 -0.446,-1 -1,-1 h -1 V 31.998 A 3,3 0 0 1 39.164062,29 h -0.05078 v -3 h -3 v 3 h 0.05078 a 6,6 0 0 0 0.804688,3 H 11.308594 a 6,6 0 0 0 0.804687,-3 V 19 a 12,12 0 0 1 12,-12 12,12 0 0 1 6.63086,2 h 4.548828 A 15,15 0 0 0 24.113281,4 15,15 0 0 0 24,4 Z m -3,6 c -0.554,0 -1,0.446 -1,1 v 11 2 3 c 0,0.554 0,1 1,1 1.361278,0 3.721655,-2.786878 3.900391,-3 H 43 c 0.554,0 1,-0.446 1,-1 V 11 c 0,-0.554 -0.446,-1 -1,-1 z m 5.5,6 A 1.5,1.5 0 0 1 28,17.5 1.5,1.5 0 0 1 26.5,19 1.5,1.5 0 0 1 25,17.5 1.5,1.5 0 0 1 26.5,16 Z m 6,0 A 1.5,1.5 0 0 1 34,17.5 1.5,1.5 0 0 1 32.5,19 1.5,1.5 0 0 1 31,17.5 1.5,1.5 0 0 1 32.5,16 Z m 6,0 A 1.5,1.5 0 0 1 40,17.5 1.5,1.5 0 0 1 38.5,19 1.5,1.5 0 0 1 37,17.5 1.5,1.5 0 0 1 38.5,16 Z M 16.113281,36 a 8,8 0 0 0 8,8 8,8 0 0 0 8,-8 h -3 a 5,5 0 0 1 -5,5 5,5 0 0 1 -5,-5 z" fill="#ffffff"/>

</svg>
