<?xml version="1.0" encoding="UTF-8"?>
<svg xmlns="http://www.w3.org/2000/svg" version="1.1" baseProfile="tiny" viewBox="0 0 48 48">

  <path d="m 18,5 0,5.271484 A 15,15 0 0 1 24,9 15,15 0 0 1 30,10.259766 L 30,5 18,5 Z m 6,5 A 14,14 0 0 0 10,24 14,14 0 0 0 24,38 14,14 0 0 0 37.658203,27 L 39,27 c 0.554,0 1,-0.446 1,-1 l 0,-4 c 0,-0.554 -0.446,-1 -1,-1 l -1.335938,0 A 14,14 0 0 0 24,10 Z m 0,3 A 11,11 0 0 1 35,24 11,11 0 0 1 24,35 11,11 0 0 1 13,24 11,11 0 0 1 24,13 Z m -1,5 -8,8 16,0 -2,-2 4,0 -4,-4 -2,2 -4,-4 z m 7,19.728516 A 15,15 0 0 1 24,39 15,15 0 0 1 18,37.740234 L 18,43 l 12,0 0,-5.271484 z" stroke="#404040" stroke-width="2" opacity="0.4"/>
  <path d="m 18,6 0,5.271484 A 15,15 0 0 1 24,10 15,15 0 0 1 30,11.259766 L 30,6 18,6 Z m 6,5 A 14,14 0 0 0 10,25 14,14 0 0 0 24,39 14,14 0 0 0 37.658203,28 L 39,28 c 0.554,0 1,-0.446 1,-1 l 0,-4 c 0,-0.554 -0.446,-1 -1,-1 l -1.335938,0 A 14,14 0 0 0 24,11 Z m 0,3 A 11,11 0 0 1 35,25 11,11 0 0 1 24,36 11,11 0 0 1 13,25 11,11 0 0 1 24,14 Z m -1,5 -8,8 16,0 -2,-2 4,0 -4,-4 -2,2 -4,-4 z m 7,19.728516 A 15,15 0 0 1 24,40 15,15 0 0 1 18,38.740234 L 18,44 l 12,0 0,-5.271484 z" fill="#808080" opacity="0.8"/>
  <path d="m 18,5 0,5.271484 A 15,15 0 0 1 24,9 15,15 0 0 1 30,10.259766 L 30,5 18,5 Z m 6,5 A 14,14 0 0 0 10,24 14,14 0 0 0 24,38 14,14 0 0 0 37.658203,27 L 39,27 c 0.554,0 1,-0.446 1,-1 l 0,-4 c 0,-0.554 -0.446,-1 -1,-1 l -1.335938,0 A 14,14 0 0 0 24,10 Z m 0,3 A 11,11 0 0 1 35,24 11,11 0 0 1 24,35 11,11 0 0 1 13,24 11,11 0 0 1 24,13 Z m -1,5 -8,8 16,0 -2,-2 4,0 -4,-4 -2,2 -4,-4 z m 7,19.728516 A 15,15 0 0 1 24,39 15,15 0 0 1 18,37.740234 L 18,43 l 12,0 0,-5.271484 z" fill="#ffffff"/>

</svg>
