<?xml version="1.0" encoding="UTF-8"?>
<svg xmlns="http://www.w3.org/2000/svg" version="1.1" baseProfile="tiny" viewBox="0 0 48 48">

  <path d="m 15,4 c -3.582913,0 -7.1667206,1.3659394 -9.9003906,4.0996094 -0.390524,0.390524 -0.390524,1.0254916 0,1.4160156 0.390524,0.390525 1.0254906,0.390524 1.4160156,0 4.686291,-4.686291 12.282459,-4.686291 16.96875,0 0.390524,0.390524 1.025492,0.390524 1.416016,0 0.390524,-0.390524 0.390524,-1.0254916 0,-1.4160156 C 22.166721,5.3659394 18.582912,4 15,4 Z m 0,4 c -2.559223,0 -5.117691,0.977066 -7.0703125,2.929688 -0.390524,0.390523 -0.390524,1.023537 0,1.414062 0.390524,0.390524 1.0235375,0.390524 1.4140625,0 3.124194,-3.124195 8.188306,-3.124195 11.3125,0 0.390524,0.390524 1.023538,0.390524 1.414062,0 0.390524,-0.390525 0.390524,-1.023538 0,-1.414062 C 20.117691,8.977066 17.559223,8 15,8 Z m 18,3 c -3.582912,0 -7.166721,1.365939 -9.900391,4.099609 -0.390524,0.390524 -0.390524,1.025492 0,1.416016 0.390524,0.390525 1.025491,0.390524 1.416016,0 4.686291,-4.686291 12.282459,-4.686291 16.96875,0 0.390524,0.390524 1.025492,0.390524 1.416016,0 0.390524,-0.390524 0.390524,-1.025492 0,-1.416016 C 40.166721,12.365939 36.582912,11 33,11 Z m -18.099609,1.005859 c -1.501805,0.02118 -2.995445,0.60482 -4.142579,1.751953 -0.390523,0.390524 -0.390523,1.023539 0,1.414063 0.390524,0.390524 1.023539,0.390524 1.414063,0 1.562097,-1.562098 4.094153,-1.562098 5.65625,0 0.390524,0.390524 1.023538,0.390524 1.414063,0 0.390525,-0.390524 0.390525,-1.023538 0,-1.414063 -0.04882,-0.04882 -0.09885,-0.0962 -0.154297,-0.132812 -1.176249,-1.099273 -2.685695,-1.640321 -4.1875,-1.619141 z M 33,15 c -2.559223,0 -5.117691,0.977066 -7.070312,2.929688 -0.390524,0.390523 -0.390524,1.023537 0,1.414062 0.390523,0.390524 1.023537,0.390524 1.414062,0 3.124194,-3.124195 8.188306,-3.124195 11.3125,0 0.390524,0.390524 1.023537,0.390524 1.414062,0 0.390524,-0.390525 0.390524,-1.023539 0,-1.414062 C 38.117691,15.977066 35.559223,15 33,15 Z m -18,1 c -0.511845,0 -1.023538,0.195414 -1.414062,0.585938 -0.781049,0.781048 -0.781049,2.047077 0,2.828124 0.781048,0.781049 2.047077,0.781049 2.828124,0 0.781049,-0.781047 0.781049,-2.047076 0,-2.828124 C 16.023539,16.195414 15.511845,16 15,16 Z m 17.900391,3.005859 c -1.501805,0.02118 -2.995446,0.60482 -4.142579,1.751953 -0.390523,0.390524 -0.390523,1.023539 0,1.414063 0.390524,0.390524 1.023539,0.390524 1.414063,0 1.562097,-1.562098 4.094153,-1.562098 5.65625,0 0.390524,0.390524 1.023538,0.390524 1.414063,0 0.390524,-0.390524 0.390524,-1.023538 0,-1.414063 -0.04882,-0.04882 -0.09885,-0.0962 -0.154297,-0.132812 -1.176249,-1.099274 -2.685695,-1.640321 -4.1875,-1.619141 z M 33,23 c -0.511845,0 -1.023538,0.195414 -1.414062,0.585938 -0.781048,0.781048 -0.781048,2.047077 0,2.828124 0.781048,0.781049 2.047077,0.78105 2.828124,0 0.78105,-0.781047 0.78105,-2.047076 0,-2.828124 C 34.023539,23.195414 33.511845,23 33,23 Z m -10,4 c -3.582912,0 -7.166721,1.365939 -9.900391,4.099609 -0.390524,0.390524 -0.390524,1.025492 0,1.416016 0.390524,0.390525 1.025491,0.390524 1.416016,0 4.686291,-4.686291 12.282459,-4.686291 16.96875,0 0.390524,0.390524 1.025492,0.390524 1.416016,0 0.390524,-0.390524 0.390524,-1.025492 0,-1.416016 C 30.166721,28.365939 26.582912,27 23,27 Z m 0,4 c -2.559223,0 -5.117691,0.977066 -7.070312,2.929688 -0.390524,0.390523 -0.390524,1.023537 0,1.414062 0.390523,0.390524 1.023537,0.390524 1.414062,0 3.124194,-3.124195 8.188306,-3.124195 11.3125,0 0.390524,0.390524 1.023537,0.390524 1.414062,0 0.390524,-0.390525 0.390524,-1.023538 0,-1.414062 C 28.117691,31.977066 25.559223,31 23,31 Z m -0.09961,4.005859 c -1.501805,0.02118 -2.995446,0.60482 -4.142579,1.751953 -0.390523,0.390524 -0.390523,1.023539 0,1.414063 0.390524,0.390524 1.023539,0.390524 1.414063,0 1.562097,-1.562098 4.094153,-1.562098 5.65625,0 0.390524,0.390524 1.023538,0.390524 1.414063,0 0.390525,-0.390524 0.390524,-1.023539 0,-1.414063 -0.04882,-0.04882 -0.09885,-0.0962 -0.154297,-0.132812 -1.176249,-1.099273 -2.685695,-1.640321 -4.1875,-1.619141 z M 23,39 c -0.511845,0 -1.023538,0.195414 -1.414062,0.585938 -0.781048,0.781049 -0.781048,2.047077 0,2.828124 0.781048,0.78105 2.047077,0.78105 2.828124,0 0.781049,-0.781047 0.781049,-2.047076 0,-2.828124 C 24.023539,39.195414 23.511845,39 23,39 Z" stroke="#404040" stroke-width="2" opacity="0.4"/>
  <path d="m 15,5 c -3.582913,0 -7.1667206,1.3659394 -9.9003906,4.0996094 -0.390524,0.390524 -0.390524,1.0254916 0,1.4160156 0.390524,0.390525 1.0254906,0.390524 1.4160156,0 4.686291,-4.686291 12.282459,-4.686291 16.96875,0 0.390524,0.390524 1.025492,0.390524 1.416016,0 0.390524,-0.390524 0.390524,-1.0254916 0,-1.4160156 C 22.166721,6.3659394 18.582912,5 15,5 Z m 0,4 c -2.559223,0 -5.117691,0.977066 -7.0703125,2.929688 -0.390524,0.390523 -0.390524,1.023537 0,1.414062 0.390524,0.390524 1.0235375,0.390524 1.4140625,0 3.124194,-3.124195 8.188306,-3.124195 11.3125,0 0.390524,0.390524 1.023538,0.390524 1.414062,0 0.390524,-0.390525 0.390524,-1.023538 0,-1.414062 C 20.117691,9.977066 17.559223,9 15,9 Z m 18,3 c -3.582912,0 -7.166721,1.365939 -9.900391,4.099609 -0.390524,0.390524 -0.390524,1.025492 0,1.416016 0.390524,0.390525 1.025491,0.390524 1.416016,0 4.686291,-4.686291 12.282459,-4.686291 16.96875,0 0.390524,0.390524 1.025492,0.390524 1.416016,0 0.390524,-0.390524 0.390524,-1.025492 0,-1.416016 C 40.166721,13.365939 36.582912,12 33,12 Z m -18.099609,1.005859 c -1.501805,0.02118 -2.995445,0.60482 -4.142579,1.751953 -0.390523,0.390524 -0.390523,1.023539 0,1.414063 0.390524,0.390524 1.023539,0.390524 1.414063,0 1.562097,-1.562098 4.094153,-1.562098 5.65625,0 0.390524,0.390524 1.023538,0.390524 1.414063,0 0.390525,-0.390524 0.390525,-1.023538 0,-1.414063 -0.04882,-0.04882 -0.09885,-0.0962 -0.154297,-0.132812 -1.176249,-1.099273 -2.685695,-1.640321 -4.1875,-1.619141 z M 33,16 c -2.559223,0 -5.117691,0.977066 -7.070312,2.929688 -0.390524,0.390523 -0.390524,1.023537 0,1.414062 0.390523,0.390524 1.023537,0.390524 1.414062,0 3.124194,-3.124195 8.188306,-3.124195 11.3125,0 0.390524,0.390524 1.023537,0.390524 1.414062,0 0.390524,-0.390525 0.390524,-1.023539 0,-1.414062 C 38.117691,16.977066 35.559223,16 33,16 Z m -18,1 c -0.511845,0 -1.023538,0.195414 -1.414062,0.585938 -0.781049,0.781048 -0.781049,2.047077 0,2.828124 0.781048,0.781049 2.047077,0.781049 2.828124,0 0.781049,-0.781047 0.781049,-2.047076 0,-2.828124 C 16.023539,17.195414 15.511845,17 15,17 Z m 17.900391,3.005859 c -1.501805,0.02118 -2.995446,0.60482 -4.142579,1.751953 -0.390523,0.390524 -0.390523,1.023539 0,1.414063 0.390524,0.390524 1.023539,0.390524 1.414063,0 1.562097,-1.562098 4.094153,-1.562098 5.65625,0 0.390524,0.390524 1.023538,0.390524 1.414063,0 0.390524,-0.390524 0.390524,-1.023538 0,-1.414063 -0.04882,-0.04882 -0.09885,-0.0962 -0.154297,-0.132812 -1.176249,-1.099274 -2.685695,-1.640321 -4.1875,-1.619141 z M 33,24 c -0.511845,0 -1.023538,0.195414 -1.414062,0.585938 -0.781048,0.781048 -0.781048,2.047077 0,2.828124 0.781048,0.781049 2.047077,0.78105 2.828124,0 0.78105,-0.781047 0.78105,-2.047076 0,-2.828124 C 34.023539,24.195414 33.511845,24 33,24 Z m -10,4 c -3.582912,0 -7.166721,1.365939 -9.900391,4.099609 -0.390524,0.390524 -0.390524,1.025492 0,1.416016 0.390524,0.390525 1.025491,0.390524 1.416016,0 4.686291,-4.686291 12.282459,-4.686291 16.96875,0 0.390524,0.390524 1.025492,0.390524 1.416016,0 0.390524,-0.390524 0.390524,-1.025492 0,-1.416016 C 30.166721,29.365939 26.582912,28 23,28 Z m 0,4 c -2.559223,0 -5.117691,0.977066 -7.070312,2.929688 -0.390524,0.390523 -0.390524,1.023537 0,1.414062 0.390523,0.390524 1.023537,0.390524 1.414062,0 3.124194,-3.124195 8.188306,-3.124195 11.3125,0 0.390524,0.390524 1.023537,0.390524 1.414062,0 0.390524,-0.390525 0.390524,-1.023538 0,-1.414062 C 28.117691,32.977066 25.559223,32 23,32 Z m -0.09961,4.005859 c -1.501805,0.02118 -2.995446,0.60482 -4.142579,1.751953 -0.390523,0.390524 -0.390523,1.023539 0,1.414063 0.390524,0.390524 1.023539,0.390524 1.414063,0 1.562097,-1.562098 4.094153,-1.562098 5.65625,0 0.390524,0.390524 1.023538,0.390524 1.414063,0 0.390525,-0.390524 0.390524,-1.023539 0,-1.414063 -0.04882,-0.04882 -0.09885,-0.0962 -0.154297,-0.132812 -1.176249,-1.099273 -2.685695,-1.640321 -4.1875,-1.619141 z M 23,40 c -0.511845,0 -1.023538,0.195414 -1.414062,0.585938 -0.781048,0.781049 -0.781048,2.047077 0,2.828124 0.781048,0.78105 2.047077,0.78105 2.828124,0 0.781049,-0.781047 0.781049,-2.047076 0,-2.828124 C 24.023539,40.195414 23.511845,40 23,40 Z" fill="#808080" opacity="0.8"/>
  <path d="m 15,4 c -3.582913,0 -7.1667206,1.3659394 -9.9003906,4.0996094 -0.390524,0.390524 -0.390524,1.0254916 0,1.4160156 0.390524,0.390525 1.0254906,0.390524 1.4160156,0 4.686291,-4.686291 12.282459,-4.686291 16.96875,0 0.390524,0.390524 1.025492,0.390524 1.416016,0 0.390524,-0.390524 0.390524,-1.0254916 0,-1.4160156 C 22.166721,5.3659394 18.582912,4 15,4 Z m 0,4 c -2.559223,0 -5.117691,0.977066 -7.0703125,2.929688 -0.390524,0.390523 -0.390524,1.023537 0,1.414062 0.390524,0.390524 1.0235375,0.390524 1.4140625,0 3.124194,-3.124195 8.188306,-3.124195 11.3125,0 0.390524,0.390524 1.023538,0.390524 1.414062,0 0.390524,-0.390525 0.390524,-1.023538 0,-1.414062 C 20.117691,8.977066 17.559223,8 15,8 Z m 18,3 c -3.582912,0 -7.166721,1.365939 -9.900391,4.099609 -0.390524,0.390524 -0.390524,1.025492 0,1.416016 0.390524,0.390525 1.025491,0.390524 1.416016,0 4.686291,-4.686291 12.282459,-4.686291 16.96875,0 0.390524,0.390524 1.025492,0.390524 1.416016,0 0.390524,-0.390524 0.390524,-1.025492 0,-1.416016 C 40.166721,12.365939 36.582912,11 33,11 Z m -18.099609,1.005859 c -1.501805,0.02118 -2.995445,0.60482 -4.142579,1.751953 -0.390523,0.390524 -0.390523,1.023539 0,1.414063 0.390524,0.390524 1.023539,0.390524 1.414063,0 1.562097,-1.562098 4.094153,-1.562098 5.65625,0 0.390524,0.390524 1.023538,0.390524 1.414063,0 0.390525,-0.390524 0.390525,-1.023538 0,-1.414063 -0.04882,-0.04882 -0.09885,-0.0962 -0.154297,-0.132812 -1.176249,-1.099273 -2.685695,-1.640321 -4.1875,-1.619141 z M 33,15 c -2.559223,0 -5.117691,0.977066 -7.070312,2.929688 -0.390524,0.390523 -0.390524,1.023537 0,1.414062 0.390523,0.390524 1.023537,0.390524 1.414062,0 3.124194,-3.124195 8.188306,-3.124195 11.3125,0 0.390524,0.390524 1.023537,0.390524 1.414062,0 0.390524,-0.390525 0.390524,-1.023539 0,-1.414062 C 38.117691,15.977066 35.559223,15 33,15 Z m -18,1 c -0.511845,0 -1.023538,0.195414 -1.414062,0.585938 -0.781049,0.781048 -0.781049,2.047077 0,2.828124 0.781048,0.781049 2.047077,0.781049 2.828124,0 0.781049,-0.781047 0.781049,-2.047076 0,-2.828124 C 16.023539,16.195414 15.511845,16 15,16 Z m 17.900391,3.005859 c -1.501805,0.02118 -2.995446,0.60482 -4.142579,1.751953 -0.390523,0.390524 -0.390523,1.023539 0,1.414063 0.390524,0.390524 1.023539,0.390524 1.414063,0 1.562097,-1.562098 4.094153,-1.562098 5.65625,0 0.390524,0.390524 1.023538,0.390524 1.414063,0 0.390524,-0.390524 0.390524,-1.023538 0,-1.414063 -0.04882,-0.04882 -0.09885,-0.0962 -0.154297,-0.132812 -1.176249,-1.099274 -2.685695,-1.640321 -4.1875,-1.619141 z M 33,23 c -0.511845,0 -1.023538,0.195414 -1.414062,0.585938 -0.781048,0.781048 -0.781048,2.047077 0,2.828124 0.781048,0.781049 2.047077,0.78105 2.828124,0 0.78105,-0.781047 0.78105,-2.047076 0,-2.828124 C 34.023539,23.195414 33.511845,23 33,23 Z m -10,4 c -3.582912,0 -7.166721,1.365939 -9.900391,4.099609 -0.390524,0.390524 -0.390524,1.025492 0,1.416016 0.390524,0.390525 1.025491,0.390524 1.416016,0 4.686291,-4.686291 12.282459,-4.686291 16.96875,0 0.390524,0.390524 1.025492,0.390524 1.416016,0 0.390524,-0.390524 0.390524,-1.025492 0,-1.416016 C 30.166721,28.365939 26.582912,27 23,27 Z m 0,4 c -2.559223,0 -5.117691,0.977066 -7.070312,2.929688 -0.390524,0.390523 -0.390524,1.023537 0,1.414062 0.390523,0.390524 1.023537,0.390524 1.414062,0 3.124194,-3.124195 8.188306,-3.124195 11.3125,0 0.390524,0.390524 1.023537,0.390524 1.414062,0 0.390524,-0.390525 0.390524,-1.023538 0,-1.414062 C 28.117691,31.977066 25.559223,31 23,31 Z m -0.09961,4.005859 c -1.501805,0.02118 -2.995446,0.60482 -4.142579,1.751953 -0.390523,0.390524 -0.390523,1.023539 0,1.414063 0.390524,0.390524 1.023539,0.390524 1.414063,0 1.562097,-1.562098 4.094153,-1.562098 5.65625,0 0.390524,0.390524 1.023538,0.390524 1.414063,0 0.390525,-0.390524 0.390524,-1.023539 0,-1.414063 -0.04882,-0.04882 -0.09885,-0.0962 -0.154297,-0.132812 -1.176249,-1.099273 -2.685695,-1.640321 -4.1875,-1.619141 z M 23,39 c -0.511845,0 -1.023538,0.195414 -1.414062,0.585938 -0.781048,0.781049 -0.781048,2.047077 0,2.828124 0.781048,0.78105 2.047077,0.78105 2.828124,0 0.781049,-0.781047 0.781049,-2.047076 0,-2.828124 C 24.023539,39.195414 23.511845,39 23,39 Z" fill="#ffffff"/>

</svg>
