<?xml version="1.0" encoding="UTF-8"?>
<svg xmlns="http://www.w3.org/2000/svg" version="1.1" baseProfile="tiny" viewBox="0 0 48 48">

  <path d="M 16.5625,4.0625 10.90625,9.71875 18.6875,17.5 24.34375,11.84375 16.5625,4.0625 z m 14.15625,8.71875 c -1.022476,0 -2.060275,0.404026 -2.84375,1.1875 l -7.0625,7.0625 c -1.566948,1.566949 -1.566948,4.089301 0,5.65625 1.566949,1.566948 4.089301,1.566948 5.65625,0 l 7.0625,-7.0625 c 1.566948,-1.566949 1.566948,-4.089301 0,-5.65625 -0.783474,-0.783474 -1.790024,-1.1875 -2.8125,-1.1875 z M 20.8125,26.6875 c -1.562097,-1.562098 -4.094153,-1.562098 -5.65625,0 l 5.65625,5.65625 c 1.562098,-1.562097 1.562098,-4.094153 0,-5.65625 z M 35.65625,23.15625 30,28.8125 37.78125,36.59375 43.4375,30.9375 35.65625,23.15625 z m -28.25,3.9375 c -0.552285,0 -1.0000007,0.447715 -1,1 0,7.179702 5.820298,13 13,13 0.552285,10e-7 1,-0.447715 1,-1 0,-0.552285 -0.447715,-1.000001 -1,-1 -6.075132,0 -11,-4.924868 -11,-11 8e-7,-0.552285 -0.4477149,-1 -1,-1 z m 4,0 c -0.552285,0 -1,0.447716 -1,1 0,4.970563 4.029437,9 9,9 0.552284,0 1,-0.447715 1,-1 0,-0.552285 -0.447715,-0.999999 -1,-1 -3.865993,10e-7 -7.000001,-3.134007 -7,-7 -10e-7,-0.552285 -0.447715,-1 -1,-1 z" stroke="#404040" stroke-width="2" opacity="0.4"/>
  <path d="M 16.5625,6.0625 10.90625,11.71875 18.6875,19.5 24.34375,13.84375 16.5625,6.0625 z m 14.15625,8.71875 c -1.022476,0 -2.060275,0.404026 -2.84375,1.1875 l -7.0625,7.0625 c -1.566948,1.566949 -1.566948,4.089301 0,5.65625 1.566949,1.566948 4.089301,1.566948 5.65625,0 l 7.0625,-7.0625 c 1.566948,-1.566949 1.566948,-4.089301 0,-5.65625 -0.783474,-0.783474 -1.790024,-1.1875 -2.8125,-1.1875 z M 20.8125,28.6875 c -1.562097,-1.562098 -4.094153,-1.562098 -5.65625,0 l 5.65625,5.65625 c 1.562098,-1.562097 1.562098,-4.094153 0,-5.65625 z M 35.65625,25.15625 30,30.8125 37.78125,38.59375 43.4375,32.9375 35.65625,25.15625 z m -28.25,3.9375 c -0.552285,0 -1.0000007,0.447715 -1,1 0,7.179702 5.820298,13 13,13 0.552285,10e-7 1,-0.447715 1,-1 0,-0.552285 -0.447715,-1.000001 -1,-1 -6.075132,0 -11,-4.924868 -11,-11 8e-7,-0.552285 -0.4477149,-1 -1,-1 z m 4,0 c -0.552285,0 -1,0.447716 -1,1 0,4.970563 4.029437,9 9,9 0.552284,0 1,-0.447715 1,-1 0,-0.552285 -0.447715,-0.999999 -1,-1 -3.865993,10e-7 -7.000001,-3.134007 -7,-7 -10e-7,-0.552285 -0.447715,-1 -1,-1 z" fill="#808080" opacity="0.8"/>
  <path d="M 16.5625,4.0625 10.90625,9.71875 18.6875,17.5 24.34375,11.84375 16.5625,4.0625 z m 14.15625,8.71875 c -1.022476,0 -2.060275,0.404026 -2.84375,1.1875 l -7.0625,7.0625 c -1.566948,1.566949 -1.566948,4.089301 0,5.65625 1.566949,1.566948 4.089301,1.566948 5.65625,0 l 7.0625,-7.0625 c 1.566948,-1.566949 1.566948,-4.089301 0,-5.65625 -0.783474,-0.783474 -1.790024,-1.1875 -2.8125,-1.1875 z M 20.8125,26.6875 c -1.562097,-1.562098 -4.094153,-1.562098 -5.65625,0 l 5.65625,5.65625 c 1.562098,-1.562097 1.562098,-4.094153 0,-5.65625 z M 35.65625,23.15625 30,28.8125 37.78125,36.59375 43.4375,30.9375 35.65625,23.15625 z m -28.25,3.9375 c -0.552285,0 -1.0000007,0.447715 -1,1 0,7.179702 5.820298,13 13,13 0.552285,10e-7 1,-0.447715 1,-1 0,-0.552285 -0.447715,-1.000001 -1,-1 -6.075132,0 -11,-4.924868 -11,-11 8e-7,-0.552285 -0.4477149,-1 -1,-1 z m 4,0 c -0.552285,0 -1,0.447716 -1,1 0,4.970563 4.029437,9 9,9 0.552284,0 1,-0.447715 1,-1 0,-0.552285 -0.447715,-0.999999 -1,-1 -3.865993,10e-7 -7.000001,-3.134007 -7,-7 -10e-7,-0.552285 -0.447715,-1 -1,-1 z" fill="#ffffff"/>

</svg>
