<?xml version="1.0" encoding="UTF-8"?>
<svg xmlns="http://www.w3.org/2000/svg" version="1.1" baseProfile="tiny" viewBox="0 0 48 48">

  <path d="m 17,3 3,18 -9,0 -5,-6 -4,0 3,6 0,6 -3,6 4,0 5,-6 9,0 -3,18 3,0 8,-18 15,0 c 1.662,0 3,-1.338 3,-3 0,-1.662 -1.338,-3 -3,-3 L 28,21 20,3 17,3 z" stroke="#404040" stroke-width="2" opacity="0.4"/>
  <path d="m 17,4 3,18 -9,0 -5,-6 -4,0 3,6 0,6 -3,6 4,0 5,-6 9,0 -3,18 3,0 8,-18 15,0 c 1.662,0 3,-1.338 3,-3 0,-1.662 -1.338,-3 -3,-3 L 28,22 20,4 17,4 z" fill="#808080" opacity="0.8"/>
  <path d="m 17,3 3,18 -9,0 -5,-6 -4,0 3,6 0,6 -3,6 4,0 5,-6 9,0 -3,18 3,0 8,-18 15,0 c 1.662,0 3,-1.338 3,-3 0,-1.662 -1.338,-3 -3,-3 L 28,21 20,3 17,3 z" fill="#ffffff"/>

</svg>
