<?xml version="1.0" encoding="UTF-8"?>
<svg xmlns="http://www.w3.org/2000/svg" version="1.1" baseProfile="tiny" viewBox="0 0 48 48">

  <path d="M 27.59375,5.875 C 27.107046,5.86892 26.620002,5.893562 26.125,5.9375 c 0,0 -0.403493,0.019175 -0.75,0.28125 -0.115508,0.08735 -0.200923,0.228222 -0.28125,0.375 -0.1071,0.195703 -0.185012,0.452507 -0.15625,0.78125 0.115044,1.314977 1.4375,1.21875 1.4375,1.21875 6.476667,-0.570611 12.162997,4.150498 12.8125,10.625 l 0.0625,0.125 c 0.199006,2.172903 -0.199334,4.251106 -1.0625,6.09375 0,0 -0.571326,1.192145 0.625,1.75 1.196326,0.557856 1.75,-0.625 1.75,-0.625 1.057359,-2.251581 1.55583,-4.811865 1.3125,-7.46875 L 41.875,19 C 41.130466,11.578164 34.894305,5.9661309 27.59375,5.875 z m -0.03125,5.28125 c -0.309404,-0.0039 -0.622876,0.03507 -0.9375,0.0625 0,0 -0.434749,-0.01212 -0.78125,0.25 -0.115509,0.08735 -0.232173,0.228222 -0.3125,0.375 -0.1071,0.195702 -0.153761,0.483756 -0.125,0.8125 0.115046,1.314977 1.4375,1.15625 1.4375,1.15625 C 30.434324,13.506316 33.639797,16.159322 34,19.75 l -0.03125,0.03125 c 0.111275,1.214994 -0.07946,2.37523 -0.5625,3.40625 0,0 -0.571326,1.192144 0.625,1.75 1.196326,0.557856 1.75,-0.625 1.75,-0.625 0.669144,-1.433836 0.967198,-3.029614 0.8125,-4.71875 l 0.03125,-0.125 c -0.473318,-4.718339 -4.421436,-8.254058 -9.0625,-8.3125 z M 18.5,15 C 14.357864,15 11,18.357864 11,22.5 11,26.642136 14.357864,30 18.5,30 22.642136,30 26,26.642136 26,22.5 26,18.357864 22.642136,15 18.5,15 z m 0,15 C 11.764933,30 6.2952693,35.329672 6.03125,42 l 24.9375,0 C 30.704731,35.329672 25.235067,30 18.5,30 z" stroke="#404040" stroke-width="2" opacity="0.4"/>
  <path d="M 27.59375,6.875 C 27.107046,6.86892 26.620002,6.893562 26.125,6.9375 c 0,0 -0.403493,0.019175 -0.75,0.28125 -0.115508,0.08735 -0.200923,0.228222 -0.28125,0.375 -0.1071,0.195703 -0.185012,0.452507 -0.15625,0.78125 0.115044,1.314977 1.4375,1.21875 1.4375,1.21875 6.476667,-0.570611 12.162997,4.150498 12.8125,10.625 l 0.0625,0.125 c 0.199006,2.172903 -0.199334,4.251106 -1.0625,6.09375 0,0 -0.571326,1.192145 0.625,1.75 1.196326,0.557856 1.75,-0.625 1.75,-0.625 1.057359,-2.251581 1.55583,-4.811865 1.3125,-7.46875 L 41.875,20 C 41.130466,12.578164 34.894305,6.9661309 27.59375,6.875 z m -0.03125,5.28125 c -0.309404,-0.0039 -0.622876,0.03507 -0.9375,0.0625 0,0 -0.434749,-0.01212 -0.78125,0.25 -0.115509,0.08735 -0.232173,0.228222 -0.3125,0.375 -0.1071,0.195702 -0.153761,0.483756 -0.125,0.8125 0.115046,1.314977 1.4375,1.15625 1.4375,1.15625 C 30.434324,14.506316 33.639797,17.159322 34,20.75 l -0.03125,0.03125 c 0.111275,1.214994 -0.07946,2.37523 -0.5625,3.40625 0,0 -0.571326,1.192144 0.625,1.75 1.196326,0.557856 1.75,-0.625 1.75,-0.625 0.669144,-1.433836 0.967198,-3.029614 0.8125,-4.71875 l 0.03125,-0.125 c -0.473318,-4.718339 -4.421436,-8.254058 -9.0625,-8.3125 z M 18.5,16 C 14.357864,16 11,19.357864 11,23.5 11,27.642136 14.357864,31 18.5,31 22.642136,31 26,27.642136 26,23.5 26,19.357864 22.642136,16 18.5,16 z m 0,15 C 11.764933,31 6.2952693,36.329672 6.03125,43 l 24.9375,0 C 30.704731,36.329672 25.235067,31 18.5,31 z" fill="#808080" opacity="0.8"/>
  <path d="M 27.59375,5.875 C 27.107046,5.86892 26.620002,5.893562 26.125,5.9375 c 0,0 -0.403493,0.019175 -0.75,0.28125 -0.115508,0.08735 -0.200923,0.228222 -0.28125,0.375 -0.1071,0.195703 -0.185012,0.452507 -0.15625,0.78125 0.115044,1.314977 1.4375,1.21875 1.4375,1.21875 6.476667,-0.570611 12.162997,4.150498 12.8125,10.625 l 0.0625,0.125 c 0.199006,2.172903 -0.199334,4.251106 -1.0625,6.09375 0,0 -0.571326,1.192145 0.625,1.75 1.196326,0.557856 1.75,-0.625 1.75,-0.625 1.057359,-2.251581 1.55583,-4.811865 1.3125,-7.46875 L 41.875,19 C 41.130466,11.578164 34.894305,5.9661309 27.59375,5.875 z m -0.03125,5.28125 c -0.309404,-0.0039 -0.622876,0.03507 -0.9375,0.0625 0,0 -0.434749,-0.01212 -0.78125,0.25 -0.115509,0.08735 -0.232173,0.228222 -0.3125,0.375 -0.1071,0.195702 -0.153761,0.483756 -0.125,0.8125 0.115046,1.314977 1.4375,1.15625 1.4375,1.15625 C 30.434324,13.506316 33.639797,16.159322 34,19.75 l -0.03125,0.03125 c 0.111275,1.214994 -0.07946,2.37523 -0.5625,3.40625 0,0 -0.571326,1.192144 0.625,1.75 1.196326,0.557856 1.75,-0.625 1.75,-0.625 0.669144,-1.433836 0.967198,-3.029614 0.8125,-4.71875 l 0.03125,-0.125 c -0.473318,-4.718339 -4.421436,-8.254058 -9.0625,-8.3125 z M 18.5,15 C 14.357864,15 11,18.357864 11,22.5 11,26.642136 14.357864,30 18.5,30 22.642136,30 26,26.642136 26,22.5 26,18.357864 22.642136,15 18.5,15 z m 0,15 C 11.764933,30 6.2952693,35.329672 6.03125,42 l 24.9375,0 C 30.704731,35.329672 25.235067,30 18.5,30 z" fill="#ffffff"/>

</svg>
