<?xml version="1.0" encoding="UTF-8"?>
<svg xmlns="http://www.w3.org/2000/svg" version="1.1" baseProfile="tiny" viewBox="0 0 48 48">

  <path d="M 7.6976427,13.362073 C 7.3770068,17.908305 9.426218,24.1922 13.585644,30.106866 c 4.114012,5.850088 9.233969,9.889608 13.562401,11.142225 l 4.571722,-4.421929 -4.834187,-5.160488 -1.960569,3.356564 C 22.634483,33.330264 20.034732,30.590141 17.66348,27.213385 15.283073,23.823591 13.57433,20.433608 12.746762,17.685378 l 3.814442,-0.763441 -3.195883,-6.30764 -5.6676783,2.747776 z M 22.3791,8.232148 c -0.115508,0.08735 -0.206355,0.206556 -0.286682,0.353334 -0.1071,0.195703 -0.192496,0.472591 -0.163734,0.801334 0.115044,1.314977 1.449183,1.197925 1.449183,1.197925 6.476667,-0.570611 12.172957,4.155807 12.82246,10.630309 l 0.0461,0.120318 c 0.199006,2.172903 -0.211228,4.250543 -1.074394,6.093187 0,0 -0.566294,1.213646 0.630032,1.771501 1.196326,0.557856 1.771501,-0.630031 1.771501,-0.630031 1.057359,-2.251581 1.5377,-4.811106 1.29437,-7.467991 L 38.86536,20.98939 C 38.07119,13.072765 31.046643,7.2346288 23.126609,7.9376328 c 0,0 -0.401002,0.03244 -0.747509,0.2945152 z m 0.466669,5.24302 c -0.115509,0.08735 -0.231954,0.22448 -0.312281,0.371258 -0.1071,0.195702 -0.148973,0.480264 -0.120212,0.809008 0.115046,1.314977 1.431259,1.172326 1.431259,1.172326 3.590574,-0.306184 6.806343,2.340075 7.166546,5.930753 l -0.0512,0.03585 c 0.111275,1.214994 -0.07203,2.37143 -0.555068,3.40245 0,0 -0.584219,1.188047 0.612107,1.745903 1.196326,0.557856 1.771501,-0.630032 1.771501,-0.630032 0.669144,-1.433836 0.965592,-3.036921 0.810894,-4.726057 l 0.02302,-0.130568 c -0.504872,-5.032895 -4.977154,-8.688687 -10.011139,-8.249807 0,0 -0.418926,0.0068 -0.765432,0.268917 z" stroke="#404040" stroke-width="2" opacity="0.4"/>
  <path d="M 7.6976427,14.362073 C 7.3770068,18.908305 9.426218,25.1922 13.585644,31.106866 c 4.114012,5.850088 9.233969,9.889608 13.562401,11.142225 l 4.571722,-4.421929 -4.834187,-5.160488 -1.960569,3.356564 C 22.634483,34.330264 20.034732,31.590141 17.66348,28.213385 15.283073,24.823591 13.57433,21.433608 12.746762,18.685378 l 3.814442,-0.763441 -3.195883,-6.30764 -5.6676783,2.747776 z M 22.3791,9.232148 c -0.115508,0.08735 -0.206355,0.206556 -0.286682,0.353334 -0.1071,0.195703 -0.192496,0.472591 -0.163734,0.801334 0.115044,1.314977 1.449183,1.197925 1.449183,1.197925 6.476667,-0.570611 12.172957,4.155807 12.82246,10.630309 l 0.0461,0.120318 c 0.199006,2.172903 -0.211228,4.250543 -1.074394,6.093187 0,0 -0.566294,1.213646 0.630032,1.771501 1.196326,0.557856 1.771501,-0.630031 1.771501,-0.630031 1.057359,-2.251581 1.5377,-4.811106 1.29437,-7.467991 L 38.86536,21.98939 C 38.07119,14.072765 31.046643,8.2346288 23.126609,8.9376328 c 0,0 -0.401002,0.03244 -0.747509,0.2945152 z m 0.466669,5.24302 c -0.115509,0.08735 -0.231954,0.22448 -0.312281,0.371258 -0.1071,0.195702 -0.148973,0.480264 -0.120212,0.809008 0.115046,1.314977 1.431259,1.172326 1.431259,1.172326 3.590574,-0.306184 6.806343,2.340075 7.166546,5.930753 l -0.0512,0.03585 c 0.111275,1.214994 -0.07203,2.37143 -0.555068,3.40245 0,0 -0.584219,1.188047 0.612107,1.745903 1.196326,0.557856 1.771501,-0.630032 1.771501,-0.630032 0.669144,-1.433836 0.965592,-3.036921 0.810894,-4.726057 l 0.02302,-0.130568 c -0.504872,-5.032895 -4.977154,-8.688687 -10.011139,-8.249807 0,0 -0.418926,0.0068 -0.765432,0.268917 z" fill="#808080" opacity="0.8"/>
  <path d="M 7.6976427,13.362073 C 7.3770068,17.908305 9.426218,24.1922 13.585644,30.106866 c 4.114012,5.850088 9.233969,9.889608 13.562401,11.142225 l 4.571722,-4.421929 -4.834187,-5.160488 -1.960569,3.356564 C 22.634483,33.330264 20.034732,30.590141 17.66348,27.213385 15.283073,23.823591 13.57433,20.433608 12.746762,17.685378 l 3.814442,-0.763441 -3.195883,-6.30764 -5.6676783,2.747776 z M 22.3791,8.232148 c -0.115508,0.08735 -0.206355,0.206556 -0.286682,0.353334 -0.1071,0.195703 -0.192496,0.472591 -0.163734,0.801334 0.115044,1.314977 1.449183,1.197925 1.449183,1.197925 6.476667,-0.570611 12.172957,4.155807 12.82246,10.630309 l 0.0461,0.120318 c 0.199006,2.172903 -0.211228,4.250543 -1.074394,6.093187 0,0 -0.566294,1.213646 0.630032,1.771501 1.196326,0.557856 1.771501,-0.630031 1.771501,-0.630031 1.057359,-2.251581 1.5377,-4.811106 1.29437,-7.467991 L 38.86536,20.98939 C 38.07119,13.072765 31.046643,7.2346288 23.126609,7.9376328 c 0,0 -0.401002,0.03244 -0.747509,0.2945152 z m 0.466669,5.24302 c -0.115509,0.08735 -0.231954,0.22448 -0.312281,0.371258 -0.1071,0.195702 -0.148973,0.480264 -0.120212,0.809008 0.115046,1.314977 1.431259,1.172326 1.431259,1.172326 3.590574,-0.306184 6.806343,2.340075 7.166546,5.930753 l -0.0512,0.03585 c 0.111275,1.214994 -0.07203,2.37143 -0.555068,3.40245 0,0 -0.584219,1.188047 0.612107,1.745903 1.196326,0.557856 1.771501,-0.630032 1.771501,-0.630032 0.669144,-1.433836 0.965592,-3.036921 0.810894,-4.726057 l 0.02302,-0.130568 c -0.504872,-5.032895 -4.977154,-8.688687 -10.011139,-8.249807 0,0 -0.418926,0.0068 -0.765432,0.268917 z" fill="#ffffff"/>

</svg>
