<?xml version="1.0" encoding="UTF-8"?>
<svg xmlns="http://www.w3.org/2000/svg" version="1.1" baseProfile="tiny" viewBox="0 0 48 48">

  <path d="M 28,8 C 28,8 28,6 22.5,11.5 17,17 16,18 16,18 L 6,18 c 0,0 -2,0 -2,2 0,2 0,6 0,8 0,2 2,2 2,2 l 10,0 c 0,0 1,1 6.5,6.5 C 28,42 28,40 28,40 z m 7.7557,3.2125 c -0.144721,0.0053 -0.303762,0.04959 -0.45375,0.12375 -0.199982,0.09888 -0.412501,0.291712 -0.5775,0.5775 -0.660001,1.143153 0.495,1.815 0.495,1.815 5.632664,3.247446 7.59533,10.370109 4.41375,16.04625 l -0.04125,0.12375 c -1.08331,1.894083 -2.608539,3.358186 -4.3725,4.3725 0,0 -1.155,0.671847 -0.495,1.815 0.66,1.143153 1.815,0.495 1.815,0.495 2.157591,-1.237911 3.996647,-3.046539 5.32125,-5.3625 l 0.0825,-0.0825 c 3.890244,-6.940436 1.487189,-15.750622 -5.40375,-19.7175 0,0 -0.349588,-0.222182 -0.78375,-0.20625 z m -2.64,4.57875 c -0.144721,0.0053 -0.303762,0.04959 -0.45375,0.12375 -0.199982,0.09888 -0.4125,0.291712 -0.5775,0.5775 -0.66,1.143154 0.495,1.77375 0.495,1.77375 3.116846,1.808657 4.239468,5.844585 2.475,8.9925 l -0.04125,0 c -0.605741,1.05909 -1.446702,1.907495 -2.43375,2.475 0,0 -1.155,0.630597 -0.495,1.77375 0.66,1.143154 1.815,0.495 1.815,0.495 1.370546,-0.790725 2.540373,-1.95136 3.3825,-3.42375 l 0.0825,-0.0825 c 2.473183,-4.412289 0.91033,-9.970884 -3.465,-12.49875 0,0 -0.349588,-0.222182 -0.78375,-0.20625 z" stroke="#404040" stroke-width="2" opacity="0.4"/>
  <path d="M 28,9 C 28,9 28,7 22.5,12.5 17,18 16,19 16,19 L 6,19 c 0,0 -2,0 -2,2 0,2 0,6 0,8 0,2 2,2 2,2 l 10,0 c 0,0 1,1 6.5,6.5 C 28,43 28,41 28,41 z m 7.7557,3.2125 c -0.144721,0.0053 -0.303762,0.04959 -0.45375,0.12375 -0.199982,0.09888 -0.412501,0.291712 -0.5775,0.5775 -0.660001,1.143153 0.495,1.815 0.495,1.815 5.632664,3.247446 7.59533,10.370109 4.41375,16.04625 l -0.04125,0.12375 c -1.08331,1.894083 -2.608539,3.358186 -4.3725,4.3725 0,0 -1.155,0.671847 -0.495,1.815 0.66,1.143153 1.815,0.495 1.815,0.495 2.157591,-1.237911 3.996647,-3.046539 5.32125,-5.3625 l 0.0825,-0.0825 c 3.890244,-6.940436 1.487189,-15.750622 -5.40375,-19.7175 0,0 -0.349588,-0.222182 -0.78375,-0.20625 z m -2.64,4.57875 c -0.144721,0.0053 -0.303762,0.04959 -0.45375,0.12375 -0.199982,0.09888 -0.4125,0.291712 -0.5775,0.5775 -0.66,1.143154 0.495,1.77375 0.495,1.77375 3.116846,1.808657 4.239468,5.844585 2.475,8.9925 l -0.04125,0 c -0.605741,1.05909 -1.446702,1.907495 -2.43375,2.475 0,0 -1.155,0.630597 -0.495,1.77375 0.66,1.143154 1.815,0.495 1.815,0.495 1.370546,-0.790725 2.540373,-1.95136 3.3825,-3.42375 l 0.0825,-0.0825 c 2.473183,-4.412289 0.91033,-9.970884 -3.465,-12.49875 0,0 -0.349588,-0.222182 -0.78375,-0.20625 z" fill="#808080" opacity="0.8"/>
  <path d="M 28,8 C 28,8 28,6 22.5,11.5 17,17 16,18 16,18 L 6,18 c 0,0 -2,0 -2,2 0,2 0,6 0,8 0,2 2,2 2,2 l 10,0 c 0,0 1,1 6.5,6.5 C 28,42 28,40 28,40 z m 7.7557,3.2125 c -0.144721,0.0053 -0.303762,0.04959 -0.45375,0.12375 -0.199982,0.09888 -0.412501,0.291712 -0.5775,0.5775 -0.660001,1.143153 0.495,1.815 0.495,1.815 5.632664,3.247446 7.59533,10.370109 4.41375,16.04625 l -0.04125,0.12375 c -1.08331,1.894083 -2.608539,3.358186 -4.3725,4.3725 0,0 -1.155,0.671847 -0.495,1.815 0.66,1.143153 1.815,0.495 1.815,0.495 2.157591,-1.237911 3.996647,-3.046539 5.32125,-5.3625 l 0.0825,-0.0825 c 3.890244,-6.940436 1.487189,-15.750622 -5.40375,-19.7175 0,0 -0.349588,-0.222182 -0.78375,-0.20625 z m -2.64,4.57875 c -0.144721,0.0053 -0.303762,0.04959 -0.45375,0.12375 -0.199982,0.09888 -0.4125,0.291712 -0.5775,0.5775 -0.66,1.143154 0.495,1.77375 0.495,1.77375 3.116846,1.808657 4.239468,5.844585 2.475,8.9925 l -0.04125,0 c -0.605741,1.05909 -1.446702,1.907495 -2.43375,2.475 0,0 -1.155,0.630597 -0.495,1.77375 0.66,1.143154 1.815,0.495 1.815,0.495 1.370546,-0.790725 2.540373,-1.95136 3.3825,-3.42375 l 0.0825,-0.0825 c 2.473183,-4.412289 0.91033,-9.970884 -3.465,-12.49875 0,0 -0.349588,-0.222182 -0.78375,-0.20625 z" fill="#ffffff"/>

</svg>
