<?xml version="1.0" encoding="UTF-8"?>
<svg xmlns="http://www.w3.org/2000/svg" version="1.1" baseProfile="tiny" viewBox="0 0 48 48">

  <path d="M 24,6 A 18,18 0 0 0 6,24 18,18 0 0 0 24,42 18,18 0 0 0 42,24 18,18 0 0 0 24,6 Z m 0,2 A 16,16 0 0 1 40,24 16,16 0 0 1 24,40 16,16 0 0 1 8,24 16,16 0 0 1 24,8 Z M 27.914062,11.09375 22,28.835938 18.185547,17.392578 15.382812,23 H 11 a 1,1 0 0 0 -1,1 1,1 0 0 0 1,1 h 5.617188 L 17.814453,22.607422 22,35.162109 28.085938,16.90625 31.322266,25 H 37 a 1,1 0 0 0 1,-1 1,1 0 0 0 -1,-1 h -4.322266 z" stroke="#404040" stroke-width="2" opacity="0.4"/>
  <path d="M 24,7 A 18,18 0 0 0 6,25 18,18 0 0 0 24,43 18,18 0 0 0 42,25 18,18 0 0 0 24,7 Z m 0,2 A 16,16 0 0 1 40,25 16,16 0 0 1 24,41 16,16 0 0 1 8,25 16,16 0 0 1 24,9 Z M 27.914062,12.09375 22,29.835938 18.185547,18.392578 15.382812,24 H 11 a 1,1 0 0 0 -1,1 1,1 0 0 0 1,1 h 5.617188 L 17.814453,23.607422 22,36.162109 28.085938,17.90625 31.322266,26 H 37 a 1,1 0 0 0 1,-1 1,1 0 0 0 -1,-1 h -4.322266 z" fill="#808080" opacity="0.8"/>
  <path d="M 24,6 A 18,18 0 0 0 6,24 18,18 0 0 0 24,42 18,18 0 0 0 42,24 18,18 0 0 0 24,6 Z m 0,2 A 16,16 0 0 1 40,24 16,16 0 0 1 24,40 16,16 0 0 1 8,24 16,16 0 0 1 24,8 Z M 27.914062,11.09375 22,28.835938 18.185547,17.392578 15.382812,23 H 11 a 1,1 0 0 0 -1,1 1,1 0 0 0 1,1 h 5.617188 L 17.814453,22.607422 22,35.162109 28.085938,16.90625 31.322266,25 H 37 a 1,1 0 0 0 1,-1 1,1 0 0 0 -1,-1 h -4.322266 z" fill="#ffffff"/>

</svg>
