<?xml version="1.0" encoding="UTF-8"?>
<svg xmlns="http://www.w3.org/2000/svg" version="1.1" baseProfile="tiny" viewBox="0 0 48 48">

  <path d="m 14,3 c -1.108,0 -2,0.892 -2,2 l 0,6 c 0,1.108 0.892,2 2,2 1.108,0 2,-0.892 2,-2 L 16,5 C 16,3.892 15.108,3 14,3 z m 20,0 c -1.108,0 -2,0.892 -2,2 l 0,6 c 0,1.108 0.892,2 2,2 1.108,0 2,-0.892 2,-2 L 36,5 C 36,3.892 35.108,3 34,3 z M 4,8 C 4,8 2,8 2,10 l 0,28 c 0,2 2,2 2,2 l 40,0 c 0,0 2,0 2,-2 L 46,10 C 46,8 44,8 44,8 l -6,0 0,3 c 0,2.216 -1.784,4 -4,4 -2.216,0 -4,-1.784 -4,-4 l 0,-3 -12,0 0,3 c 0,2.216 -1.784,4 -4,4 -2.216,0 -4,-1.784 -4,-4 L 10,8 4,8 z m 25,11 c 1.279612,0 2.554939,0.492439 3.53125,1.46875 1.614399,1.6144 1.867625,4.037831 0.8125,5.9375 -0.230085,0.405145 -0.431856,0.813138 -0.8125,1.125 L 29.0625,31 32.5,31 c 0.831,0 1.5,0.669 1.5,1.5 0,0.831 -0.669,1.5 -1.5,1.5 l -6.75,0 c -0.485954,-0.06295 -1.015037,-0.102201 -1.40625,-0.5 -0.559748,-0.559748 -0.559748,-1.471502 0,-2.03125 l 6.0625,-6.0625 c 0.781049,-0.781048 0.781049,-2.031452 0,-2.8125 -0.781048,-0.781048 -2.031452,-0.781048 -2.8125,0 C 27.178987,23.008513 26.97426,23.456882 27,24 c -0.928039,0 -2.023286,-7.4e-4 -3,0 0,-1.279612 0.492439,-2.554939 1.46875,-3.53125 C 26.445061,19.492439 27.720388,19 29,19 z M 17.1875,19.09375 C 17.511601,19.01794 17.880493,19.069869 18.34375,19.25 18.58449,19.491387 19,19.513905 19,20.5 l 0,12 C 19,33.331 18.331,34 17.5,34 16.669,34 16,33.331 16,32.5 l 0,-8.375 -0.96875,0.96875 c -0.587606,0.587606 -1.537394,0.587606 -2.125,0 -0.587606,-0.587606 -0.587606,-1.537394 0,-2.125 L 16.25,19.65625 c 0.334089,-0.283141 0.613399,-0.48669 0.9375,-0.5625 z" stroke="#404040" stroke-width="2" opacity="0.4"/>
  <path d="m 14,4 c -1.108,0 -2,0.892 -2,2 l 0,6 c 0,1.108 0.892,2 2,2 1.108,0 2,-0.892 2,-2 L 16,6 C 16,4.892 15.108,4 14,4 z m 20,0 c -1.108,0 -2,0.892 -2,2 l 0,6 c 0,1.108 0.892,2 2,2 1.108,0 2,-0.892 2,-2 L 36,6 C 36,4.892 35.108,4 34,4 z M 4,9 C 4,9 2,9 2,11 l 0,28 c 0,2 2,2 2,2 l 40,0 c 0,0 2,0 2,-2 L 46,11 C 46,9 44,9 44,9 l -6,0 0,3 c 0,2.216 -1.784,4 -4,4 -2.216,0 -4,-1.784 -4,-4 l 0,-3 -12,0 0,3 c 0,2.216 -1.784,4 -4,4 -2.216,0 -4,-1.784 -4,-4 L 10,9 4,9 z m 25,11 c 1.279612,0 2.554939,0.492439 3.53125,1.46875 1.614399,1.6144 1.867625,4.037831 0.8125,5.9375 -0.230085,0.405145 -0.431856,0.813138 -0.8125,1.125 L 29.0625,32 32.5,32 c 0.831,0 1.5,0.669 1.5,1.5 0,0.831 -0.669,1.5 -1.5,1.5 l -6.75,0 c -0.485954,-0.06295 -1.015037,-0.102201 -1.40625,-0.5 -0.559748,-0.559748 -0.559748,-1.471502 0,-2.03125 l 6.0625,-6.0625 c 0.781049,-0.781048 0.781049,-2.031452 0,-2.8125 -0.781048,-0.781048 -2.031452,-0.781048 -2.8125,0 C 27.178987,24.008513 26.97426,24.456882 27,25 c -0.928039,0 -2.023286,-7.4e-4 -3,0 0,-1.279612 0.492439,-2.554939 1.46875,-3.53125 C 26.445061,20.492439 27.720388,20 29,20 z M 17.1875,20.09375 C 17.511601,20.01794 17.880493,20.069869 18.34375,20.25 18.58449,20.491387 19,20.513905 19,21.5 l 0,12 C 19,34.331 18.331,35 17.5,35 16.669,35 16,34.331 16,33.5 l 0,-8.375 -0.96875,0.96875 c -0.587606,0.587606 -1.537394,0.587606 -2.125,0 -0.587606,-0.587606 -0.587606,-1.537394 0,-2.125 L 16.25,20.65625 c 0.334089,-0.283141 0.613399,-0.48669 0.9375,-0.5625 z" fill="#808080" opacity="0.8"/>
  <path d="m 14,3 c -1.108,0 -2,0.892 -2,2 l 0,6 c 0,1.108 0.892,2 2,2 1.108,0 2,-0.892 2,-2 L 16,5 C 16,3.892 15.108,3 14,3 z m 20,0 c -1.108,0 -2,0.892 -2,2 l 0,6 c 0,1.108 0.892,2 2,2 1.108,0 2,-0.892 2,-2 L 36,5 C 36,3.892 35.108,3 34,3 z M 4,8 C 4,8 2,8 2,10 l 0,28 c 0,2 2,2 2,2 l 40,0 c 0,0 2,0 2,-2 L 46,10 C 46,8 44,8 44,8 l -6,0 0,3 c 0,2.216 -1.784,4 -4,4 -2.216,0 -4,-1.784 -4,-4 l 0,-3 -12,0 0,3 c 0,2.216 -1.784,4 -4,4 -2.216,0 -4,-1.784 -4,-4 L 10,8 4,8 z m 25,11 c 1.279612,0 2.554939,0.492439 3.53125,1.46875 1.614399,1.6144 1.867625,4.037831 0.8125,5.9375 -0.230085,0.405145 -0.431856,0.813138 -0.8125,1.125 L 29.0625,31 32.5,31 c 0.831,0 1.5,0.669 1.5,1.5 0,0.831 -0.669,1.5 -1.5,1.5 l -6.75,0 c -0.485954,-0.06295 -1.015037,-0.102201 -1.40625,-0.5 -0.559748,-0.559748 -0.559748,-1.471502 0,-2.03125 l 6.0625,-6.0625 c 0.781049,-0.781048 0.781049,-2.031452 0,-2.8125 -0.781048,-0.781048 -2.031452,-0.781048 -2.8125,0 C 27.178987,23.008513 26.97426,23.456882 27,24 c -0.928039,0 -2.023286,-7.4e-4 -3,0 0,-1.279612 0.492439,-2.554939 1.46875,-3.53125 C 26.445061,19.492439 27.720388,19 29,19 z M 17.1875,19.09375 C 17.511601,19.01794 17.880493,19.069869 18.34375,19.25 18.58449,19.491387 19,19.513905 19,20.5 l 0,12 C 19,33.331 18.331,34 17.5,34 16.669,34 16,33.331 16,32.5 l 0,-8.375 -0.96875,0.96875 c -0.587606,0.587606 -1.537394,0.587606 -2.125,0 -0.587606,-0.587606 -0.587606,-1.537394 0,-2.125 L 16.25,19.65625 c 0.334089,-0.283141 0.613399,-0.48669 0.9375,-0.5625 z" fill="#ffffff"/>

</svg>
