<?xml version="1.0" encoding="UTF-8"?>
<svg xmlns="http://www.w3.org/2000/svg" version="1.1" baseProfile="tiny" viewBox="0 0 48 48">

  <path d="M 24,6 C 14.058875,6 6,14.058875 6,24 6,33.941125 14.058875,42 24,42 33.941125,42 42,33.941125 42,24 42,14.058875 33.941125,6 24,6 Z m 0,2 c 8.836556,0 16,7.163444 16,16 0,8.836556 -7.163444,16 -16,16 C 15.163444,40 8,32.836556 8,24 8,15.163444 15.163444,8 24,8 Z M 14,23 c -0.554,0 -1,0.446 -1,1 0,0.554 0.446,1 1,1 h 20 c 0.554,0 1,-0.446 1,-1 0,-0.554 -0.446,-1 -1,-1 z" stroke="#404040" stroke-width="2" opacity="0.4"/>
  <path d="M 24,7 C 14.058875,7 6,15.058875 6,25 6,34.941125 14.058875,43 24,43 33.941125,43 42,34.941125 42,25 42,15.058875 33.941125,7 24,7 Z m 0,2 c 8.836556,0 16,7.163444 16,16 0,8.836556 -7.163444,16 -16,16 C 15.163444,41 8,33.836556 8,25 8,16.163444 15.163444,9 24,9 Z M 14,24 c -0.554,0 -1,0.446 -1,1 0,0.554 0.446,1 1,1 h 20 c 0.554,0 1,-0.446 1,-1 0,-0.554 -0.446,-1 -1,-1 z" fill="#808080" opacity="0.8"/>
  <path d="M 24,6 C 14.058875,6 6,14.058875 6,24 6,33.941125 14.058875,42 24,42 33.941125,42 42,33.941125 42,24 42,14.058875 33.941125,6 24,6 Z m 0,2 c 8.836556,0 16,7.163444 16,16 0,8.836556 -7.163444,16 -16,16 C 15.163444,40 8,32.836556 8,24 8,15.163444 15.163444,8 24,8 Z M 14,23 c -0.554,0 -1,0.446 -1,1 0,0.554 0.446,1 1,1 h 20 c 0.554,0 1,-0.446 1,-1 0,-0.554 -0.446,-1 -1,-1 z" fill="#ffffff"/>

</svg>
