<?xml version="1.0" encoding="UTF-8"?>
<svg xmlns="http://www.w3.org/2000/svg" version="1.1" baseProfile="tiny" viewBox="0 0 48 48">

  <path d="M 31.75,5.15625 31,5.3125 31,19.75 c -0.47873,-0.295199 -1.163217,-0.49512 -2,-0.46875 -1.993985,0.06284 -4.065227,1.191681 -4.625,2.5 -0.559772,1.30832 0.599765,2.31284 2.59375,2.25 1.993985,-0.06284 4.065228,-1.19168 4.625,-2.5 l 0.03125,-0.0625 c 0.07785,-0.201715 0.126016,-0.378995 0.125,-0.5625 l 0,-12 5.25,1.5 0,-3.75 z M 14.375,9.625 8.6875,12.375 c -0.3206359,4.546232 1.746824,10.804084 5.90625,16.71875 4.114012,5.850088 9.234068,9.903633 13.5625,11.15625 l 4.5625,-4.4375 -4.84375,-5.15625 -1.9375,3.375 C 23.646972,32.338276 21.027502,29.595506 18.65625,26.21875 16.275843,22.828956 14.577568,19.43573 13.75,16.6875 l 3.8125,-0.75 z" stroke="#404040" stroke-width="2" opacity="0.4"/>
  <path d="M 31.75,6.15625 31,6.3125 31,20.75 c -0.47873,-0.295199 -1.163217,-0.49512 -2,-0.46875 -1.993985,0.06284 -4.065227,1.191681 -4.625,2.5 -0.559772,1.30832 0.599765,2.31284 2.59375,2.25 1.993985,-0.06284 4.065228,-1.19168 4.625,-2.5 l 0.03125,-0.0625 c 0.07785,-0.201715 0.126016,-0.378995 0.125,-0.5625 l 0,-12 5.25,1.5 0,-3.75 z M 14.375,10.625 8.6875,13.375 c -0.3206359,4.546232 1.746824,10.804084 5.90625,16.71875 4.114012,5.850088 9.234068,9.903633 13.5625,11.15625 l 4.5625,-4.4375 -4.84375,-5.15625 -1.9375,3.375 C 23.646972,33.338276 21.027502,30.595506 18.65625,27.21875 16.275843,23.828956 14.577568,20.43573 13.75,17.6875 l 3.8125,-0.75 z" fill="#808080" opacity="0.8"/>
  <path d="M 31.75,5.15625 31,5.3125 31,19.75 c -0.47873,-0.295199 -1.163217,-0.49512 -2,-0.46875 -1.993985,0.06284 -4.065227,1.191681 -4.625,2.5 -0.559772,1.30832 0.599765,2.31284 2.59375,2.25 1.993985,-0.06284 4.065228,-1.19168 4.625,-2.5 l 0.03125,-0.0625 c 0.07785,-0.201715 0.126016,-0.378995 0.125,-0.5625 l 0,-12 5.25,1.5 0,-3.75 z M 14.375,9.625 8.6875,12.375 c -0.3206359,4.546232 1.746824,10.804084 5.90625,16.71875 4.114012,5.850088 9.234068,9.903633 13.5625,11.15625 l 4.5625,-4.4375 -4.84375,-5.15625 -1.9375,3.375 C 23.646972,32.338276 21.027502,29.595506 18.65625,26.21875 16.275843,22.828956 14.577568,19.43573 13.75,16.6875 l 3.8125,-0.75 z" fill="#ffffff"/>

</svg>
