<?xml version="1.0" encoding="UTF-8"?>
<svg xmlns="http://www.w3.org/2000/svg" version="1.1" baseProfile="tiny" viewBox="0 0 48 48">

  <path d="m 14,4 c -1.108,0 -2,0.892 -2,2 l 0,36 c 0,1.108 0.892,2 2,2 l 20,0 c 1.108,0 2,-0.892 2,-2 L 36,6 C 36,4.892 35.108,4 34,4 L 14,4 z m 0,4 20,0 0,32 -20,0 0,-32 z m 10,8 0,2 c 3.279425,0.0032 5.958254,2.65458 6,5.9375 l 0,0.03125 C 30.013464,27.282431 27.344931,29.986536 24.03125,30 20.717569,30.013464 18.013464,27.344931 18,24.03125 17.996,23.054981 18.242917,22.128814 18.65625,21.3125 l -1.8125,-0.875 C 16.305549,21.517854 15.994746,22.738248 16,24.03125 16.017951,28.449492 19.613008,32.017951 24.03125,32 28.449492,31.982049 32.017951,28.386992 32,23.96875 l 0,-0.0625 C 31.944298,19.525874 28.376812,15.999191 24,16 z m -4,3 -1,1 5,5 1,-1 -5,-5 z" stroke="#404040" stroke-width="2" opacity="0.4"/>
  <path d="m 14,5 c -1.108,0 -2,0.892 -2,2 l 0,36 c 0,1.108 0.892,2 2,2 l 20,0 c 1.108,0 2,-0.892 2,-2 L 36,7 C 36,5.892 35.108,5 34,5 L 14,5 z m 0,4 20,0 0,32 -20,0 0,-32 z m 10,8 0,2 c 3.279425,0.0032 5.958254,2.65458 6,5.9375 l 0,0.03125 C 30.013464,28.282431 27.344931,30.986536 24.03125,31 20.717569,31.013464 18.013464,28.344931 18,25.03125 17.996,24.054981 18.242917,23.128814 18.65625,22.3125 l -1.8125,-0.875 C 16.305549,22.517854 15.994746,23.738248 16,25.03125 16.017951,29.449492 19.613008,33.017951 24.03125,33 28.449492,32.982049 32.017951,29.386992 32,24.96875 l 0,-0.0625 C 31.944298,20.525874 28.376812,16.999191 24,17 z m -4,3 -1,1 5,5 1,-1 -5,-5 z" fill="#808080" opacity="0.8"/>
  <path d="m 14,4 c -1.108,0 -2,0.892 -2,2 l 0,36 c 0,1.108 0.892,2 2,2 l 20,0 c 1.108,0 2,-0.892 2,-2 L 36,6 C 36,4.892 35.108,4 34,4 L 14,4 z m 0,4 20,0 0,32 -20,0 0,-32 z m 10,8 0,2 c 3.279425,0.0032 5.958254,2.65458 6,5.9375 l 0,0.03125 C 30.013464,27.282431 27.344931,29.986536 24.03125,30 20.717569,30.013464 18.013464,27.344931 18,24.03125 17.996,23.054981 18.242917,22.128814 18.65625,21.3125 l -1.8125,-0.875 C 16.305549,21.517854 15.994746,22.738248 16,24.03125 16.017951,28.449492 19.613008,32.017951 24.03125,32 28.449492,31.982049 32.017951,28.386992 32,23.96875 l 0,-0.0625 C 31.944298,19.525874 28.376812,15.999191 24,16 z m -4,3 -1,1 5,5 1,-1 -5,-5 z" fill="#ffffff"/>

</svg>
