<?xml version="1.0" encoding="UTF-8"?>
<svg xmlns="http://www.w3.org/2000/svg" version="1.1" baseProfile="tiny" viewBox="0 0 48 48">

  <path d="M 11.5,5 C 7.9101491,5 5,7.910149 5,11.5 c 0,1.330872 0.407447,2.563368 1.09375,3.59375 1.9387802,-3.886821 5.113179,-7.06122 9,-9 C 14.063368,5.407447 12.830872,5 11.5,5 z m 25,0 c -1.330872,0 -2.563368,0.407447 -3.59375,1.09375 3.886821,1.93878 7.06122,5.113179 9,9 C 42.592553,14.063368 43,12.830872 43,11.5 43,7.910149 40.089851,5 36.5,5 z M 24,6 C 14.058875,6 6,14.058875 6,24 6,33.941125 14.058875,42 24,42 33.941125,42 42,33.941125 42,24 42,14.058875 33.941125,6 24,6 z m 0,3 c 8.284271,0 15,6.715729 15,15 0,8.284271 -6.715729,15 -15,15 C 15.715729,39 9,32.284271 9,24 9,15.715729 15.715729,9 24,9 z m 0,2 c -0.554,0 -1,0.446 -1,1 L 23,23.875 23,24 c 0,0.02172 -0.0014,0.04113 0,0.0625 0.0077,0.11179 0.04981,0.209641 0.09375,0.3125 0.03976,0.09309 0.08879,0.171724 0.15625,0.25 0.04928,0.05969 0.0945,0.109444 0.15625,0.15625 0.03379,0.0257 0.05598,0.07194 0.09375,0.09375 l 7.78125,4.5 c 0.479778,0.277 1.098,0.104778 1.375,-0.375 0.277,-0.479778 0.104778,-1.098 -0.375,-1.375 L 25,23.40625 25,12 c 0,-0.554 -0.446,-1 -1,-1 z" stroke="#404040" stroke-width="2" opacity="0.4"/>
  <path d="M 11.5,6 C 7.9101491,6 5,8.910149 5,12.5 c 0,1.330872 0.407447,2.563368 1.09375,3.59375 1.9387802,-3.886821 5.113179,-7.06122 9,-9 C 14.063368,6.407447 12.830872,6 11.5,6 z m 25,0 c -1.330872,0 -2.563368,0.407447 -3.59375,1.09375 3.886821,1.93878 7.06122,5.113179 9,9 C 42.592553,15.063368 43,13.830872 43,12.5 43,8.910149 40.089851,6 36.5,6 z M 24,7 C 14.058875,7 6,15.058875 6,25 6,34.941125 14.058875,43 24,43 33.941125,43 42,34.941125 42,25 42,15.058875 33.941125,7 24,7 z m 0,3 c 8.284271,0 15,6.715729 15,15 0,8.284271 -6.715729,15 -15,15 C 15.715729,40 9,33.284271 9,25 9,16.715729 15.715729,10 24,10 z m 0,2 c -0.554,0 -1,0.446 -1,1 L 23,24.875 23,25 c 0,0.02172 -0.0014,0.04113 0,0.0625 0.0077,0.11179 0.04981,0.209641 0.09375,0.3125 0.03976,0.09309 0.08879,0.171724 0.15625,0.25 0.04928,0.05969 0.0945,0.109444 0.15625,0.15625 0.03379,0.0257 0.05598,0.07194 0.09375,0.09375 l 7.78125,4.5 c 0.479778,0.277 1.098,0.104778 1.375,-0.375 0.277,-0.479778 0.104778,-1.098 -0.375,-1.375 L 25,24.40625 25,13 c 0,-0.554 -0.446,-1 -1,-1 z" fill="#808080" opacity="0.8"/>
  <path d="M 11.5,5 C 7.9101491,5 5,7.910149 5,11.5 c 0,1.330872 0.407447,2.563368 1.09375,3.59375 1.9387802,-3.886821 5.113179,-7.06122 9,-9 C 14.063368,5.407447 12.830872,5 11.5,5 z m 25,0 c -1.330872,0 -2.563368,0.407447 -3.59375,1.09375 3.886821,1.93878 7.06122,5.113179 9,9 C 42.592553,14.063368 43,12.830872 43,11.5 43,7.910149 40.089851,5 36.5,5 z M 24,6 C 14.058875,6 6,14.058875 6,24 6,33.941125 14.058875,42 24,42 33.941125,42 42,33.941125 42,24 42,14.058875 33.941125,6 24,6 z m 0,3 c 8.284271,0 15,6.715729 15,15 0,8.284271 -6.715729,15 -15,15 C 15.715729,39 9,32.284271 9,24 9,15.715729 15.715729,9 24,9 z m 0,2 c -0.554,0 -1,0.446 -1,1 L 23,23.875 23,24 c 0,0.02172 -0.0014,0.04113 0,0.0625 0.0077,0.11179 0.04981,0.209641 0.09375,0.3125 0.03976,0.09309 0.08879,0.171724 0.15625,0.25 0.04928,0.05969 0.0945,0.109444 0.15625,0.15625 0.03379,0.0257 0.05598,0.07194 0.09375,0.09375 l 7.78125,4.5 c 0.479778,0.277 1.098,0.104778 1.375,-0.375 0.277,-0.479778 0.104778,-1.098 -0.375,-1.375 L 25,23.40625 25,12 c 0,-0.554 -0.446,-1 -1,-1 z" fill="#ffffff"/>

</svg>
