<?xml version="1.0" encoding="UTF-8"?>
<svg xmlns="http://www.w3.org/2000/svg" version="1.1" baseProfile="tiny" viewBox="0 0 48 48">

  <path d="m 7,10 c -1.108,0 -2,0.892 -2,2 l 0,24 c 0,1.108 0.892,2 2,2 l 34,0 c 1.108,0 2,-0.892 2,-2 l 0,-24 c 0,-1.108 -0.892,-2 -2,-2 L 7,10 z m 1,2 32,0 c 0.554,0 1,0.446 1,1 l 0,22 c 0,0.554 -0.446,1 -1,1 L 8,36 C 7.446,36 7,35.554 7,35 L 7,13 c 0,-0.554 0.446,-1 1,-1 z m 9,2 c -2.209139,0 -4,1.790861 -4,4 0,2.209139 1.790861,4 4,4 2.209139,0 4,-1.790861 4,-4 0,-2.209139 -1.790861,-4 -4,-4 z M 34,21 23.96875,29.15625 20,26 l -10,8 8,0 2,0 5,0 14,0 0,-9 -5,-4 z" stroke="#404040" stroke-width="2" opacity="0.4"/>
  <path d="m 7,11 c -1.108,0 -2,0.892 -2,2 l 0,24 c 0,1.108 0.892,2 2,2 l 34,0 c 1.108,0 2,-0.892 2,-2 l 0,-24 c 0,-1.108 -0.892,-2 -2,-2 L 7,11 z m 1,2 32,0 c 0.554,0 1,0.446 1,1 l 0,22 c 0,0.554 -0.446,1 -1,1 L 8,37 C 7.446,37 7,36.554 7,36 L 7,14 c 0,-0.554 0.446,-1 1,-1 z m 9,2 c -2.209139,0 -4,1.790861 -4,4 0,2.209139 1.790861,4 4,4 2.209139,0 4,-1.790861 4,-4 0,-2.209139 -1.790861,-4 -4,-4 z M 34,22 23.96875,30.15625 20,27 l -10,8 8,0 2,0 5,0 14,0 0,-9 -5,-4 z" fill="#808080" opacity="0.8"/>
  <path d="m 7,10 c -1.108,0 -2,0.892 -2,2 l 0,24 c 0,1.108 0.892,2 2,2 l 34,0 c 1.108,0 2,-0.892 2,-2 l 0,-24 c 0,-1.108 -0.892,-2 -2,-2 L 7,10 z m 1,2 32,0 c 0.554,0 1,0.446 1,1 l 0,22 c 0,0.554 -0.446,1 -1,1 L 8,36 C 7.446,36 7,35.554 7,35 L 7,13 c 0,-0.554 0.446,-1 1,-1 z m 9,2 c -2.209139,0 -4,1.790861 -4,4 0,2.209139 1.790861,4 4,4 2.209139,0 4,-1.790861 4,-4 0,-2.209139 -1.790861,-4 -4,-4 z M 34,21 23.96875,29.15625 20,26 l -10,8 8,0 2,0 5,0 14,0 0,-9 -5,-4 z" fill="#ffffff"/>

</svg>
