<?xml version="1.0" encoding="UTF-8"?>
<svg xmlns="http://www.w3.org/2000/svg" version="1.1" baseProfile="tiny" viewBox="0 0 48 48">

  <path d="m 24,3 c -1.108,-3e-7 -2,0.8919995 -2,2 v 6 c 0,1.108001 0.892,2.000001 2,2 1.108,10e-7 2,-0.891999 2,-2 V 5 C 26,3.8919991 25.108,2.9999995 24,3 Z M 10.564453,8.5625 c -0.511238,0 -1.0223254,0.196153 -1.4140624,0.587891 -0.7834745,0.783474 -0.7834747,2.04465 0,2.828125 l 4.2421874,4.24414 c 0.783475,0.783475 2.046604,0.783475 2.830078,0 0.783475,-0.783474 0.783475,-2.046603 0,-2.830078 L 11.978516,9.150391 C 11.586778,8.758653 11.075691,8.5625 10.564453,8.5625 Z m 26.871094,0 c -0.511238,0 -1.022325,0.196153 -1.414063,0.587891 l -4.24414,4.242187 c -0.783475,0.783475 -0.783475,2.046604 0,2.830078 0.783474,0.783475 2.046603,0.783475 2.830078,0 l 4.242187,-4.24414 c 0.783475,-0.783475 0.783475,-2.044651 0,-2.828125 C 38.457872,8.758653 37.946785,8.5625 37.435547,8.5625 Z M 24,16 a 8,8 0 0 0 -8,8 8,8 0 0 0 8,8 8,8 0 0 0 8,-8 8,8 0 0 0 -8,-8 z M 5,22 c -1.108,0 -2,0.892 -2,2 0,1.108 0.892,2 2,2 h 6 c 1.108,0 2,-0.892 2,-2 0,-1.108 -0.892,-2 -2,-2 z m 32,0 c -1.108,0 -2,0.892 -2,2 0,1.108 0.892,2 2,2 h 6 c 1.108,0 2,-0.892 2,-2 0,-1.108 -0.892,-2 -2,-2 z m -22.193359,9.191406 c -0.511239,0 -1.022325,0.1942 -1.414063,0.585938 l -4.2421874,4.24414 c -0.7834743,0.783475 -0.7834743,2.044651 0,2.828125 0.7834743,0.783475 2.0446504,0.783475 2.8281254,0 l 4.24414,-4.242187 c 0.783475,-0.783475 0.783475,-2.046604 0,-2.830078 -0.391737,-0.391738 -0.904777,-0.585938 -1.416015,-0.585938 z m 18.386718,0 c -0.511238,0 -1.024278,0.1942 -1.416015,0.585938 -0.783475,0.783474 -0.783475,2.046603 0,2.830078 l 4.24414,4.242187 c 0.783474,0.783475 2.044651,0.783475 2.828125,0 0.783475,-0.783474 0.783475,-2.04465 0,-2.828125 l -4.242187,-4.24414 C 34.215684,31.385606 33.704597,31.191406 33.193359,31.191406 Z M 24,35 c -1.108,-10e-7 -2,0.891999 -2,2 v 6 c 0,1.108 0.892,2 2,2 1.108,0 2,-0.891999 2,-2 v -6 c 0,-1.108001 -0.892,-2.000001 -2,-2 z" stroke="#404040" stroke-width="2" opacity="0.4"/>
  <path d="m 24,4 c -1.108,-3e-7 -2,0.8919995 -2,2 v 6 c 0,1.108001 0.892,2.000001 2,2 1.108,10e-7 2,-0.891999 2,-2 V 6 C 26,4.8919991 25.108,3.9999995 24,4 Z M 10.564453,9.5625 c -0.511238,0 -1.0223254,0.196153 -1.4140624,0.587891 -0.7834745,0.783474 -0.7834747,2.04465 0,2.828125 l 4.2421874,4.24414 c 0.783475,0.783475 2.046604,0.783475 2.830078,0 0.783475,-0.783474 0.783475,-2.046603 0,-2.830078 l -4.24414,-4.242187 C 11.586778,9.758653 11.075691,9.5625 10.564453,9.5625 Z m 26.871094,0 c -0.511238,0 -1.022325,0.196153 -1.414063,0.587891 l -4.24414,4.242187 c -0.783475,0.783475 -0.783475,2.046604 0,2.830078 0.783474,0.783475 2.046603,0.783475 2.830078,0 l 4.242187,-4.24414 c 0.783475,-0.783475 0.783475,-2.044651 0,-2.828125 C 38.457872,9.758653 37.946785,9.5625 37.435547,9.5625 Z M 24,17 a 8,8 0 0 0 -8,8 8,8 0 0 0 8,8 8,8 0 0 0 8,-8 8,8 0 0 0 -8,-8 z M 5,23 c -1.108,0 -2,0.892 -2,2 0,1.108 0.892,2 2,2 h 6 c 1.108,0 2,-0.892 2,-2 0,-1.108 -0.892,-2 -2,-2 z m 32,0 c -1.108,0 -2,0.892 -2,2 0,1.108 0.892,2 2,2 h 6 c 1.108,0 2,-0.892 2,-2 0,-1.108 -0.892,-2 -2,-2 z m -22.193359,9.191406 c -0.511239,0 -1.022325,0.1942 -1.414063,0.585938 l -4.2421874,4.24414 c -0.7834743,0.783475 -0.7834743,2.044651 0,2.828125 0.7834743,0.783475 2.0446504,0.783475 2.8281254,0 l 4.24414,-4.242187 c 0.783475,-0.783475 0.783475,-2.046604 0,-2.830078 -0.391737,-0.391738 -0.904777,-0.585938 -1.416015,-0.585938 z m 18.386718,0 c -0.511238,0 -1.024278,0.1942 -1.416015,0.585938 -0.783475,0.783474 -0.783475,2.046603 0,2.830078 l 4.24414,4.242187 c 0.783474,0.783475 2.044651,0.783475 2.828125,0 0.783475,-0.783474 0.783475,-2.04465 0,-2.828125 l -4.242187,-4.24414 C 34.215684,32.385606 33.704597,32.191406 33.193359,32.191406 Z M 24,36 c -1.108,-10e-7 -2,0.891999 -2,2 v 6 c 0,1.108 0.892,2 2,2 1.108,0 2,-0.891999 2,-2 v -6 c 0,-1.108001 -0.892,-2.000001 -2,-2 z" fill="#808080" opacity="0.8"/>
  <path d="m 24,3 c -1.108,-3e-7 -2,0.8919995 -2,2 v 6 c 0,1.108001 0.892,2.000001 2,2 1.108,10e-7 2,-0.891999 2,-2 V 5 C 26,3.8919991 25.108,2.9999995 24,3 Z M 10.564453,8.5625 c -0.511238,0 -1.0223254,0.196153 -1.4140624,0.587891 -0.7834745,0.783474 -0.7834747,2.04465 0,2.828125 l 4.2421874,4.24414 c 0.783475,0.783475 2.046604,0.783475 2.830078,0 0.783475,-0.783474 0.783475,-2.046603 0,-2.830078 L 11.978516,9.150391 C 11.586778,8.758653 11.075691,8.5625 10.564453,8.5625 Z m 26.871094,0 c -0.511238,0 -1.022325,0.196153 -1.414063,0.587891 l -4.24414,4.242187 c -0.783475,0.783475 -0.783475,2.046604 0,2.830078 0.783474,0.783475 2.046603,0.783475 2.830078,0 l 4.242187,-4.24414 c 0.783475,-0.783475 0.783475,-2.044651 0,-2.828125 C 38.457872,8.758653 37.946785,8.5625 37.435547,8.5625 Z M 24,16 a 8,8 0 0 0 -8,8 8,8 0 0 0 8,8 8,8 0 0 0 8,-8 8,8 0 0 0 -8,-8 z M 5,22 c -1.108,0 -2,0.892 -2,2 0,1.108 0.892,2 2,2 h 6 c 1.108,0 2,-0.892 2,-2 0,-1.108 -0.892,-2 -2,-2 z m 32,0 c -1.108,0 -2,0.892 -2,2 0,1.108 0.892,2 2,2 h 6 c 1.108,0 2,-0.892 2,-2 0,-1.108 -0.892,-2 -2,-2 z m -22.193359,9.191406 c -0.511239,0 -1.022325,0.1942 -1.414063,0.585938 l -4.2421874,4.24414 c -0.7834743,0.783475 -0.7834743,2.044651 0,2.828125 0.7834743,0.783475 2.0446504,0.783475 2.8281254,0 l 4.24414,-4.242187 c 0.783475,-0.783475 0.783475,-2.046604 0,-2.830078 -0.391737,-0.391738 -0.904777,-0.585938 -1.416015,-0.585938 z m 18.386718,0 c -0.511238,0 -1.024278,0.1942 -1.416015,0.585938 -0.783475,0.783474 -0.783475,2.046603 0,2.830078 l 4.24414,4.242187 c 0.783474,0.783475 2.044651,0.783475 2.828125,0 0.783475,-0.783474 0.783475,-2.04465 0,-2.828125 l -4.242187,-4.24414 C 34.215684,31.385606 33.704597,31.191406 33.193359,31.191406 Z M 24,35 c -1.108,-10e-7 -2,0.891999 -2,2 v 6 c 0,1.108 0.892,2 2,2 1.108,0 2,-0.891999 2,-2 v -6 c 0,-1.108001 -0.892,-2.000001 -2,-2 z" fill="#ffffff"/>

</svg>
