<?xml version="1.0" encoding="UTF-8"?>
<svg xmlns="http://www.w3.org/2000/svg" version="1.1" baseProfile="tiny" viewBox="0 0 48 48">

  <path d="m 18.314453,10.923828 c -0.511845,0 -1.023538,0.195413 -1.414062,0.585938 -0.781049,0.781049 -0.781048,2.047077 0,2.828125 5.46734,5.46734 5.46734,14.333441 0,19.800781 -0.781048,0.781048 -0.781048,2.047077 0,2.828125 0.781048,0.781048 2.047077,0.781048 2.828125,0 0.09763,-0.09763 0.190449,-0.199647 0.263672,-0.310547 6.647057,-6.951088 6.647057,-17.88485 0,-24.835938 -0.07322,-0.1109 -0.166041,-0.212915 -0.263672,-0.310546 -0.390524,-0.390524 -0.902218,-0.585938 -1.414063,-0.585938 z m -5.658203,5.658203 c -0.511845,0 -1.023538,0.195414 -1.414062,0.585938 -0.781049,0.781048 -0.78105,2.047077 0,2.828125 2.343144,2.343146 2.343144,6.141229 0,8.484375 -0.781049,0.781048 -0.78105,2.047077 0,2.828125 0.781048,0.781048 2.047076,0.781048 2.828124,0 0.09763,-0.09763 0.192403,-0.197694 0.265626,-0.308594 3.529744,-3.823653 3.529744,-9.699784 0,-13.523438 -0.07322,-0.1109 -0.167995,-0.210962 -0.265626,-0.308593 -0.390523,-0.390524 -0.902217,-0.585938 -1.414062,-0.585938 z M 31,18 V 30 H 43 V 18 Z M 7,22.238281 c -0.5118447,0 -1.023538,0.195414 -1.4140625,0.585938 -0.781048,0.781049 -0.781048,2.047076 0,2.828125 0.781049,0.781048 2.047076,0.781048 2.828125,0 0.781048,-0.781049 0.781048,-2.047076 0,-2.828125 C 8.023538,22.433695 7.5118447,22.238281 7,22.238281 Z" stroke="#404040" stroke-width="2" opacity="0.4"/>
  <path d="m 18.314453,11.923828 c -0.511845,0 -1.023538,0.195413 -1.414062,0.585938 -0.781049,0.781049 -0.781048,2.047077 0,2.828125 5.46734,5.46734 5.46734,14.333441 0,19.800781 -0.781048,0.781048 -0.781048,2.047077 0,2.828125 0.781048,0.781048 2.047077,0.781048 2.828125,0 0.09763,-0.09763 0.190449,-0.199647 0.263672,-0.310547 6.647057,-6.951088 6.647057,-17.88485 0,-24.835938 -0.07322,-0.1109 -0.166041,-0.212915 -0.263672,-0.310546 -0.390524,-0.390524 -0.902218,-0.585938 -1.414063,-0.585938 z m -5.658203,5.658203 c -0.511845,0 -1.023538,0.195414 -1.414062,0.585938 -0.781049,0.781048 -0.78105,2.047077 0,2.828125 2.343144,2.343146 2.343144,6.141229 0,8.484375 -0.781049,0.781048 -0.78105,2.047077 0,2.828125 0.781048,0.781048 2.047076,0.781048 2.828124,0 0.09763,-0.09763 0.192403,-0.197694 0.265626,-0.308594 3.529744,-3.823653 3.529744,-9.699784 0,-13.523438 -0.07322,-0.1109 -0.167995,-0.210962 -0.265626,-0.308593 -0.390523,-0.390524 -0.902217,-0.585938 -1.414062,-0.585938 z M 31,19 V 31 H 43 V 19 Z M 7,23.238281 c -0.5118447,0 -1.023538,0.195414 -1.4140625,0.585938 -0.781048,0.781049 -0.781048,2.047076 0,2.828125 0.781049,0.781048 2.047076,0.781048 2.828125,0 0.781048,-0.781049 0.781048,-2.047076 0,-2.828125 C 8.023538,23.433695 7.5118447,23.238281 7,23.238281 Z" fill="#808080" opacity="0.8"/>
  <path d="m 18.314453,10.923828 c -0.511845,0 -1.023538,0.195413 -1.414062,0.585938 -0.781049,0.781049 -0.781048,2.047077 0,2.828125 5.46734,5.46734 5.46734,14.333441 0,19.800781 -0.781048,0.781048 -0.781048,2.047077 0,2.828125 0.781048,0.781048 2.047077,0.781048 2.828125,0 0.09763,-0.09763 0.190449,-0.199647 0.263672,-0.310547 6.647057,-6.951088 6.647057,-17.88485 0,-24.835938 -0.07322,-0.1109 -0.166041,-0.212915 -0.263672,-0.310546 -0.390524,-0.390524 -0.902218,-0.585938 -1.414063,-0.585938 z m -5.658203,5.658203 c -0.511845,0 -1.023538,0.195414 -1.414062,0.585938 -0.781049,0.781048 -0.78105,2.047077 0,2.828125 2.343144,2.343146 2.343144,6.141229 0,8.484375 -0.781049,0.781048 -0.78105,2.047077 0,2.828125 0.781048,0.781048 2.047076,0.781048 2.828124,0 0.09763,-0.09763 0.192403,-0.197694 0.265626,-0.308594 3.529744,-3.823653 3.529744,-9.699784 0,-13.523438 -0.07322,-0.1109 -0.167995,-0.210962 -0.265626,-0.308593 -0.390523,-0.390524 -0.902217,-0.585938 -1.414062,-0.585938 z M 31,18 V 30 H 43 V 18 Z M 7,22.238281 c -0.5118447,0 -1.023538,0.195414 -1.4140625,0.585938 -0.781048,0.781049 -0.781048,2.047076 0,2.828125 0.781049,0.781048 2.047076,0.781048 2.828125,0 0.781048,-0.781049 0.781048,-2.047076 0,-2.828125 C 8.023538,22.433695 7.5118447,22.238281 7,22.238281 Z" fill="#ffffff"/>

</svg>
