<?xml version="1.0" encoding="UTF-8"?>
<svg xmlns="http://www.w3.org/2000/svg" version="1.1" baseProfile="tiny" viewBox="0 0 48 48">

  <path d="M 24,5 C 13.50659,5 5,13.50659 5,24 c 0,6.914061 3.6976047,12.957332 9.21875,16.28125 l 2.0625,-3.4375 C 11.924504,34.219128 9,29.456923 9,24 9,15.715729 15.715729,9 24,9 c 8.284271,0 15,6.715729 15,15 0,5.456923 -2.924504,10.219128 -7.28125,12.84375 l 2.0625,3.4375 C 39.302395,36.957332 43,30.914061 43,24 43,13.50659 34.49341,5 24,5 z m 0,8 c -6.075132,0 -11,4.924868 -11,11 0,4.006849 2.142024,7.514355 5.34375,9.4375 L 20.40625,30 C 18.368782,28.776182 17,26.549818 17,24 c 0,-3.865993 3.134007,-7 7,-7 3.865993,0 7,3.134007 7,7 0,2.549818 -1.368782,4.776182 -3.40625,6 l 2.0625,3.4375 C 32.857976,31.514355 35,28.006849 35,24 35,17.924868 30.075132,13 24,13 z m 0,8 c -1.656854,0 -3,1.343146 -3,3 0,1.656854 1.343146,3 3,3 1.656854,0 3,-1.343146 3,-3 0,-1.656854 -1.343146,-3 -3,-3 z" stroke="#404040" stroke-width="2" opacity="0.4"/>
  <path d="M 24,6 C 13.50659,6 5,14.50659 5,25 c 0,6.914061 3.6976047,12.957332 9.21875,16.28125 l 2.0625,-3.4375 C 11.924504,35.219128 9,30.456923 9,25 9,16.715729 15.715729,10 24,10 c 8.284271,0 15,6.715729 15,15 0,5.456923 -2.924504,10.219128 -7.28125,12.84375 l 2.0625,3.4375 C 39.302395,37.957332 43,31.914061 43,25 43,14.50659 34.49341,6 24,6 z m 0,8 c -6.075132,0 -11,4.924868 -11,11 0,4.006849 2.142024,7.514355 5.34375,9.4375 L 20.40625,31 C 18.368782,29.776182 17,27.549818 17,25 c 0,-3.865993 3.134007,-7 7,-7 3.865993,0 7,3.134007 7,7 0,2.549818 -1.368782,4.776182 -3.40625,6 l 2.0625,3.4375 C 32.857976,32.514355 35,29.006849 35,25 35,18.924868 30.075132,14 24,14 z m 0,8 c -1.656854,0 -3,1.343146 -3,3 0,1.656854 1.343146,3 3,3 1.656854,0 3,-1.343146 3,-3 0,-1.656854 -1.343146,-3 -3,-3 z" fill="#808080" opacity="0.8"/>
  <path d="M 24,5 C 13.50659,5 5,13.50659 5,24 c 0,6.914061 3.6976047,12.957332 9.21875,16.28125 l 2.0625,-3.4375 C 11.924504,34.219128 9,29.456923 9,24 9,15.715729 15.715729,9 24,9 c 8.284271,0 15,6.715729 15,15 0,5.456923 -2.924504,10.219128 -7.28125,12.84375 l 2.0625,3.4375 C 39.302395,36.957332 43,30.914061 43,24 43,13.50659 34.49341,5 24,5 z m 0,8 c -6.075132,0 -11,4.924868 -11,11 0,4.006849 2.142024,7.514355 5.34375,9.4375 L 20.40625,30 C 18.368782,28.776182 17,26.549818 17,24 c 0,-3.865993 3.134007,-7 7,-7 3.865993,0 7,3.134007 7,7 0,2.549818 -1.368782,4.776182 -3.40625,6 l 2.0625,3.4375 C 32.857976,31.514355 35,28.006849 35,24 35,17.924868 30.075132,13 24,13 z m 0,8 c -1.656854,0 -3,1.343146 -3,3 0,1.656854 1.343146,3 3,3 1.656854,0 3,-1.343146 3,-3 0,-1.656854 -1.343146,-3 -3,-3 z" fill="#ffffff"/>

</svg>
