<?xml version="1.0" encoding="UTF-8"?>
<svg xmlns="http://www.w3.org/2000/svg" version="1.1" baseProfile="tiny" viewBox="0 0 48 48">

  <path d="m 10,45 c 0,0 0,2 2,2 h 24 c 2,0 2,-2 2,-2 V 7 C 38,7 38,5 36,5 H 30 V 3 c 0,0 0,-2 -2,-2 h -8 c -2,0 -2,2 -2,2 v 2 h -6 c -2,0 -2,2 -2,2 z m 4,-2 V 9 h 20 v 34 z m 8,-10 h 4 v -5 h 5 v -4 h -5 v -5 h -4 v 5 h -5 v 4 h 5 z" stroke="#404040" stroke-width="2" opacity="0.4"/>
  <path d="m 10,46 c 0,0 0,2 2,2 h 24 c 2,0 2,-2 2,-2 V 8 C 38,8 38,6 36,6 H 30 V 4 c 0,0 0,-2 -2,-2 h -8 c -2,0 -2,2 -2,2 v 2 h -6 c -2,0 -2,2 -2,2 z m 4,-2 V 10 h 20 v 34 z m 8,-10 h 4 v -5 h 5 v -4 h -5 v -5 h -4 v 5 h -5 v 4 h 5 z" fill="#808080" opacity="0.8"/>
  <path d="m 10,45 c 0,0 0,2 2,2 h 24 c 2,0 2,-2 2,-2 V 7 C 38,7 38,5 36,5 H 30 V 3 c 0,0 0,-2 -2,-2 h -8 c -2,0 -2,2 -2,2 v 2 h -6 c -2,0 -2,2 -2,2 z m 4,-2 V 9 h 20 v 34 z m 8,-10 h 4 v -5 h 5 v -4 h -5 v -5 h -4 v 5 h -5 v 4 h 5 z" fill="#ffffff"/>

</svg>
