<?xml version="1.0" encoding="UTF-8"?>
<svg xmlns="http://www.w3.org/2000/svg" version="1.1" baseProfile="tiny" viewBox="0 0 48 48">

  <path d="M 28.621094,8.9824219 C 28.175775,8.9825963 27.9528,9.5209401 28.267578,9.8359375 l 1.646484,1.6464845 -7.292968,7.292969 -7.646485,-7.646485 c -0.195265,-0.195184 -0.511766,-0.195184 -0.707031,0 l -2,2 c -0.195185,0.195265 -0.195185,0.511766 0,0.707032 l 10,10 c 0.195265,0.195184 0.511766,0.195184 0.707031,0 l 9.646485,-9.646485 1.646484,1.646485 c 0.314997,0.314779 0.853342,0.0918 0.853516,-0.353516 V 9.4824219 c -2.8e-5,-0.2761309 -0.223869,-0.4999724 -0.5,-0.5 z M 23.53125,26.53125 C 16.379438,26.54578 10.13377,28.422827 6.625,31.25 l 1,6.28125 7,-1 L 13,33 c 2.700596,-0.905241 6.436329,-1.463162 10.5625,-1.46875 4.142102,-0.0056 7.899109,0.539084 10.625,1.4375 l -1.5625,3.5625 7,1 1,-6.21875 C 37.084854,28.442239 30.762009,26.516561 23.53125,26.53125 Z" stroke="#404040" stroke-width="2" opacity="0.4"/>
  <path d="m 28.621094,10.982422 c -0.445319,1.74e-4 -0.668294,0.538518 -0.353516,0.853516 l 1.646484,1.646484 -7.292968,7.292969 -7.646485,-7.646485 c -0.195265,-0.195184 -0.511766,-0.195184 -0.707031,0 l -2,2 c -0.195185,0.195265 -0.195185,0.511766 0,0.707032 l 10,10 c 0.195265,0.195184 0.511766,0.195184 0.707031,0 l 9.646485,-9.646485 1.646484,1.646485 c 0.314997,0.314779 0.853342,0.0918 0.853516,-0.353516 v -6 c -2.8e-5,-0.276131 -0.223869,-0.499972 -0.5,-0.5 z M 23.53125,28.53125 C 16.379438,28.54578 10.13377,30.422827 6.625,33.25 l 1,6.28125 7,-1 L 13,35 c 2.700596,-0.905241 6.436329,-1.463162 10.5625,-1.46875 4.142102,-0.0056 7.899109,0.539084 10.625,1.4375 l -1.5625,3.5625 7,1 1,-6.21875 C 37.084854,30.442239 30.762009,28.516561 23.53125,28.53125 Z" fill="#808080" opacity="0.8"/>
  <path d="M 28.621094,8.9824219 C 28.175775,8.9825963 27.9528,9.5209401 28.267578,9.8359375 l 1.646484,1.6464845 -7.292968,7.292969 -7.646485,-7.646485 c -0.195265,-0.195184 -0.511766,-0.195184 -0.707031,0 l -2,2 c -0.195185,0.195265 -0.195185,0.511766 0,0.707032 l 10,10 c 0.195265,0.195184 0.511766,0.195184 0.707031,0 l 9.646485,-9.646485 1.646484,1.646485 c 0.314997,0.314779 0.853342,0.0918 0.853516,-0.353516 V 9.4824219 c -2.8e-5,-0.2761309 -0.223869,-0.4999724 -0.5,-0.5 z M 23.53125,26.53125 C 16.379438,26.54578 10.13377,28.422827 6.625,31.25 l 1,6.28125 7,-1 L 13,33 c 2.700596,-0.905241 6.436329,-1.463162 10.5625,-1.46875 4.142102,-0.0056 7.899109,0.539084 10.625,1.4375 l -1.5625,3.5625 7,1 1,-6.21875 C 37.084854,28.442239 30.762009,26.516561 23.53125,26.53125 Z" fill="#ffffff"/>

</svg>
