<?xml version="1.0" encoding="UTF-8"?>
<svg xmlns="http://www.w3.org/2000/svg" version="1.1" baseProfile="tiny" viewBox="0 0 48 48">

  <path d="M 5.84375,10.03125 24,23 42.15625,10.03125 l -36.3125,0 z M 4,12.71875 4,36 c 0,1.108 0.892,2 2,2 l 19.71875,0 0.90625,-5.53125 0.09375,-0.53125 0.3125,-0.40625 8.8125,-10.90625 1.25,-1.5625 0.03125,0.03125 1.21875,-1.5 0.03125,-0.0625 0.03125,0 c 0.05161,-0.06177 0.295558,-0.384822 0.65625,-0.625 0.395863,-0.263598 0.965661,-0.52108 1.65625,-0.59375 C 41.698853,16.209357 42.803391,16.461691 44,17.125 L 44,12.71875 24,27 4,12.71875 z m 36.9375,5.59375 c -0.703223,0.074 -1,0.46875 -1,0.46875 l -1.25,1.5625 6.21875,5.03125 1.25,-1.5625 c 0,0 1.265163,-1.545625 -1.84375,-4.0625 -1.554457,-1.258437 -2.671777,-1.511505 -3.375,-1.4375 z m -3.53125,3.5625 -8.8125,10.90625 -1.28125,7.9375 7.5,-2.90625 L 43.625,26.90625 37.40625,21.875 z M 44,29.625 37.21875,38 42,38 c 1.108,0 2,-0.892 2,-2 l 0,-6.375 z m -13.84375,4.40625 3.125,2.5 -4.09375,1.875 0.96875,-4.375 z" stroke="#404040" stroke-width="2" opacity="0.4"/>
  <path d="M 5.84375,11.03125 24,24 42.15625,11.03125 l -36.3125,0 z M 4,13.71875 4,37 c 0,1.108 0.892,2 2,2 l 19.71875,0 0.90625,-5.53125 0.09375,-0.53125 0.3125,-0.40625 8.8125,-10.90625 1.25,-1.5625 0.03125,0.03125 1.21875,-1.5 0.03125,-0.0625 0.03125,0 c 0.05161,-0.06177 0.295558,-0.384822 0.65625,-0.625 0.395863,-0.263598 0.965661,-0.52108 1.65625,-0.59375 C 41.698853,17.209357 42.803391,17.461691 44,18.125 L 44,13.71875 24,28 4,13.71875 z m 36.9375,5.59375 c -0.703223,0.074 -1,0.46875 -1,0.46875 l -1.25,1.5625 6.21875,5.03125 1.25,-1.5625 c 0,0 1.265163,-1.545625 -1.84375,-4.0625 -1.554457,-1.258437 -2.671777,-1.511505 -3.375,-1.4375 z m -3.53125,3.5625 -8.8125,10.90625 -1.28125,7.9375 7.5,-2.90625 L 43.625,27.90625 37.40625,22.875 z M 44,30.625 37.21875,39 42,39 c 1.108,0 2,-0.892 2,-2 l 0,-6.375 z m -13.84375,4.40625 3.125,2.5 -4.09375,1.875 0.96875,-4.375 z" fill="#808080" opacity="0.8"/>
  <path d="M 5.84375,10.03125 24,23 42.15625,10.03125 l -36.3125,0 z M 4,12.71875 4,36 c 0,1.108 0.892,2 2,2 l 19.71875,0 0.90625,-5.53125 0.09375,-0.53125 0.3125,-0.40625 8.8125,-10.90625 1.25,-1.5625 0.03125,0.03125 1.21875,-1.5 0.03125,-0.0625 0.03125,0 c 0.05161,-0.06177 0.295558,-0.384822 0.65625,-0.625 0.395863,-0.263598 0.965661,-0.52108 1.65625,-0.59375 C 41.698853,16.209357 42.803391,16.461691 44,17.125 L 44,12.71875 24,27 4,12.71875 z m 36.9375,5.59375 c -0.703223,0.074 -1,0.46875 -1,0.46875 l -1.25,1.5625 6.21875,5.03125 1.25,-1.5625 c 0,0 1.265163,-1.545625 -1.84375,-4.0625 -1.554457,-1.258437 -2.671777,-1.511505 -3.375,-1.4375 z m -3.53125,3.5625 -8.8125,10.90625 -1.28125,7.9375 7.5,-2.90625 L 43.625,26.90625 37.40625,21.875 z M 44,29.625 37.21875,38 42,38 c 1.108,0 2,-0.892 2,-2 l 0,-6.375 z m -13.84375,4.40625 3.125,2.5 -4.09375,1.875 0.96875,-4.375 z" fill="#ffffff"/>

</svg>
