<?xml version="1.0" encoding="UTF-8"?>
<svg xmlns="http://www.w3.org/2000/svg" version="1.1" baseProfile="tiny" viewBox="0 0 48 48">

  <path d="M 6,11 24,24 42.15625,11.03125 Z M 4,13.71875 V 37 37.046875 C 4,38.128373 4.8716322,39 5.953125,39 H 6 27.130859 c -0.812036,-1.302231 -1.289062,-2.833987 -1.289062,-4.476562 0,-4.682578 3.817424,-8.5 8.5,-8.5 4.682576,-2e-6 8.5,3.817422 8.5,8.5 0,1.642575 -0.477026,3.174331 -1.289063,4.476562 h 0.494141 C 43.128368,39 44,38.128368 44,37.046875 V 13.71875 L 24,28 Z m 30.341797,13.304688 a 7.5,7.5 0 0 0 -7.5,7.5 7.5,7.5 0 0 0 7.5,7.5 7.5,7.5 0 0 0 7.5,-7.5 7.5,7.5 0 0 0 -7.5,-7.5 z m -0.04492,1.78125 c 0.96,-10e-7 1.583984,0.687765 1.583984,1.759765 0,0.448 -0.06477,0.784906 -0.384765,2.128906 -0.352,1.568 -0.448547,2.223766 -0.560547,3.759766 H 33.625 c -0.144,-1.488 -0.288547,-2.432063 -0.560547,-3.664063 -0.32,-1.472 -0.384765,-1.856765 -0.384765,-2.384765 0,-0.896 0.705187,-1.599609 1.617187,-1.599609 z m -0.01563,8.351562 c 0.816,0 1.470703,0.656656 1.470703,1.472656 0,0.816 -0.672281,1.488282 -1.488281,1.488282 -0.816,0 -1.470703,-0.671532 -1.470703,-1.519532 0,-0.784 0.672281,-1.441406 1.488281,-1.441406 z" stroke="#404040" stroke-width="2" opacity="0.4"/>
  <path d="M 6,13 24,26 42.15625,13.03125 Z M 4,15.71875 V 39 39.046875 C 4,40.128373 4.8716322,41 5.953125,41 H 6 27.130859 c -0.812036,-1.302231 -1.289062,-2.833987 -1.289062,-4.476562 0,-4.682578 3.817424,-8.5 8.5,-8.5 4.682576,-2e-6 8.5,3.817422 8.5,8.5 0,1.642575 -0.477026,3.174331 -1.289063,4.476562 h 0.494141 C 43.128368,41 44,40.128368 44,39.046875 V 15.71875 L 24,30 Z m 30.341797,13.304688 a 7.5,7.5 0 0 0 -7.5,7.5 7.5,7.5 0 0 0 7.5,7.5 7.5,7.5 0 0 0 7.5,-7.5 7.5,7.5 0 0 0 -7.5,-7.5 z m -0.04492,1.78125 c 0.96,-10e-7 1.583984,0.687765 1.583984,1.759765 0,0.448 -0.06477,0.784906 -0.384765,2.128906 -0.352,1.568 -0.448547,2.223766 -0.560547,3.759766 H 33.625 c -0.144,-1.488 -0.288547,-2.432063 -0.560547,-3.664063 -0.32,-1.472 -0.384765,-1.856765 -0.384765,-2.384765 0,-0.896 0.705187,-1.599609 1.617187,-1.599609 z m -0.01563,8.351562 c 0.816,0 1.470703,0.656656 1.470703,1.472656 0,0.816 -0.672281,1.488282 -1.488281,1.488282 -0.816,0 -1.470703,-0.671532 -1.470703,-1.519532 0,-0.784 0.672281,-1.441406 1.488281,-1.441406 z" fill="#808080" opacity="0.8"/>
  <path d="M 6,11 24,24 42.15625,11.03125 Z M 4,13.71875 V 37 37.046875 C 4,38.128373 4.8716322,39 5.953125,39 H 6 27.130859 c -0.812036,-1.302231 -1.289062,-2.833987 -1.289062,-4.476562 0,-4.682578 3.817424,-8.5 8.5,-8.5 4.682576,-2e-6 8.5,3.817422 8.5,8.5 0,1.642575 -0.477026,3.174331 -1.289063,4.476562 h 0.494141 C 43.128368,39 44,38.128368 44,37.046875 V 13.71875 L 24,28 Z m 30.341797,13.304688 a 7.5,7.5 0 0 0 -7.5,7.5 7.5,7.5 0 0 0 7.5,7.5 7.5,7.5 0 0 0 7.5,-7.5 7.5,7.5 0 0 0 -7.5,-7.5 z m -0.04492,1.78125 c 0.96,-10e-7 1.583984,0.687765 1.583984,1.759765 0,0.448 -0.06477,0.784906 -0.384765,2.128906 -0.352,1.568 -0.448547,2.223766 -0.560547,3.759766 H 33.625 c -0.144,-1.488 -0.288547,-2.432063 -0.560547,-3.664063 -0.32,-1.472 -0.384765,-1.856765 -0.384765,-2.384765 0,-0.896 0.705187,-1.599609 1.617187,-1.599609 z m -0.01563,8.351562 c 0.816,0 1.470703,0.656656 1.470703,1.472656 0,0.816 -0.672281,1.488282 -1.488281,1.488282 -0.816,0 -1.470703,-0.671532 -1.470703,-1.519532 0,-0.784 0.672281,-1.441406 1.488281,-1.441406 z" fill="#ffffff"/>

</svg>
